<svg width="65" height="64" viewBox="0 0 65 64" fill="none" xmlns="http://www.w3.org/2000/svg">
<path fill-rule="evenodd" clip-rule="evenodd" d="M49.6138 6.03881C49.3669 6.13119 48.9544 6.36744 48.697 6.56369C48.2286 6.92094 47.5034 8.02044 47.5011 8.37656C47.5004 8.50869 45.3571 9.44719 40.4018 11.4857L33.3036 14.4056L30.9093 14.3834C28.2976 14.3592 27.7315 14.4462 27.1129 14.9668C26.3614 15.5992 26.2559 16.0429 26.2528 18.5841L26.25 20.8556L24.5835 20.8966C22.9803 20.9359 22.8996 20.9507 22.4584 21.2877C21.6023 21.9414 21.5698 22.0842 21.5 25.4999L21.4375 28.5624L12 28.6249C3.54564 28.6809 2.52339 28.7089 2.18726 28.8934C1.25139 29.4069 1.00001 30.0519 1.00001 31.9391C1.00001 33.3089 1.01639 33.4027 1.30689 33.6931C1.69789 34.0842 2.17714 34.0842 2.56814 33.6931C2.85651 33.4048 2.87501 33.3041 2.87501 32.0189C2.87501 30.8874 2.90914 30.6386 3.07276 30.5758C3.18151 30.5341 7.41064 30.4999 12.4708 30.4999C21.5561 30.4999 21.6779 30.4967 22.2123 30.2379C22.5731 30.0632 22.8571 29.7992 23.0643 29.4457C23.371 28.9224 23.375 28.8779 23.375 26.0304C23.375 24.4437 23.4091 23.0564 23.4509 22.9477C23.5189 22.7706 24.2626 22.7499 30.5685 22.7499C35.5325 22.7499 37.6353 22.7903 37.6948 22.8867C37.7413 22.9619 38.4478 24.3786 39.2646 26.0348L40.75 29.0462L40.7481 34.8668C40.747 38.0682 40.7014 40.7579 40.6468 40.8441C40.5676 40.9687 36.7038 40.9943 21.7424 40.9691L2.93751 40.9374L2.90639 38.8124C2.88751 37.5222 2.81914 36.5793 2.73226 36.4122C2.44789 35.8651 1.56564 35.8282 1.17164 36.3471C0.933014 36.6611 0.933514 40.9774 1.17214 41.5352C1.38026 42.0217 1.93551 42.5611 2.41439 42.7419C2.65039 42.8312 5.54389 42.8749 11.1956 42.8749H19.625V43.9374V44.9999H13.9603C9.11326 44.9999 8.19739 45.0291 7.61651 45.2014C6.46126 45.5444 5.51801 46.1023 4.68514 46.9351C1.44839 50.1719 2.39164 55.5199 6.55139 57.5159C7.42276 57.9341 7.78826 58.0338 8.82601 58.1369C9.59851 58.2137 17.8721 58.2456 30.875 58.2221C54.2296 58.1797 52.1499 58.2673 53.875 57.2524C57.061 55.3781 58.1265 51.4001 56.2854 48.2541C55.792 47.4112 54.7914 46.4113 53.9408 45.9114C52.4361 45.0272 52.8496 45.0728 45.6875 45.0018L39.1875 44.9374V43.9374V42.9374L40.125 42.8731C41.5221 42.7771 42.2181 42.2969 42.5051 41.2309C42.5905 40.9139 42.6233 38.6231 42.5993 34.6534L42.5625 28.5624L41 25.3131C39.3739 21.9313 38.9228 21.2426 38.1721 20.9948C37.2429 20.6882 37.4473 20.5477 43.625 17.2466C46.8219 15.5383 49.4731 14.1793 49.5168 14.2266C49.7241 14.4512 57.2536 29.0379 57.1934 29.0982C57.1554 29.1362 55.1416 30.0253 52.7184 31.0739C49.9016 32.2928 48.191 33.1018 47.9756 33.3167C47.3626 33.9284 47.37 34.8543 47.9929 35.4691C48.311 35.7832 55.9446 39.3216 57.3595 39.8108C58.3241 40.1443 59.381 40.0598 60.672 39.5459C63.1769 38.5488 63.9968 37.9441 64.6065 36.6434C64.8798 36.0607 64.9369 35.7629 64.9338 34.9374C64.93 33.9437 64.9213 33.9171 63.5179 30.6496C62.7413 28.8413 61.2398 25.2979 60.1813 22.7754C59.1228 20.2529 58.1601 18.1183 58.042 18.0319C57.4709 17.6143 56.625 18.0458 56.625 18.7548C56.625 18.9638 57.4191 21.0311 58.3896 23.3486C59.3601 25.6662 60.1785 27.6241 60.2081 27.6996C60.2378 27.7749 59.9818 27.9531 59.6393 28.0954L59.0165 28.3542L54.1865 19.0833C51.53 13.9843 49.3264 9.63706 49.2895 9.42269C49.201 8.90694 49.5599 8.16506 50.0106 7.93194C50.2043 7.83181 50.5913 7.74994 50.8706 7.74994C51.7733 7.74994 52.0566 8.16381 53.4388 11.4999C55.2324 15.8296 55.3059 15.9798 55.7028 16.1307C56.5206 16.4417 57.1514 15.7008 56.8289 14.8082C56.3081 13.3672 53.8196 7.62231 53.543 7.22256C53.3661 6.96681 52.9406 6.57744 52.5975 6.35731C52.0615 6.01331 51.8394 5.95106 51.0181 5.91394C50.4213 5.88706 49.894 5.93394 49.6138 6.03881ZM48.1491 11.5424L48.6031 12.4598L43.0841 15.4099L37.5653 18.3599L37.3393 17.7848C37.0725 17.1056 36.7503 16.6148 36.1366 15.9531C35.8896 15.6867 35.7438 15.4444 35.8125 15.4147C37.8684 14.5262 47.368 10.6429 47.5039 10.6354C47.6218 10.6289 47.8695 10.9772 48.1491 11.5424ZM33.7591 16.5201C35.0223 17.0818 35.7454 18.2319 35.8456 19.8388L35.9103 20.8749H32.0176H28.125V18.6937C28.125 16.7504 28.1489 16.4978 28.3438 16.3787C28.7056 16.1576 33.2083 16.2751 33.7591 16.5201ZM25.9733 23.9613C25.7866 23.9912 25.4914 24.1852 25.317 24.3924L25 24.7691V27.4146V30.0599L26.98 32.0299L28.96 33.9999H33.6605H38.361L38.7118 33.6983L39.0625 33.3966V31.2296V29.0624L37.875 26.7017C37.1201 25.2011 36.5758 24.2676 36.3808 24.1392C36.1126 23.9629 35.4584 23.9356 31.1933 23.9222C28.5089 23.9139 26.1599 23.9314 25.9733 23.9613ZM36.3218 27.8111L37.25 29.7473V30.9361V32.1249H33.4708H29.6914L28.2833 30.7207L26.875 29.3166V27.5957V25.8749H31.1343H35.3934L36.3218 27.8111ZM62.0938 32.0576C63.2119 34.6906 63.2903 35.0796 62.8754 35.9367C62.5515 36.6057 62.204 36.8506 60.567 37.5634C58.5993 38.4202 58.7115 38.4423 53.8469 36.2394C51.6658 35.2517 49.922 34.4037 49.9719 34.3548C50.1178 34.2118 60.6686 29.6471 60.875 29.6377C61.0025 29.6319 61.3925 30.4063 62.0938 32.0576ZM7.91164 32.5312C7.77026 32.6859 7.13889 33.8879 6.50839 35.2024C5.28839 37.7459 5.22301 38.0417 5.79214 38.4403C6.16714 38.7031 6.56314 38.6691 6.91726 38.3437C7.23651 38.0504 9.50051 33.4634 9.50026 33.1106C9.50014 32.9996 9.38339 32.7604 9.24089 32.5793C8.90501 32.1523 8.27851 32.1296 7.91164 32.5312ZM12.4628 32.3883C12.165 32.5616 9.87501 37.3152 9.87501 37.7601C9.87501 38.3952 10.7784 38.8489 11.2856 38.4687C11.603 38.2308 13.875 33.5396 13.875 33.1222C13.875 32.4488 13.0741 32.0326 12.4628 32.3883ZM16.7824 32.5312C16.4661 32.8717 14.2508 37.4702 14.2503 37.7868C14.2499 38.1112 14.8124 38.6249 15.168 38.6249C15.3354 38.6249 15.5916 38.5264 15.7374 38.4062C16.0385 38.1577 18.375 33.4548 18.375 33.0972C18.375 32.7393 17.8133 32.2499 17.4025 32.2499C17.191 32.2499 16.9363 32.3654 16.7824 32.5312ZM25.6875 35.3951C25.0816 35.7566 24.9705 36.2698 25.3841 36.7956C25.6381 37.1186 25.6723 37.1249 27.1341 37.1249C28.4584 37.1249 28.653 37.0969 28.875 36.8749C29.2118 36.5382 29.2053 35.8613 28.8623 35.5506C28.6444 35.3532 28.3719 35.3068 27.2685 35.2792C26.4036 35.2576 25.85 35.2982 25.6875 35.3951ZM37.25 43.9384V45.0018L29.4063 44.9697L21.5625 44.9374L21.5251 44.0748C21.5045 43.6004 21.5169 43.1363 21.5524 43.0436C21.6058 42.9046 22.9893 42.8749 29.4336 42.8749H37.25V43.9384ZM52.5219 47.2699C56.1599 48.9754 56.1929 54.1631 52.5763 55.8344L51.8125 56.1874L30.1291 56.2197C6.19414 56.2554 7.95201 56.3116 6.68264 55.4707C5.92689 54.9701 5.07189 53.8112 4.82051 52.9467C4.11701 50.5266 5.44801 47.9181 7.80289 47.1019C8.40039 46.8949 9.70789 46.8837 30.125 46.9097L51.8125 46.9374L52.5219 47.2699ZM9.31251 48.1678C8.14014 48.5549 7.44014 49.1611 6.99076 50.1783C5.93614 52.5659 7.97926 55.3843 10.5445 55.0804C11.8085 54.9308 12.7906 54.2441 13.41 53.0769C13.8023 52.3379 13.7988 50.7806 13.4033 50.0346C12.5993 48.5183 10.7739 47.6854 9.31251 48.1678ZM48.8416 48.1292C47.0906 48.5669 45.8933 50.4688 46.2591 52.2313C46.843 55.0437 50.2439 56.0522 52.2329 54.0027C52.8183 53.3994 53.25 52.3637 53.25 51.5624C53.25 50.2974 52.3321 48.8683 51.1971 48.3663C50.5486 48.0794 49.4736 47.9712 48.8416 48.1292ZM14.6083 49.1888C14.1896 49.4163 14.0826 49.8458 14.2645 50.5682C14.3551 50.9281 14.374 51.4474 14.3155 51.9756C14.1581 53.3991 14.1805 53.6413 14.4928 53.8942C14.7663 54.1157 15.387 54.1249 29.957 54.1249H45.1364L45.4566 53.8047C45.7556 53.5057 45.7701 53.4373 45.6745 52.7734C45.5469 51.8873 45.5476 51.3963 45.6778 50.4156C45.7745 49.6866 45.7623 49.6258 45.4583 49.3218L45.1364 48.9999L30.0369 49.0049C17.1806 49.0092 14.8886 49.0366 14.6083 49.1888ZM10.9923 50.1033C11.4833 50.3667 11.875 51.0142 11.875 51.5624C11.875 52.4232 11.0484 53.2506 10.1895 53.2494C9.72676 53.2489 9.08664 52.8734 8.79851 52.4336C8.50126 51.9799 8.51814 51.0794 8.83176 50.6514C9.12614 50.2499 9.81126 49.8754 10.252 49.8752C10.4249 49.8751 10.758 49.9777 10.9923 50.1033ZM50.35 50.0506C51.6176 50.7101 51.6974 52.3752 50.4923 53.0216C49.6304 53.4838 48.6613 53.1406 48.2059 52.2116C47.5618 50.8977 49.0654 49.3822 50.35 50.0506ZM43.6875 51.5624V52.2499H29.9688H16.25V51.5624V50.8749H29.9688H43.6875V51.5624Z" fill="#323C8D"/>
</svg>
