<svg width="64" height="64" viewBox="0 0 64 64" fill="none" xmlns="http://www.w3.org/2000/svg">
<path fill-rule="evenodd" clip-rule="evenodd" d="M22.8749 0.0764233C16.4518 0.859923 11.5954 3.14442 7.36978 7.36992C3.56953 11.1702 1.23228 15.7328 0.291406 21.1875C-0.00859375 22.9267 -0.00859375 27.0734 0.291406 28.8125C1.23228 34.2673 3.56953 38.8299 7.36978 42.6302C11.17 46.4304 15.7327 48.7677 21.1874 49.7085C22.9277 50.0087 27.0739 50.0086 28.8124 49.7082C32.2495 49.1144 35.4423 47.9417 37.9743 46.3425L38.7719 45.8387L47.4172 54.4694C56.7354 63.7719 56.5245 63.5872 58.1713 63.8905C61.4862 64.5014 64.5013 61.4863 63.8904 58.1714C63.587 56.5247 63.7718 56.7355 54.4693 47.4173L45.8385 38.772L46.3424 37.9744C47.9415 35.4424 49.1143 32.2497 49.708 28.8125C50.0084 27.074 50.0085 22.9278 49.7084 21.1875C48.7675 15.7328 46.4303 11.1702 42.63 7.36992C38.8448 3.58467 34.2044 1.20242 28.8749 0.308298C27.7375 0.117423 23.7892 -0.0352017 22.8749 0.0764233ZM28.2584 2.75555C37.2835 4.1143 44.6203 10.7662 46.7954 19.5625C47.2204 21.2813 47.3684 22.3592 47.453 24.3548C47.7269 30.8028 44.8718 37.4204 39.9374 41.7748C34.2843 46.7633 26.8452 48.5964 19.5624 46.7956C15.5812 45.8111 12.0683 43.8184 9.12491 40.875C5.66491 37.4151 3.52253 33.1607 2.73591 28.1875C2.53203 26.8983 2.53203 23.1018 2.73591 21.8125C3.52253 16.8394 5.66491 12.585 9.12491 9.12505C12.9694 5.28055 17.5783 3.15255 23.3124 2.57442C24.137 2.4913 27.2633 2.6058 28.2584 2.75555ZM22.9189 5.12817C18.4079 5.6033 14.1224 7.65555 10.8889 10.889C5.50353 16.2744 3.64966 24.1798 6.08478 31.375C7.08616 34.334 8.68266 36.9048 10.8889 39.111C16.2743 44.4964 24.1797 46.3503 31.3749 43.9152C34.3339 42.9138 36.9047 41.3173 39.1109 39.111C44.4963 33.7257 46.3502 25.8203 43.915 18.625C41.9079 12.6943 37.306 8.09242 31.3749 6.0848C28.625 5.15405 25.7552 4.8293 22.9189 5.12817ZM27.2987 7.68605C31.1655 8.20067 34.5102 9.8658 37.3243 12.677C44.2034 19.5494 44.2034 30.4453 37.3243 37.3244C30.4449 44.2038 19.5549 44.2038 12.6755 37.3244C5.79641 30.4453 5.79641 19.5494 12.6755 12.677C16.6094 8.74705 21.8445 6.9603 27.2987 7.68605ZM46.1785 42.6162L47.9163 44.3572L47.0518 45.2794C46.5764 45.7865 45.776 46.5883 45.2732 47.0611L44.3589 47.9204L42.6015 46.163L40.8442 44.4058L42.5783 42.6508C43.532 41.6855 44.3413 40.8912 44.3765 40.8854C44.4119 40.8798 45.2228 41.6585 46.1785 42.6162ZM61.0965 57.6769C61.3845 58.0903 61.4374 58.2952 61.4374 58.9986C61.4374 59.6799 61.3808 59.9145 61.1249 60.2924C60.465 61.2672 59.3777 61.6769 58.2487 61.3764C57.742 61.2415 57.1258 60.667 51.9182 55.4735L46.1488 49.7201L47.9182 47.9367L49.6874 46.1534L55.2215 51.6704C58.2653 54.7049 60.909 57.4078 61.0965 57.6769Z" fill="#323C8D"/>
<path fill-rule="evenodd" clip-rule="evenodd" d="M31.8541 13.0402C31.5969 13.1259 31.4002 13.2875 31.2968 13.4978C31.2215 13.6511 31.1982 13.7577 31.1711 14.0701C31.1382 14.4499 31.1571 15.5525 31.1984 15.6717C31.2102 15.7057 31.1537 15.6425 31.0727 15.5314C30.8572 15.2356 30.0166 14.3908 29.8469 14.2995C29.7281 14.2357 29.6495 14.2208 29.4251 14.2201C29.0807 14.219 28.9135 14.2952 28.6807 14.5594C28.4979 14.767 28.4194 14.9795 28.4194 15.2669C28.4194 15.6007 28.5091 15.7646 28.9766 16.285C29.7174 17.1097 29.9419 17.2599 30.3798 17.2234C30.9158 17.1788 31.2679 16.8063 31.2999 16.2503L31.3148 15.9929L31.4133 16.1094C31.5638 16.2873 31.8011 16.3976 32.0731 16.4161C32.3963 16.4381 32.5977 16.3638 32.8174 16.1413L32.9876 15.9691L33.0015 16.2216C33.0255 16.6614 33.1998 16.9507 33.5454 17.1244C33.6931 17.1987 33.7687 17.2142 33.9851 17.2144L34.2464 17.2147L34.0786 17.374C33.9763 17.471 33.881 17.6025 33.8345 17.7106C33.6659 18.1029 33.776 18.6713 34.0698 18.9249L34.1947 19.0327H33.9746C33.7911 19.0327 33.7185 19.0512 33.5364 19.1443C33.1774 19.3277 32.9938 19.6523 32.9938 20.1033V20.3033L32.8652 20.1657C32.7107 20.0005 32.4621 19.8637 32.2659 19.8358L32.1224 19.8153L32.3073 19.6711C32.8039 19.2837 33.1236 18.6718 33.1236 18.1087C33.1236 17.8862 33.1093 17.8186 33.0253 17.6441C32.8656 17.3124 32.5766 17.1287 32.1753 17.1039C31.9539 17.0901 31.9045 17.0985 31.7535 17.1752C31.5292 17.2892 31.3266 17.5079 31.1988 17.7739C31.0554 18.0723 31.1415 18.0517 29.5213 18.1744C28.8356 18.2264 28.5098 18.3047 28.0931 18.5177L27.7443 18.696L27.4204 18.3739C26.8995 17.856 26.5558 17.7109 25.9289 17.7445C25.4033 17.7727 25.1577 17.9061 24.5834 18.475L24.2355 18.8197L24.0808 18.7671C23.9957 18.7381 23.8238 18.69 23.6989 18.6601C21.6349 18.1665 19.636 18.4716 17.884 19.5478C16.2604 20.5451 15.0015 22.1761 14.4053 24.0546C14.1102 24.9844 13.9998 25.7123 14 26.7254C14.0002 27.7311 14.1073 28.4547 14.3862 29.3346C15.1098 31.6176 16.7472 33.464 18.8654 34.3856C20.3222 35.0194 22.0173 35.1705 23.5529 34.8033C24.3419 34.6146 25.4018 34.1385 26.0835 33.6665C27.8923 32.414 29.1247 30.4914 29.5185 28.3077C29.6297 27.6911 29.6623 27.1992 29.6423 26.4407C29.6196 25.5846 29.5591 25.1386 29.3713 24.4415L29.2865 24.127L29.5301 23.8691C30.061 23.3073 30.2376 22.9987 30.3003 22.523C30.3666 22.0204 30.2741 21.5713 30.0288 21.2056C29.9519 21.091 29.7548 20.8473 29.5908 20.664C29.3185 20.3597 29.2991 20.3293 29.367 20.3133C29.4079 20.3036 29.7479 20.2725 30.1226 20.2441C30.7728 20.1948 31.1224 20.1563 31.3717 20.1065L31.4852 20.0839L31.3997 20.1811C31.3527 20.2346 31.2893 20.3295 31.2589 20.392C31.132 20.6527 31.1106 22.275 31.2294 22.6327C31.263 22.734 31.3401 22.8565 31.4272 22.9468C31.8481 23.3836 32.4566 23.3819 32.8568 22.9429C33.1242 22.6494 33.1398 22.5728 33.1398 21.5577V20.6823L33.7003 21.275C34.3779 21.9916 34.4784 22.0595 34.8593 22.0586C35.3885 22.0573 35.7565 21.7434 35.8473 21.2157C35.8901 20.9672 35.8654 20.7695 35.7655 20.562C35.6343 20.2896 34.8659 19.4624 34.4998 19.1996C34.3751 19.1101 34.3745 19.1087 34.47 19.1294C34.6697 19.1727 35.7726 19.1913 36.0653 19.1563C36.4093 19.1153 36.5664 19.0437 36.7337 18.8515C36.9411 18.6132 36.9993 18.4615 37 18.1574C37.0004 17.9303 36.9864 17.8581 36.9103 17.6975C36.7437 17.3453 36.4642 17.1516 36.0363 17.0919C35.7616 17.0535 34.6707 17.0707 34.5187 17.1157C34.4546 17.1347 34.4649 17.1185 34.5673 17.0389C34.6387 16.9834 34.9183 16.7036 35.1886 16.4171C35.7863 15.7835 35.8583 15.6592 35.8585 15.2615C35.8586 14.7408 35.6017 14.3752 35.1495 14.253C34.6064 14.1062 34.3444 14.2518 33.5571 15.1378C33.3276 15.396 33.1377 15.6054 33.1351 15.603C33.1325 15.6007 33.1433 15.3956 33.1591 15.1474C33.1993 14.5155 33.151 13.849 33.0482 13.616C32.9414 13.3738 32.7934 13.2101 32.5863 13.1049C32.3691 12.9947 32.0703 12.9683 31.8541 13.0402ZM27.15 21.0656C27.7411 21.693 28.2247 22.2209 28.2247 22.2387C28.2247 22.2565 28.1985 22.2956 28.1666 22.3257C28.1038 22.3846 28.1635 22.4437 26.3935 20.5744C25.9143 20.0683 25.9094 20.0616 25.9687 19.9936C26.0017 19.9558 26.0391 19.9248 26.0519 19.9248C26.0647 19.9248 26.5588 20.4382 27.15 21.0656ZM22.1579 20.5671C22.7674 20.6083 23.0332 20.6544 23.5304 20.8049L23.8809 20.911L25.5702 22.7021C26.4994 23.6872 27.2725 24.5172 27.2883 24.5465C27.3499 24.6608 27.5448 25.5315 27.5915 25.9015C27.8904 28.2671 26.8887 30.57 24.9883 31.8863C23.4989 32.9179 21.6232 33.1638 19.9356 32.5489C17.994 31.8414 16.5915 30.1472 16.1181 27.9374C16.0491 27.6151 16.0425 27.5052 16.0434 26.6918C16.0443 25.834 16.0478 25.7842 16.1352 25.3995C16.5132 23.7351 17.3485 22.453 18.6378 21.5579C19.381 21.0421 19.9491 20.8082 20.9272 20.6157C21.4028 20.5222 21.4593 20.5199 22.1579 20.5671Z" fill="#323C8D"/>
</svg>
