<svg width="64" height="64" viewBox="0 0 64 64" fill="none" xmlns="http://www.w3.org/2000/svg">
<path fill-rule="evenodd" clip-rule="evenodd" d="M12.9375 0.273305C12.4563 0.41268 12.0421 0.545805 12.0171 0.56918C11.9601 0.62243 14.003 8.67768 14.1225 8.87105C14.1865 8.97456 14.4434 8.9558 15.0739 8.80168C15.5489 8.68568 15.9852 8.5478 16.0436 8.49543C16.1229 8.42443 14.5155 1.75268 14.0496 0.218805C13.9708 -0.0408203 14.033 -0.0439454 12.9375 0.273305ZM44.4038 0.44393C43.9622 0.75318 43.8913 0.99018 43.5625 3.25005C43.3914 4.42643 43.1929 5.4983 43.1213 5.63205C42.8988 6.04768 42.4263 6.28118 41.9979 6.18705C41.6809 6.11743 41.3503 5.75505 40.1745 4.1888C38.6565 2.16643 38.3213 1.88405 37.7125 2.11555C37.5291 2.1853 36.661 2.78455 35.7834 3.4473L34.1875 4.65243L33.0527 4.58093C29.7517 4.3733 26.1488 5.14393 23.0316 6.72468C21.0513 7.72881 19.5306 8.83605 17.9375 10.4337C14.6285 13.7519 12.6859 17.7338 12.105 22.3884C11.9582 23.5642 11.936 23.6251 11.6532 23.6251C11.4896 23.6251 11.2021 23.7798 11.0144 23.9688C10.7259 24.2593 10.6165 24.5888 10.3089 26.0938C10.1085 27.0736 9.89887 27.8751 9.84275 27.8751C9.78675 27.8751 9.082 27.4129 8.27662 26.8479C6.17125 25.3711 6.34062 25.3374 3.99388 27.6987C2.41575 29.2864 2.125 29.6376 2.125 29.9553C2.125 30.2226 2.433 30.7811 3.1875 31.8824C3.77187 32.7353 4.25 33.4639 4.25 33.5014C4.25 33.5391 3.4485 33.7336 2.46875 33.9339C0.96375 34.2416 0.63425 34.3509 0.34375 34.6394L0 34.9808V37.4376V39.8943L0.34375 40.2359C0.633625 40.5241 0.961625 40.6337 2.4375 40.9352C3.4 41.1319 4.21187 41.3123 4.24175 41.3361C4.2715 41.3598 3.80062 42.1067 3.19537 42.9956C2.209 44.4439 2.10275 44.6549 2.1725 45.0264C2.2325 45.3461 2.65937 45.8494 4.03662 47.2242C6.35175 49.5353 6.17013 49.4987 8.24288 48.0712C9.09825 47.4821 9.83113 47.0001 9.8715 47.0001C9.91175 47.0001 10.1085 47.8016 10.3089 48.7813C10.6165 50.2863 10.7259 50.6158 11.0144 50.9063L11.3558 51.2501H13.8125H16.2693L16.6106 50.9063C16.8991 50.6158 17.0085 50.2863 17.3161 48.7813C17.5165 47.8017 17.7132 47.0001 17.7535 47.0001C17.7939 47.0001 18.5268 47.4821 19.3821 48.0712C21.3289 49.4119 21.3913 49.4127 22.6985 48.1142L23.5981 47.2204L23.6474 49.2041C23.6894 50.9001 23.7355 51.2733 23.9653 51.7792C24.316 52.5512 24.7836 53.1552 25.3092 53.5154L25.7327 53.8056L25.7726 57.2466L25.8125 60.6876L26.1626 61.4376C26.6176 62.4123 27.3462 63.1446 28.2979 63.5834C29.047 63.9289 29.1157 63.9371 31.6816 63.9793C34.5425 64.0266 35.4938 63.9157 36.3125 63.4397C37.0653 63.0021 37.7464 62.2676 38.1109 61.5001C38.4351 60.8176 38.4377 60.7874 38.4787 57.3126L38.5199 53.8126L39.0136 53.4674C39.2851 53.2776 39.6764 52.8557 39.883 52.5299C40.5351 51.5018 40.625 50.9689 40.625 48.1287C40.625 43.9827 40.9949 43.1203 43.5477 41.3144C45.229 40.1252 45.556 39.8263 45.4238 39.6001C45.3626 39.4954 45.0565 39.1271 44.7436 38.7816L44.1748 38.1534L43.7436 38.5148C43.5065 38.7136 42.7884 39.2516 42.1479 39.7103C40.33 41.0123 39.4196 42.1633 38.8539 43.8751C38.6185 44.5869 38.5761 45.0759 38.5114 47.8227L38.4375 50.9578L38.0872 51.4166C37.4285 52.2796 37.5581 52.2623 32.0295 52.2229L27.0625 52.1876L26.6544 51.8964C25.8591 51.3292 25.8201 51.1476 25.7394 47.6251C25.6574 44.0469 25.5655 43.5919 24.6354 42.1597C24.0249 41.2196 23.4495 40.6663 22 39.6261C20.4449 38.5098 19.6529 37.8192 18.6055 36.6662C16.4111 34.2503 14.9035 31.1551 14.232 27.6876C13.9731 26.3509 14.0121 22.5856 14.2986 21.2501C15.4525 15.8723 18.6186 11.5068 23.2049 8.96993C25.5983 7.64618 28.0594 6.91806 30.9062 6.69168C31.8325 6.61805 31.875 6.62618 31.875 6.87805C31.875 7.25505 32.0045 7.46218 33.4516 9.3998C34.7938 11.1968 34.9754 11.6336 34.5897 12.1359C34.203 12.6397 33.9823 12.6519 31.5585 12.3037C29.0091 11.9374 28.6684 11.9687 28.3829 12.5952C28.1584 13.0881 27.3146 19.2536 27.4167 19.6547C27.5604 20.2183 27.979 20.3758 30.1865 20.6966C31.3278 20.8624 32.4009 21.0332 32.5711 21.0759C33.207 21.2354 33.4683 22.1642 33.0285 22.7014C32.9096 22.8466 32.0186 23.5594 31.0483 24.2857C29.2746 25.6132 29.125 25.7712 29.125 26.3184C29.125 26.6554 33.0763 32.0233 33.4855 32.2423C34.0255 32.5313 34.347 32.3842 36.2109 30.9948C37.2293 30.2358 38.1866 29.5834 38.3384 29.5452C38.7521 29.4409 39.2895 29.6667 39.4949 30.0311C39.6574 30.3192 39.6459 30.5847 39.3899 32.4586C39.2317 33.6158 39.1216 34.7819 39.145 35.0502C39.2166 35.8723 39.4486 35.9617 42.7603 36.4427C46.2345 36.9473 46.7795 36.9706 47.1219 36.6282C47.4269 36.3232 47.434 36.2924 47.8071 33.6876C48.0863 31.7393 48.1386 31.5392 48.4378 31.2813C48.7628 31.0012 49.1679 30.9284 49.5617 31.0796C49.6757 31.1233 50.3617 31.9531 51.0861 32.9233C51.8106 33.8937 52.5158 34.7861 52.653 34.9063C53.2355 35.4167 53.5596 35.2612 56.4997 33.0599C59.2779 30.9801 59.5974 30.6551 59.4482 30.0611C59.4123 29.9173 58.7695 28.9838 58.0199 27.9864C57.2704 26.9892 56.6204 26.0573 56.5754 25.9157C56.4608 25.5543 56.6805 25.0514 57.0624 24.8012C57.3692 24.6001 57.5072 24.6061 59.7509 24.9183C62.1704 25.2549 62.5168 25.2443 62.8667 24.8226C63.0135 24.6457 63.9889 18.5764 63.9971 17.7883C63.9987 17.6374 63.8735 17.3677 63.7188 17.1889C63.4591 16.8888 63.2511 16.8364 61.0184 16.5083C59.5275 16.2893 58.5317 16.0853 58.4231 15.9768C58.1334 15.6869 58.0074 15.0648 58.1712 14.7328C58.2515 14.5704 59.0754 13.8636 60.0023 13.1619C61.8802 11.7404 62.25 11.3742 62.25 10.9353C62.25 10.7427 61.5705 9.72305 60.3594 8.09855C57.9755 4.9008 57.9515 4.87505 57.3595 4.87505C56.9581 4.87505 56.6254 5.07293 55.0391 6.2553C54.0207 7.0143 53.0651 7.66631 52.9155 7.70393C52.4864 7.81206 51.954 7.48555 51.8036 7.02205C51.6992 6.70005 51.7327 6.17868 51.9564 4.64855C52.3169 2.1818 52.3177 1.96768 51.9688 1.56205C51.7023 1.25218 51.5105 1.20943 48.3125 0.746305C46.4562 0.47743 44.8797 0.255805 44.8091 0.253805C44.7384 0.25168 44.556 0.337305 44.4038 0.44393ZM49.9683 3.17668C49.9958 3.20418 49.9243 3.8648 49.8094 4.64468C49.5117 6.6648 49.5331 7.32705 49.9207 8.09193C50.693 9.61605 52.5929 10.2783 54.0609 9.53518C54.268 9.4303 55.0443 8.89405 55.7858 8.34343C56.5273 7.7928 57.151 7.36368 57.172 7.38993C57.6763 8.02055 59.5233 10.5438 59.5631 10.6566C59.5941 10.7443 59.0955 11.1953 58.423 11.6876C56.4516 13.1308 55.9699 13.8187 55.9691 15.1922C55.9685 16.4639 56.7076 17.5928 57.8549 18.0722C58.1021 18.1756 59.0621 18.3714 59.988 18.5074C60.9139 18.6436 61.6871 18.7706 61.7064 18.7898C61.7255 18.8089 61.6037 19.7219 61.4357 20.8186C61.2677 21.9153 61.1291 22.8453 61.1276 22.8854C61.1263 22.9256 60.4077 22.8514 59.5312 22.7207C58.6548 22.5899 57.6494 22.5101 57.2972 22.5433C55.4123 22.7211 54.1192 24.4784 54.5052 26.3378C54.6182 26.8821 54.86 27.3001 55.7601 28.5068C56.3732 29.3289 56.875 30.0224 56.875 30.0481C56.875 30.0736 56.1211 30.6604 55.1997 31.3522L53.5246 32.6099L52.4185 31.1522C50.9902 29.2697 50.4953 28.9363 49.1348 28.9404C48.0005 28.9439 47.3874 29.2163 46.6964 30.0237C46.1641 30.6453 45.9531 31.3213 45.7401 33.0863C45.6556 33.7869 45.5456 34.4262 45.4958 34.5069C45.4276 34.6172 44.9051 34.5832 43.39 34.3694C41.0684 34.0421 41.2714 34.2637 41.5625 32.3751C41.8436 30.5513 41.8111 29.8956 41.4009 29.1103C40.7799 27.9217 39.6043 27.2792 38.2954 27.4133C37.4753 27.4973 37.1149 27.6891 35.5201 28.8897L34.2155 29.8718L32.9827 28.2271C32.3047 27.3224 31.75 26.5432 31.75 26.4953C31.75 26.4476 32.3672 25.9419 33.1217 25.3719C33.8761 24.8018 34.6369 24.1286 34.8121 23.8756C35.867 22.3533 35.4104 20.2423 33.8251 19.3133C33.4124 19.0714 32.8561 18.9328 31.4855 18.7301C30.4966 18.5837 29.6704 18.4503 29.6495 18.4337C29.5879 18.3843 30.1553 14.4458 30.2379 14.3496C30.2794 14.3012 31.0726 14.3736 32.0005 14.5104C34.2499 14.8422 35.0411 14.6897 35.9893 13.7417C36.5661 13.1647 36.7806 12.6643 36.8466 11.7411C36.9228 10.6778 36.702 10.1697 35.4394 8.50255C34.9132 7.8078 34.5006 7.18893 34.5226 7.12731C34.561 7.01943 37.6915 4.62505 37.7941 4.62505C37.8218 4.62505 38.33 5.27155 38.9234 6.06155C39.5169 6.85168 40.2129 7.63493 40.47 7.8023C41.7979 8.66618 43.3643 8.47556 44.5266 7.30868C45.0896 6.74331 45.2962 6.13468 45.5648 4.25005C45.6774 3.45943 45.7881 2.75105 45.8109 2.6758C45.8395 2.58118 46.4775 2.62943 47.8853 2.8328C49.0034 2.99443 49.9408 3.14918 49.9683 3.17668ZM3.42875 6.69331C3.10763 7.1433 2.86575 7.5278 2.89112 7.54768C3.33775 7.89605 10.0819 12.6643 10.1827 12.7031C10.3091 12.7516 11.5743 11.1507 11.4771 11.0652C11.1868 10.8096 4.185 5.87505 4.11263 5.87505C4.05763 5.87505 3.74988 6.24331 3.42875 6.69331ZM43.9206 10.3117C41.3364 10.8737 39.2098 12.5449 38.0755 14.9051C37.4137 16.2819 37.211 17.1729 37.2147 18.6876C37.2202 20.9628 38.0444 22.9223 39.6927 24.5799C40.5356 25.4277 40.901 25.6914 41.8834 26.1616C43.4311 26.9024 44.1481 27.0642 45.8125 27.0483C46.9304 27.0376 47.3745 26.9743 48.1875 26.7096C50.5099 25.9533 52.254 24.4227 53.3255 22.2003C54.9076 18.9186 54.0779 14.7899 51.3371 12.3074C50.3981 11.4568 48.6586 10.5668 47.4375 10.3119C46.368 10.0888 44.946 10.0887 43.9206 10.3117ZM23.4036 12.6864C20.4193 14.8579 18.3121 18.1367 17.5786 21.7501C16.4164 27.4753 18.7664 33.3924 23.5625 36.8169C24.1125 37.2097 25.4075 37.9396 26.4403 38.4389C28.1613 39.2711 28.3874 39.4203 29.1484 40.2269C30.104 41.2399 30.7039 42.3764 30.8946 43.5354C31.1402 45.0271 30.9964 44.8751 32.1635 44.8751H33.1971L33.1109 44.0313C32.9932 42.8808 32.89 42.4487 32.5046 41.4959C32.065 40.4089 31.3996 39.4287 30.52 38.5718C29.5621 37.6387 29.1066 37.3419 27.3874 36.5311C25.5169 35.6488 24.4891 34.9764 23.3355 33.8807C21.222 31.8731 19.837 29.0758 19.4935 26.1212C18.9823 21.7236 20.9132 17.1924 24.4062 14.5934C24.8704 14.2482 25.25 13.9204 25.25 13.8651C25.25 13.7737 24.2537 12.1251 24.1985 12.1251C24.1856 12.1251 23.8279 12.3777 23.4036 12.6864ZM47.1621 12.4362C49.4235 13.0252 51.2272 14.8131 51.8296 17.0626C52.3827 19.1281 51.708 21.5021 50.1149 23.0952C47.6156 25.5944 43.6995 25.5792 41.1806 23.0603C38.6678 20.5474 38.6866 16.6194 41.2236 14.1372C42.8768 12.5196 45.0703 11.8913 47.1621 12.4362ZM5.29038 17.2928C3.07825 17.8537 1.23375 18.3478 1.19138 18.3908C1.10637 18.4772 1.48213 20.1288 1.62275 20.2869C1.68925 20.3617 9.14625 18.5993 9.95662 18.3174C10.1454 18.2517 9.65413 16.2452 9.45325 16.2616C9.37587 16.2679 7.5025 16.7321 5.29038 17.2928ZM12.7972 30.3666C12.9087 30.7399 13 31.0577 13 31.0728C13 31.0878 12.7048 31.1688 12.3438 31.2528C9.78788 31.8477 7.73187 34.1856 7.43175 36.8383C7.17925 39.0697 8.43563 41.6362 10.3475 42.7948C13.3796 44.6322 17.1159 43.8471 19.063 40.9633L19.4676 40.3639L19.8276 40.6572C20.0255 40.8186 20.561 41.2132 21.0176 41.5343C22.0056 42.2293 22.7505 43.0439 23.1234 43.8371L23.3954 44.4156L22.2647 45.5461L21.1341 46.6767L19.8727 45.8233C19.1789 45.3539 18.3983 44.9159 18.138 44.8498C17.2594 44.6268 16.2731 45.1063 15.8276 45.9728C15.7316 46.1597 15.5229 46.9454 15.3639 47.7188L15.0746 49.1251H13.8045H12.5343L12.3239 48.0659C11.8713 45.7867 11.4993 45.1778 10.3748 44.8749C9.64838 44.6794 9.15837 44.8569 7.72788 45.8338L6.49225 46.6778L5.53225 45.7178L4.57225 44.7578L5.42212 43.5134C5.88963 42.8291 6.32113 42.0538 6.38112 41.7908C6.62075 40.7404 5.94438 39.6417 4.85988 39.3197C4.52075 39.2189 3.76662 39.0418 3.18412 38.9262L2.125 38.7158V37.4379V36.1601L3.53025 35.8802C4.30325 35.7262 5.084 35.5234 5.26538 35.4296C6.06913 35.0139 6.58 33.9554 6.38625 33.1069C6.32912 32.8564 5.90938 32.1053 5.45363 31.4378C4.99788 30.7704 4.625 30.1866 4.625 30.1403C4.625 30.0941 5.04438 29.6398 5.55688 29.1307L6.48863 28.2051L7.80475 29.0966C9.22313 30.0573 9.68925 30.2188 10.4489 30.0129C11.2851 29.7863 11.8647 29.0862 12.0638 28.0626C12.1599 27.5684 12.1635 27.5751 12.3778 28.6251C12.4969 29.2094 12.6858 29.9931 12.7972 30.3666ZM14.2032 33.9063C14.9307 35.3422 15.7413 36.5128 17.1126 38.1083L17.7966 38.9041L17.5019 39.4598C17.0966 40.2237 16.1289 41.0584 15.2753 41.3804C14.6983 41.5981 14.3721 41.6392 13.5625 41.5961C11.8884 41.5068 10.7124 40.7058 9.97062 39.1496C9.6215 38.4169 9.599 38.2849 9.65162 37.2746C9.69175 36.5026 9.78775 36.0216 9.98287 35.6151C10.6164 34.2948 12.0745 33.2914 13.4041 33.2608C13.845 33.2507 13.8891 33.2863 14.2032 33.9063ZM52.375 40.6876V41.7501H56.0625H59.75V40.6876V39.6251H56.0625H52.375V40.6876ZM51.2524 45.9462C50.8841 46.4002 50.6386 46.8082 50.7007 46.8632C50.7622 46.9178 52.1865 48.1057 53.8657 49.5031L56.919 52.0436L57.5815 51.3031C57.9459 50.8958 58.2453 50.5218 58.247 50.4722C58.2493 50.4033 53.2383 46.1639 52.1133 45.2829C51.9451 45.1513 51.8179 45.2493 51.2524 45.9462ZM31.125 48.5626V50.1251H32.1875H33.25V48.5626V47.0001H32.1875H31.125V48.5626ZM46 51.7451V55.5001H47.0644H48.1287L48.0956 51.7813L48.0625 48.0626L47.0312 48.0263L46 47.9899V51.7451ZM36.375 55.4376V56.5001H32.125H27.875V55.5209C27.875 54.9823 27.9125 54.5042 27.9584 54.4584C28.0041 54.4126 29.9166 54.3751 32.2084 54.3751H36.375V55.4376ZM36.375 59.3981C36.375 60.3604 36.0516 61.0703 35.4176 61.5001C34.9659 61.8063 34.9029 61.8133 32.2596 61.8472C29.2255 61.8862 29.029 61.8428 28.342 60.9827C28.062 60.6322 27.9631 60.3548 27.9102 59.7724C27.7971 58.5237 27.4192 58.6251 32.1836 58.6251H36.375V59.3981Z" fill="#323C8D"/>
</svg>
