<svg width="100" height="100" viewBox="0 0 100 100" fill="none" xmlns="http://www.w3.org/2000/svg">
<path d="M50 0C77.539 0 100 22.461 100 50C100 63.7697 94.3846 76.27 85.3273 85.3273C76.27 94.3846 63.7697 100 50 100C36.2303 100 23.73 94.3846 14.6727 85.3273C5.61539 76.27 0 63.7697 0 50C0 22.461 22.461 0 50 0ZM50 0.659443C22.8242 0.659443 0.659447 22.8242 0.659447 50C0.659447 63.5878 6.20082 75.9231 15.1389 84.8611C24.0769 93.7992 36.4122 99.3405 50 99.3405C63.5878 99.3405 75.9231 93.7992 84.8611 84.8611C93.7992 75.9231 99.3405 63.5878 99.3405 50C99.3405 22.8242 77.1758 0.659443 50 0.659443Z" fill="white"/>
<path d="M3.8432 47.2277L3.75572 49.7307L5.17013 49.78L5.20732 48.721L5.87518 48.7443L5.83836 49.8034L8.1367 49.8838L8.0995 50.9475L5.80116 50.8673L5.78023 51.4666L5.11218 51.4434L5.13312 50.844L2.83496 50.7638L2.95945 47.1966L3.8432 47.2277ZM2.91758 46.1232L3.06562 45.0701L5.15087 45.3632L5.34901 43.9542C5.40097 43.5837 5.49555 43.2725 5.63387 43.0196C5.77238 42.7665 5.98453 42.5697 6.26939 42.4289C6.55425 42.2869 6.86435 42.2401 7.20212 42.2874C7.55539 42.3372 7.84605 42.4721 8.07502 42.6938C8.30418 42.9144 8.44418 43.1431 8.49484 43.382C8.5468 43.6196 8.54157 43.957 8.48007 44.3942L8.13409 46.8563L2.91758 46.1232ZM7.40641 45.6802L7.5509 44.6514C7.59688 44.3247 7.61333 44.0942 7.59987 43.9598C7.58529 43.8263 7.52847 43.7007 7.42978 43.5841C7.32978 43.4673 7.19819 43.3979 7.03445 43.3749C6.80117 43.3422 6.61594 43.399 6.47612 43.548C6.33631 43.6968 6.23762 43.985 6.17724 44.4149L6.02677 45.4863L7.40641 45.6802ZM3.61478 41.1627L3.76264 40.1098L8.97933 40.8429L8.83129 41.8958L3.61478 41.1627ZM4.41348 37.9476L5.43088 34.4001L10.4945 35.852L10.2014 36.8741L5.99481 35.6679L5.55798 37.1911L7.72025 37.8111C8.33932 37.9887 8.76587 38.1339 8.99914 38.2455C9.2326 38.3571 9.39466 38.5134 9.48569 38.7117C9.57635 38.9113 9.57317 39.1807 9.47522 39.5227C9.44102 39.6418 9.36774 39.8567 9.25391 40.1648L8.46288 39.9379L8.53166 39.7115C8.59316 39.4969 8.60624 39.345 8.56942 39.2552C8.53278 39.1644 8.40194 39.0874 8.17539 39.0224L7.30436 38.7765L4.41348 37.9476ZM6.10042 32.535L6.54977 31.5712L8.45839 32.4612L9.0597 31.1716C9.21784 30.8327 9.39915 30.5626 9.60532 30.3611C9.81186 30.1598 10.0722 30.0335 10.3859 29.9822C10.6999 29.9295 11.01 29.9755 11.319 30.1196C11.6425 30.2705 11.881 30.4845 12.0352 30.7634C12.1898 31.0413 12.2567 31.3011 12.2354 31.5443C12.2156 31.7868 12.1121 32.1079 11.9253 32.5081L10.8747 34.7612L6.10042 32.535ZM10.5225 33.4238L10.9616 32.4823C11.101 32.1832 11.1842 31.9675 11.2108 31.8352C11.2356 31.7032 11.218 31.5666 11.1579 31.426C11.0964 31.2851 10.9908 31.1806 10.8408 31.1105C10.6274 31.011 10.4337 31.0112 10.2565 31.1127C10.0792 31.2142 9.90065 31.4611 9.71709 31.8546L9.25989 32.835L10.5225 33.4238ZM8.21745 27.9953L8.66661 27.0316L13.4411 29.2577L12.9915 30.2215L8.21745 27.9953ZM14.0261 28.3013L9.76438 25.205L10.7001 23.9171L14.1691 25.2564L11.8169 22.3801L12.7549 21.0891L17.0166 24.1854L16.4362 24.9842L13.0812 22.5468L15.8211 25.8306L15.2192 26.6592L11.2517 25.0652L14.6065 27.5026L14.0261 28.3013ZM13.793 19.6644L14.4848 18.9479L17.0073 21.3838L15.9673 17.4128L16.7033 16.6505L20.4927 20.3098L19.8017 21.0253L17.3278 18.6363L18.3209 22.5588L17.5822 23.3237L13.793 19.6644ZM23.6832 17.4346L20.989 13.9862L19.7578 14.9482L19.2088 14.2456L22.5075 11.6684L23.0563 12.371L21.8281 13.3308L24.5223 16.7793L23.6832 17.4346ZM26.3203 15.4135L23.5288 10.9463L26.8405 8.87678L27.3132 9.63305L24.9032 11.1389L25.5219 12.1292L27.7642 10.7278L28.2343 11.48L25.9919 12.8811L26.7517 14.097L29.2468 12.5379L29.7173 13.2908L26.3203 15.4135ZM30.0384 13.0484L30.5652 9.80501L28.0504 8.16724L29.1855 7.66181L30.8398 8.77808L31.0958 6.81134L32.2218 6.31002L31.7656 9.3136L34.5125 11.0564L33.3405 11.5781L31.5328 10.3893L31.2037 12.5295L30.0384 13.0484ZM35.0176 10.8215L33.3895 5.81151L34.402 5.48253L35.0426 7.45377L37.0245 6.80984L36.3841 4.8386L37.3952 4.51L39.023 9.51996L38.0118 9.84856L37.3 7.65789L35.3181 8.30182L36.0299 10.4925L35.0176 10.8215ZM39.1518 4.01205L40.1326 3.83915L40.7416 7.29227L42.2343 3.46849L43.278 3.28456L44.1928 8.47229L43.2132 8.64499L42.616 5.25823L41.1139 9.0151L40.0666 9.19996L39.1518 4.01205ZM44.9263 3.11877L45.987 3.04456L46.1435 5.28104C46.3792 5.24122 46.5351 5.1687 46.6115 5.06515C46.6878 4.96141 46.7984 4.67953 46.9409 4.22065C47.1213 3.63634 47.3181 3.26718 47.5299 3.11354C47.7403 2.95858 48.0904 2.86531 48.5798 2.83111C48.6043 2.82942 48.6555 2.82475 48.7338 2.81689L48.7886 3.60102L48.6377 3.60793C48.4213 3.62307 48.2641 3.66102 48.1674 3.72177C48.0708 3.7827 47.9947 3.87056 47.9413 3.98495C47.8865 4.09916 47.8104 4.33075 47.7121 4.68197C47.6599 4.86758 47.6009 5.02421 47.5347 5.15169C47.4672 5.27823 47.342 5.40253 47.1586 5.52365C47.3996 5.5745 47.6046 5.69525 47.773 5.88759C47.9413 6.07993 48.1302 6.35562 48.3396 6.71226L49.1575 8.1035L47.9108 8.1906L47.1882 6.87638C47.177 6.8575 47.1549 6.82218 47.119 6.76928C47.1069 6.75059 47.0558 6.67171 46.9697 6.53133C46.8158 6.28273 46.6921 6.12908 46.6005 6.07039C46.5091 6.0117 46.3736 5.98796 46.1934 5.99805L46.3545 8.29939L45.2936 8.3736L44.9263 3.11877ZM54.5187 8.21004L53.3611 8.18986L52.9221 6.98498L50.8164 6.94835L50.3615 8.13751L49.2332 8.11789L51.3768 2.88661L52.5013 2.90625L54.5187 8.21004ZM52.5966 6.09245L51.9047 4.12495L51.1594 6.06721L52.5966 6.09245ZM56.4507 3.23578L60.0851 3.87653L59.1705 9.06425L58.1232 8.87976L58.8832 4.57018L57.3227 4.29485L56.932 6.51002C56.8202 7.14423 56.7202 7.58368 56.6337 7.82742C56.5471 8.07116 56.4086 8.24854 56.221 8.35994C56.032 8.47116 55.7636 8.49602 55.4131 8.43415C55.2912 8.41266 55.0697 8.36257 54.7514 8.28144L54.8944 7.47097L55.1268 7.51564C55.3468 7.55452 55.4991 7.55152 55.5845 7.50554C55.6711 7.45956 55.7341 7.32125 55.775 7.08947L55.9285 6.19749L56.4507 3.23578ZM61.9653 4.31243L62.9766 4.64122L62.3259 6.64386L63.679 7.08349C64.0349 7.19919 64.3248 7.34629 64.55 7.52648C64.7751 7.70667 64.9321 7.94985 65.0214 8.2549C65.1117 8.56014 65.1041 8.8736 64.9986 9.1979C64.8884 9.53734 64.705 9.80015 64.4469 9.98707C64.19 10.1744 63.9403 10.2725 63.6964 10.2811C63.4532 10.2908 63.1218 10.2271 62.702 10.0908L60.3375 9.32239L61.9653 4.31243ZM61.6222 8.80986L62.61 9.13098C62.9239 9.23285 63.1482 9.28912 63.2827 9.2994C63.4166 9.308 63.5502 9.27398 63.6824 9.19697C63.8147 9.11884 63.9057 9.00126 63.9568 8.84388C64.0297 8.61995 64.0057 8.4278 63.8835 8.26425C63.7612 8.1007 63.4943 7.9534 63.0814 7.8192L62.0526 7.48499L61.6222 8.80986ZM66.7293 5.86048L67.7405 6.18889L66.1127 11.1989L65.1013 10.8703L66.7293 5.86048ZM69.974 14.4568L69.1862 14.0553L69.7079 13.0314L69.3942 12.8716L69.4518 11.3729C69.452 11.351 69.4512 11.3093 69.4479 11.2454C69.4469 11.2121 69.4449 11.1189 69.4421 10.9646C69.4376 10.7089 69.4219 10.54 69.3944 10.4559C69.3462 10.3183 69.232 10.2024 69.0516 10.1076L68.0043 12.1634L67.0568 11.6805L69.4482 6.98685L70.3957 7.46966L69.378 9.46725C69.6265 9.5652 69.851 9.55715 70.0516 9.44444C70.103 9.41136 70.2884 9.25248 70.6077 8.96912C71.023 8.59715 71.3553 8.38817 71.6064 8.34107C71.8826 8.2878 72.2572 8.38219 72.7283 8.62219C72.7499 8.63341 72.7965 8.65565 72.8675 8.68911L72.5105 9.38968L72.3778 9.3179C72.0658 9.1493 71.8021 9.13752 71.5866 9.28239C71.4808 9.35211 71.2963 9.51136 71.0311 9.76183C70.8641 9.91903 70.7297 10.0239 70.6234 10.0785C70.4905 10.1499 70.323 10.1897 70.1234 10.1981C70.3058 10.3669 70.4194 10.576 70.4636 10.8271C70.514 11.1088 70.5344 11.4415 70.5234 11.8252L70.5062 12.4456L70.8974 12.6449L69.974 14.4568ZM74.1182 12.5729C74.4264 12.1327 74.7498 11.8097 75.0905 11.6035C75.3423 11.4534 75.6145 11.3491 75.9066 11.2931C76.1982 11.2383 76.4748 11.2387 76.7358 11.2957C77.0853 11.3699 77.4341 11.5303 77.7857 11.7764C78.4218 12.2217 78.7923 12.7746 78.8975 13.4368C79.0037 14.098 78.8104 14.7802 78.3186 15.4825C77.8304 16.1797 77.2592 16.5913 76.6046 16.7199C75.9509 16.8475 75.3064 16.69 74.6737 16.2468C74.0316 15.7972 73.6584 15.244 73.5533 14.5879C73.4488 13.9309 73.6378 13.2591 74.1182 12.5729ZM75.0358 13.172C74.6941 13.6602 74.5479 14.1105 74.5965 14.5202C74.6459 14.9307 74.8442 15.2567 75.1918 15.5002C75.5386 15.7428 75.9111 15.818 76.31 15.723C76.7072 15.6283 77.081 15.3316 77.4315 14.8314C77.7775 14.337 77.9272 13.8923 77.8821 13.497C77.8354 13.1019 77.6322 12.7783 77.2735 12.5273C76.9137 12.2753 76.538 12.1964 76.1457 12.2884C75.7541 12.3811 75.384 12.6746 75.0358 13.172ZM77.3762 18.2709L80.9687 14.4183L82.2164 15.5817C82.6891 16.0227 82.9794 16.3299 83.0871 16.5025C83.254 16.7656 83.3228 17.0643 83.291 17.3969C83.2592 17.7296 83.1002 18.0492 82.8149 18.355C82.5942 18.592 82.3654 18.7509 82.1295 18.8311C81.8929 18.9124 81.6665 18.9376 81.4474 18.9062C81.2302 18.8746 81.0388 18.8103 80.8749 18.7128C80.6549 18.5765 80.3682 18.3444 80.0156 18.0156L79.5089 17.5429L78.1537 18.9961L77.3762 18.2709ZM81.1383 15.7957L80.1196 16.8881L80.5448 17.2845C80.8515 17.5707 81.0753 17.7425 81.216 17.7982C81.357 17.8541 81.4962 17.8666 81.6357 17.8358C81.7743 17.804 81.8968 17.732 82.0029 17.6182C82.1334 17.4782 82.2001 17.324 82.2029 17.1556C82.2058 16.9888 82.1544 16.8335 82.0497 16.6941C81.973 16.589 81.794 16.4071 81.5142 16.146L81.1383 15.7957ZM81.5999 22.5156L84.9028 19.6446L83.8775 18.4653L84.5506 17.8802L87.2968 21.0395L86.6239 21.6246L85.6013 20.4481L82.2985 23.319L81.5999 22.5156ZM86.2114 28.5843L85.531 27.6476L86.2292 26.5719L84.9912 24.8682L83.7676 25.2205L83.1045 24.3076L88.5722 22.8715L89.2333 23.7812L86.2114 28.5843ZM86.7462 25.7749L87.901 24.0383L85.9011 24.6119L86.7462 25.7749ZM91.2614 27.1446L92.9369 30.4329L88.2432 32.8243L87.7606 31.877L91.6597 29.8903L90.9402 28.4783L88.9361 29.4994C88.3623 29.7918 87.9512 29.9764 87.7045 30.054C87.4578 30.1318 87.2327 30.1279 87.0309 30.045C86.8284 29.9609 86.6469 29.7615 86.4854 29.4447C86.4292 29.3342 86.3359 29.1271 86.2092 28.8241L86.9424 28.4505L87.0466 28.663C87.148 28.862 87.2421 28.9819 87.3301 29.0224C87.4189 29.0639 87.5673 29.031 87.7772 28.9241L88.5819 28.5099L91.2614 27.1446ZM93.7588 32.1039L94.1049 33.1096L92.1139 33.795L92.5771 35.1403C92.699 35.4941 92.756 35.8143 92.7476 36.1025C92.7391 36.3907 92.6393 36.6625 92.4494 36.9173C92.2601 37.1732 92.0051 37.3556 91.6827 37.4666C91.3451 37.5829 91.0249 37.5945 90.7202 37.501C90.4161 37.4085 90.1875 37.2681 90.0339 37.0784C89.8797 36.8904 89.7313 36.5872 89.5873 36.1698L88.778 33.8191L93.7588 32.1039ZM89.9604 34.5365L90.2986 35.5188C90.406 35.8307 90.4961 36.0436 90.569 36.1575C90.6427 36.2696 90.7501 36.3556 90.8911 36.4148C91.0331 36.4735 91.1819 36.4756 91.3384 36.4216C91.561 36.3449 91.7001 36.2102 91.7573 36.0141C91.8143 35.818 91.7713 35.5163 91.63 35.1059L91.2778 34.083L89.9604 34.5365ZM95.3895 36.8403L95.7358 37.8455L90.755 39.5607L90.4088 38.5552L95.3895 36.8403ZM95.8911 43.4482L95.4132 40.9897L94.0238 41.2598L94.2259 42.2999L93.5698 42.4274L93.3676 41.3872L91.1101 41.8261L90.907 40.7811L93.1646 40.3422L93.05 39.7534L93.7063 39.6259L93.8206 40.2147L96.078 39.7758L96.7592 43.2796L95.8911 43.4482ZM97.0123 44.6306L97.0495 45.6933L94.945 45.7667L94.9945 47.1888C95.0076 47.5626 94.9685 47.8854 94.8762 48.1585C94.7838 48.4318 94.6091 48.6626 94.353 48.8507C94.0971 49.04 93.7999 49.14 93.459 49.1518C93.1025 49.1643 92.7928 49.0819 92.5287 48.9034C92.2649 48.726 92.0872 48.5249 91.9958 48.2985C91.9032 48.0735 91.85 47.7404 91.8346 47.2991L91.7477 44.8144L97.0123 44.6306ZM92.6687 45.8462L92.7049 46.8845C92.7165 47.2142 92.7404 47.4441 92.7767 47.5742C92.8145 47.703 92.892 47.8167 93.0096 47.9146C93.1283 48.0122 93.27 48.0576 93.4354 48.0518C93.6705 48.0436 93.8433 47.9555 93.955 47.7847C94.0668 47.6137 94.1141 47.3127 94.0988 46.8789L94.061 45.7978L92.6687 45.8462ZM97.1872 49.6365L97.2242 50.6993L91.9597 50.883L91.9225 49.8204L97.1872 49.6365ZM4.97125 64.6905L9.88924 62.8028L10.2707 63.7966L8.33577 64.5395L9.08251 66.4849L11.0175 65.7421L11.3986 66.7348L6.48061 68.6227L6.09967 67.63L8.25016 66.8045L7.50324 64.8589L5.35275 65.6843L4.97125 64.6905ZM9.10008 74.0904L8.5926 73.0498L9.46662 72.1117L8.54343 70.219L7.27725 70.3535L6.78267 69.3391L12.4168 68.8743L12.9098 69.8851L9.10008 74.0904ZM10.1143 71.4165L11.5532 69.9068L9.48419 70.1246L10.1143 71.4165ZM13.7093 71.184L14.3398 72.1928L12.6717 74.6842L15.5467 74.1242L16.1349 75.0658L11.7975 75.6788C11.3278 75.7439 10.9433 75.7514 10.6442 75.7009C10.3463 75.65 10.1117 75.4899 9.9427 75.2194C9.77635 74.9532 9.66401 74.7342 9.60475 74.5629L10.2758 74.1437C10.3474 74.2768 10.4154 74.3949 10.4797 74.4979C10.6109 74.708 10.7429 74.8338 10.8754 74.8766C11.0079 74.9198 11.2261 74.9035 11.53 74.8293L13.7093 71.184ZM16.2613 75.1334L16.9159 75.9714L15.9252 76.7452C15.6043 76.9959 15.4005 77.1755 15.3144 77.2802C15.2271 77.3858 15.1914 77.5271 15.2054 77.7047C15.2194 77.882 15.3151 78.0841 15.4919 78.3103C15.6323 78.4901 15.7762 78.6346 15.9244 78.7443C16.0717 78.8535 16.2233 78.9295 16.3787 78.9733L18.1686 77.5747L18.8234 78.4129L14.6723 81.6559L14.0175 80.818L15.6886 79.5123C15.4794 79.4019 15.2917 79.2792 15.1246 79.145C14.9575 79.011 14.8123 78.8649 14.6884 78.7062C14.3652 78.2925 14.1925 77.8703 14.1702 77.4394C14.1489 77.0078 14.3785 76.6043 14.8598 76.2282L16.2613 75.1334ZM15.6271 82.5914L19.2865 78.8022L20.0524 79.5417L18.6125 81.0325L20.1116 82.4802L21.5512 80.9892L22.3161 81.7279L18.6568 85.5173L17.892 84.7786L19.4922 83.1217L17.9931 81.674L16.3929 83.3311L15.6271 82.5914ZM21.0849 84.1913C21.4155 83.7679 21.7557 83.4623 22.1066 83.2742C22.3658 83.1376 22.6432 83.0475 22.938 83.007C23.232 82.9673 23.5081 82.9823 23.7658 83.0531C24.1109 83.1453 24.4509 83.3236 24.789 83.5879C25.4008 84.0658 25.7419 84.6374 25.8124 85.3044C25.8838 85.97 25.655 86.6412 25.1272 87.3167C24.6032 87.9876 24.0113 88.3685 23.3509 88.4627C22.6913 88.556 22.0561 88.365 21.4473 87.8893C20.8296 87.4068 20.486 86.8347 20.4153 86.1741C20.3454 85.5124 20.5692 84.8515 21.0849 84.1913ZM21.9699 84.8376C21.6028 85.3072 21.4335 85.7494 21.4604 86.161C21.4884 86.5734 21.6694 86.9094 22.004 87.1707C22.3372 87.4313 22.7055 87.5259 23.1088 87.4519C23.5103 87.3782 23.8993 87.1014 24.2754 86.6201C24.6468 86.1446 24.8197 85.7085 24.7954 85.3111C24.7694 84.9143 24.5832 84.5804 24.2382 84.3109C23.8922 84.0406 23.521 83.9421 23.1243 84.0133C22.7286 84.0857 22.3436 84.3591 21.9699 84.8376ZM25.1857 88.6227L25.7354 87.7762L27.3986 88.8564L26.8491 89.7029L25.1857 88.6227ZM27.8379 91.8295L29.8246 87.9304L28.4323 87.2208L28.8371 86.4264L32.5669 88.327L32.162 89.1214L30.7732 88.4136L28.7865 92.3129L27.8379 91.8295ZM31.0037 93.3831L32.9772 88.499L36.5979 89.962L36.2639 90.7885L33.6291 89.724L33.1917 90.8067L35.6434 91.7971L35.3112 92.6194L32.8596 91.6289L32.3224 92.9583L35.0505 94.0605L34.7177 94.8837L31.0037 93.3831ZM35.2695 95.0222L37.7578 92.8764L36.8843 90.0052L38.0785 90.3474L38.6283 92.2659L40.0886 90.9239L41.2735 91.2637L38.9933 93.2714L39.9772 96.372L38.7441 96.0185L38.1238 93.9459L36.4957 95.3738L35.2695 95.0222ZM40.7139 96.5594L41.356 91.331L42.4124 91.4609L42.1599 93.5179L44.2283 93.7721L44.4808 91.7147L45.5362 91.8443L44.8941 97.0727L43.839 96.9432L44.1195 94.657L42.0513 94.403L41.7705 96.6894L40.7139 96.5594ZM46.4489 91.9844L47.4444 92.0192L47.322 95.5235L49.5772 92.0938L50.6362 92.1306L50.4523 97.3951L49.4583 97.3606L49.5783 93.9235L47.328 97.2862L46.2652 97.249L46.4489 91.9844ZM51.2164 92.09L52.2755 91.9975L52.385 93.2497C52.4206 93.6555 52.4602 93.9241 52.5009 94.0536C52.5421 94.1841 52.6413 94.2912 52.7978 94.3759C52.9542 94.4607 53.1757 94.4906 53.4617 94.4656C53.6888 94.4458 53.8884 94.4037 54.0611 94.3392C54.2329 94.2749 54.3793 94.1895 54.5006 94.083L54.3026 91.8201L55.3619 91.7274L55.8212 96.9752L54.7617 97.0679L54.5768 94.9553C54.3703 95.0706 54.1653 95.1613 53.9617 95.2282C53.7583 95.2953 53.5565 95.3376 53.3561 95.3551C52.8331 95.4009 52.385 95.3157 52.0114 95.0996C51.6379 94.8824 51.4245 94.4703 51.3714 93.8616L51.2164 92.09ZM57.1473 96.8333L56.1423 91.6622L59.9756 90.9171L60.1457 91.7925L57.3561 92.3345L57.5791 93.4807L60.1747 92.9762L60.344 93.8467L57.7483 94.3512L58.0217 95.7587L60.91 95.1972L61.0795 96.0688L57.1473 96.8333ZM64.6869 92.8964L65.7665 92.8506C65.8145 93.4454 65.714 93.9362 65.4637 94.3248C65.2143 94.7119 64.8231 95.0032 64.2917 95.1966C63.6349 95.4357 63.0125 95.4077 62.4263 95.1133C61.8397 94.8176 61.404 94.2803 61.121 93.5026C60.821 92.6785 60.8014 91.9613 61.0607 91.35C61.3201 90.7399 61.796 90.3083 62.4898 90.0558C63.0949 89.8356 63.6521 89.8351 64.1607 90.056C64.4633 90.1846 64.7424 90.4276 64.9996 90.7829L64.0955 91.3798C63.9442 91.1437 63.7484 90.9852 63.5076 90.9046C63.2678 90.8235 63.0151 90.8317 62.75 90.9282C62.3835 91.0616 62.1328 91.3018 62.0007 91.6487C61.8681 91.9945 61.9093 92.4624 62.124 93.0527C62.3519 93.6785 62.6259 94.0837 62.9483 94.2667C63.27 94.451 63.611 94.4772 63.9704 94.3461C64.2368 94.2493 64.4343 94.0822 64.5639 93.8431C64.6942 93.6052 64.7343 93.2889 64.6869 92.8964ZM65.1957 89.2782L66.1594 88.8289L67.1069 90.8607C67.3127 90.739 67.4323 90.6156 67.4665 90.4913C67.5005 90.3672 67.503 90.0644 67.4716 89.585C67.4304 88.9749 67.482 88.5597 67.6247 88.3405C67.7656 88.1203 68.0591 87.9078 68.5035 87.7005C68.5258 87.69 68.572 87.6674 68.6421 87.6319L68.9744 88.3444L68.8361 88.4048C68.6394 88.4966 68.5063 88.5883 68.4377 88.6797C68.3695 88.7711 68.3299 88.8805 68.3209 89.0065C68.3108 89.1328 68.3228 89.3762 68.3568 89.7394C68.3746 89.9313 68.3755 90.0986 68.3594 90.2416C68.3419 90.3837 68.2695 90.5446 68.1417 90.7233C68.3847 90.6844 68.6196 90.7239 68.8458 90.8431C69.0718 90.9624 69.3471 91.1519 69.6703 91.4099L70.9322 92.4155L69.7996 92.9437L68.654 91.9757C68.6368 91.962 68.6035 91.9371 68.5512 91.9005C68.5329 91.8874 68.4572 91.8321 68.3265 91.7321C68.0938 91.5549 67.923 91.4558 67.8168 91.4338C67.7103 91.4117 67.5751 91.4381 67.4106 91.5121L68.3856 93.6031L67.4218 94.0525L65.1957 89.2782ZM69.0241 87.6481L69.8778 87.1352L71.6838 90.1409L71.7071 86.036L72.6154 85.4902L75.3285 90.0055L74.4759 90.5179L72.7047 87.57L72.6486 91.6158L71.7372 92.1635L69.0241 87.6481ZM73.3171 85.0653L74.1227 84.48L76.1838 87.3167L75.8492 83.2257L76.7066 82.6027L79.8029 86.8644L78.9982 87.4491L76.9767 84.6668L77.2735 88.7021L76.4133 89.327L73.3171 85.0653ZM74.756 82.3991L75.1539 82.1101C75.3223 82.3896 75.3806 82.664 75.3277 82.9314C75.2745 83.2004 75.1193 83.427 74.8612 83.6144C74.6034 83.8017 74.3399 83.8795 74.0685 83.8462C73.7978 83.8139 73.555 83.6735 73.3402 83.4279L73.7391 83.138C73.852 83.2666 73.9758 83.3346 74.1109 83.3455C74.2455 83.3552 74.3926 83.303 74.5513 83.1877C74.7102 83.0722 74.8051 82.9486 74.8374 82.8176C74.8688 82.6856 74.8423 82.5471 74.756 82.3991ZM78.5782 81.0166L79.3035 80.2391L82.5093 83.2284L83.9162 81.7197L80.7104 78.7303L81.4356 77.9525L84.6415 80.9421L84.9409 80.6208L86.4282 82.0079L85.825 82.6546L84.9847 81.8707L82.4308 84.6094L78.5782 81.0166ZM86.2078 80.5383L82.0009 77.3682L84.3512 74.2493L85.0632 74.7861L83.3529 77.0555L84.2856 77.7581L85.8768 75.6463L86.5851 76.1801L84.9936 78.2918L86.1389 79.1548L87.9096 76.8048L88.6187 77.3392L86.2078 80.5383ZM89.3144 76.4624L84.8471 73.6708L85.4112 72.768L87.169 73.8665L88.2733 72.0992L86.5155 71.0008L87.0791 70.0991L91.5464 72.8906L90.9829 73.7923L89.0294 72.5717L87.9251 74.339L89.8785 75.5596L89.3144 76.4624ZM92.6163 70.6373L88.6187 68.8573L87.983 70.2848L87.1684 69.9221L88.8712 66.098L89.6858 66.4606L89.0518 67.8847L93.0494 69.6646L92.6163 70.6373ZM94.1412 67.4285L89.1036 65.8883L89.6025 64.2568C89.7915 63.6385 89.9404 63.243 90.0485 63.0707C90.2116 62.8052 90.45 62.6125 90.763 62.4953C91.0759 62.3781 91.4328 62.3807 91.8328 62.5032C92.1425 62.5978 92.3857 62.7336 92.5612 62.9105C92.7378 63.0877 92.8599 63.28 92.9276 63.4907C92.9945 63.6996 93.0204 63.8998 93.0047 64.0901C92.9786 64.3475 92.8956 64.7069 92.7547 65.1681L92.552 65.8305L94.4522 66.4114L94.1412 67.4285ZM90.2673 65.132L91.696 65.5688L91.8657 65.0129C91.9885 64.6118 92.0447 64.3353 92.0331 64.1843C92.0217 64.0333 91.9718 63.9026 91.8829 63.7907C91.7937 63.68 91.6752 63.6015 91.5262 63.5559C91.3432 63.5 91.1756 63.5077 91.0229 63.5791C90.8718 63.6495 90.7548 63.7639 90.6754 63.9191C90.6144 64.034 90.5294 64.2748 90.4174 64.6408L90.2673 65.132Z" fill="white"/>
<path d="M50 9.96045C72.0529 9.96045 90.0399 27.9474 90.0399 50.0003C90.0399 72.0533 72.0529 90.0402 50 90.0402C27.947 90.0402 9.96008 72.0533 9.96008 50.0003C9.96008 27.9474 27.947 9.96045 50 9.96045ZM50 10.6199C28.31 10.6199 10.6195 28.3104 10.6195 50.0003C10.6195 71.6903 28.31 89.3808 50 89.3808C71.6899 89.3808 89.3804 71.6903 89.3804 50.0003C89.3804 28.3104 71.6899 10.6199 50 10.6199Z" fill="white"/>
<path d="M19.0129 36.4439H30.4401C34.1501 36.4768 36.6202 38.7103 37.7109 41.521C38.114 42.5597 38.3219 43.6657 38.3269 44.7517C38.332 45.8532 38.1301 46.965 37.7135 47.9988C37.5081 48.5084 37.254 48.9949 36.9512 49.4493C38.3277 50.3904 39.2913 51.7477 39.8711 53.3C40.3017 54.4537 40.5038 55.6892 40.4911 56.9105C40.4786 58.1242 40.2604 59.3543 39.8511 60.5042C38.6931 63.7575 36.0393 66.3693 32.1514 66.4032H32.1332H15.5278L13.6882 61.7683C17.1441 61.7683 20.5998 61.7681 24.0557 61.7681C26.5234 61.7681 29.0289 61.7683 32.1155 61.7683C33.7643 61.7536 34.9374 60.5122 35.488 58.9653C35.7234 58.304 35.8488 57.5881 35.8561 56.8743C35.8634 56.1683 35.7619 55.4946 35.5441 54.9114C35.0781 53.6638 33.9803 52.7155 32.1437 52.7155C31.6282 52.7103 30.9457 52.7155 30.4067 52.7155H22.7012V48.0805H26.5242C27.5967 48.0805 28.6947 48.0807 30.4067 48.0807C32.0291 48.0807 33.0119 47.2981 33.4226 46.279C33.6058 45.824 33.6945 45.3065 33.6921 44.7698C33.6897 44.2175 33.5916 43.6752 33.402 43.1866C32.9491 42.0195 31.9297 41.0924 30.4039 41.0788H17.3673C16.5865 43.9225 16.1682 46.914 16.1682 50C16.1682 53.1262 16.597 56.1554 17.3974 59.033H12.8089C12.1031 56.135 11.7285 53.1099 11.7285 50C11.7285 28.9209 28.921 11.7285 50 11.7285C60.541 11.7285 70.1094 16.0261 77.0416 22.9584C80.4652 26.3821 83.2456 30.4491 85.1837 34.9583H80.2908C78.6463 31.6656 76.4806 28.6756 73.9025 26.0975C67.7732 19.968 59.3154 16.1682 50 16.1682C36.1824 16.1682 24.2559 24.5262 19.0129 36.4439Z" fill="white"/>
<path d="M86.5032 61.49C81.6043 76.9848 67.0787 88.2715 50 88.2715C39.4591 88.2715 29.8906 83.9737 22.9586 77.0416C22.1698 76.2528 21.4158 75.4293 20.6976 74.5747H26.7902C32.8565 80.308 41.0306 83.8318 50 83.8318C63.1385 83.8318 74.5668 76.2745 80.166 65.2862C78.1947 66.108 76.0575 66.5533 73.9023 66.5533C69.5698 66.5533 65.6284 64.8477 62.7654 62.0966C59.8803 59.3242 58.0917 55.4945 58.0917 51.2727C58.0917 47.0512 59.8803 43.2214 62.7654 40.4491C65.6284 37.6978 69.5698 35.9922 73.9023 35.9922C76.1427 35.9922 78.3886 36.4823 80.4385 37.3802C82.4931 38.2804 84.3486 39.59 85.8047 41.2274L82.4604 44.2041C81.4305 43.0459 80.1134 42.1177 78.6525 41.4777C77.1715 40.8289 75.5394 40.4747 73.9023 40.4747C70.7614 40.4747 67.9178 41.6979 65.8647 43.6708C63.8334 45.6226 62.5742 48.3127 62.5742 51.2727C62.5742 54.2328 63.8334 56.9229 65.8647 58.8747C67.9178 60.8476 70.7614 62.0708 73.9023 62.0708C75.5822 62.0708 77.2302 61.7095 78.719 61.0454C80.2134 60.3784 81.5535 59.4124 82.6105 58.2063L83.0324 58.5754L86.5032 61.49Z" fill="white"/>
<path d="M16.3818 67.9656H38.3021L40.0696 62.3681L41.5974 64.6597L45.7149 35.0188H22.9765L23.2694 32.7444L31.7069 27.7113L67.1843 23.7647L68.4833 23.6245L69.0744 24.795L72.821 32.2158L74.2094 34.966H53.8681L58.3118 72.7028L60.6304 66.3454L61.0872 65.0926H67.1723C69.217 66.0291 71.4996 66.5534 73.9023 66.5534C76.0518 66.5534 78.1833 66.1106 80.1502 65.2928L79.0268 67.2955H61.5704L55.7955 82.856L55.4782 81.0474L49.8536 33.2833L49.8192 32.9917L49.7652 33.3807L43.7917 76.5621L41.018 67.1272L38.9187 73.7935L36.6572 70.0996C30.8444 70.0994 23.4131 70.0994 17.6004 70.0996C17.1661 69.4131 16.8785 68.8394 16.3818 67.9656ZM66.4149 27.9272L64.3072 31.173C65.5538 31.1719 66.8026 31.1708 68.0525 31.1708L66.4149 27.9272ZM59.9735 31.1784L56.8585 28.6864L53.3895 29.0605L49.2015 31.2009C52.7897 31.1928 56.3776 31.1842 59.9735 31.1784ZM42.1674 31.2154L40.6513 30.4336L33.3205 31.2237C36.2774 31.2237 39.2245 31.2205 42.1674 31.2154ZM42.9066 30.1904L44.8844 31.2104C45.4023 31.2093 45.9205 31.2082 46.4382 31.207L49.903 29.4362L42.9066 30.1904ZM58.6272 28.4958L61.9766 31.1754C62.2566 31.1751 62.5367 31.1749 62.8167 31.1745L65.0024 27.8087L58.6272 28.4958Z" fill="white"/>
</svg>
