<svg width="100" height="100" viewBox="0 0 100 100" fill="none" xmlns="http://www.w3.org/2000/svg">
<path d="M50 0C77.539 0 100 22.461 100 50C100 63.7697 94.3846 76.27 85.3273 85.3273C76.27 94.3846 63.7697 100 50 100C36.2303 100 23.73 94.3846 14.6727 85.3273C5.61539 76.27 0 63.7697 0 50C0 22.461 22.461 0 50 0ZM50 0.659443C22.8242 0.659443 0.659447 22.8242 0.659447 50C0.659447 63.5878 6.20082 75.9231 15.1389 84.8611C24.0769 93.7992 36.4122 99.3405 50 99.3405C63.5878 99.3405 75.9231 93.7992 84.8611 84.8611C93.7992 75.9231 99.3405 63.5878 99.3405 50C99.3405 22.8242 77.1758 0.659443 50 0.659443Z" fill="#2B2B2A"/>
<path d="M3.84417 47.2277L3.7567 49.7307L5.1711 49.78L5.2083 48.721L5.87616 48.7443L5.83933 49.8034L8.13768 49.8838L8.10048 50.9475L5.80214 50.8673L5.78121 51.4666L5.11316 51.4434L5.13409 50.844L2.83594 50.7638L2.96042 47.1966L3.84417 47.2277ZM2.91855 46.1232L3.0666 45.0701L5.15185 45.3632L5.34998 43.9542C5.40195 43.5837 5.49653 43.2725 5.63485 43.0196C5.77335 42.7665 5.98551 42.5697 6.27037 42.4289C6.55523 42.2869 6.86533 42.2401 7.20309 42.2874C7.55637 42.3372 7.84702 42.4721 8.076 42.6938C8.30516 42.9144 8.44516 43.1431 8.49581 43.382C8.54778 43.6196 8.54254 43.957 8.48105 44.3942L8.13506 46.8563L2.91855 46.1232ZM7.40739 45.6802L7.55188 44.6514C7.59786 44.3247 7.61431 44.0942 7.60085 43.9598C7.58627 43.8263 7.52945 43.7007 7.43076 43.5841C7.33076 43.4673 7.19916 43.3979 7.03542 43.3749C6.80215 43.3422 6.61691 43.399 6.4771 43.548C6.33729 43.6968 6.23859 43.985 6.17822 44.4149L6.02775 45.4863L7.40739 45.6802ZM3.61576 41.1627L3.76361 40.1098L8.9803 40.8429L8.83227 41.8958L3.61576 41.1627ZM4.41446 37.9476L5.43186 34.4001L10.4955 35.852L10.2024 36.8741L5.99579 35.6679L5.55896 37.1911L7.72123 37.8111C8.3403 37.9887 8.76685 38.1339 9.00012 38.2455C9.23358 38.3571 9.39564 38.5134 9.48667 38.7117C9.57732 38.9113 9.57414 39.1807 9.4762 39.5227C9.44199 39.6418 9.36872 39.8567 9.25489 40.1648L8.46385 39.9379L8.53264 39.7115C8.59413 39.4969 8.60722 39.345 8.57039 39.2552C8.53376 39.1644 8.40291 39.0874 8.17637 39.0224L7.30534 38.7765L4.41446 37.9476ZM6.10139 32.535L6.55075 31.5712L8.45937 32.4612L9.06068 31.1716C9.21881 30.8327 9.40012 30.5626 9.60629 30.3611C9.81284 30.1598 10.0732 30.0335 10.3869 29.9822C10.7009 29.9295 11.011 29.9755 11.32 30.1196C11.6435 30.2705 11.882 30.4845 12.0362 30.7634C12.1908 31.0413 12.2577 31.3011 12.2364 31.5443C12.2166 31.7868 12.1131 32.1079 11.9263 32.5081L10.8757 34.7612L6.10139 32.535ZM10.5235 33.4238L10.9626 32.4823C11.102 32.1832 11.1852 31.9675 11.2117 31.8352C11.2366 31.7032 11.219 31.5666 11.1588 31.426C11.0973 31.2851 10.9917 31.1806 10.8418 31.1105C10.6284 31.011 10.4347 31.0112 10.2575 31.1127C10.0801 31.2142 9.90162 31.4611 9.71807 31.8546L9.26087 32.835L10.5235 33.4238ZM8.21843 27.9953L8.66759 27.0316L13.442 29.2577L12.9925 30.2215L8.21843 27.9953ZM14.0271 28.3013L9.76536 25.205L10.7011 23.9171L14.1701 25.2564L11.8179 22.3801L12.7559 21.0891L17.0176 24.1854L16.4372 24.9842L13.0822 22.5468L15.8221 25.8306L15.2202 26.6592L11.2527 25.0652L14.6075 27.5026L14.0271 28.3013ZM13.794 19.6644L14.4858 18.9479L17.0082 21.3838L15.9682 17.4128L16.7043 16.6505L20.4937 20.3098L19.8027 21.0253L17.3288 18.6363L18.3219 22.5588L17.5832 23.3237L13.794 19.6644ZM23.6842 17.4346L20.99 13.9862L19.7587 14.9482L19.2098 14.2456L22.5085 11.6684L23.0573 12.371L21.829 13.3308L24.5233 16.7793L23.6842 17.4346ZM26.3212 15.4135L23.5298 10.9463L26.8414 8.87678L27.3141 9.63305L24.9042 11.1389L25.5229 12.1292L27.7652 10.7278L28.2353 11.48L25.9928 12.8811L26.7526 14.097L29.2478 12.5379L29.7183 13.2908L26.3212 15.4135ZM30.0394 13.0484L30.5661 9.80501L28.0514 8.16724L29.1865 7.66181L30.8407 8.77808L31.0968 6.81134L32.2228 6.31002L31.7665 9.3136L34.5135 11.0564L33.3415 11.5781L31.5338 10.3893L31.2047 12.5295L30.0394 13.0484ZM35.0185 10.8215L33.3905 5.81151L34.403 5.48253L35.0436 7.45377L37.0255 6.80984L36.3851 4.8386L37.3961 4.51L39.024 9.51996L38.0128 9.84856L37.301 7.65789L35.3191 8.30182L36.0309 10.4925L35.0185 10.8215ZM39.1528 4.01205L40.1335 3.83915L40.7425 7.29227L42.2353 3.46849L43.279 3.28456L44.1938 8.47229L43.2141 8.64499L42.6169 5.25823L41.1149 9.0151L40.0676 9.19996L39.1528 4.01205ZM44.9272 3.11877L45.988 3.04456L46.1445 5.28104C46.3802 5.24122 46.536 5.1687 46.6125 5.06515C46.6888 4.96141 46.7994 4.67953 46.9419 4.22065C47.1222 3.63634 47.319 3.26718 47.5308 3.11354C47.7413 2.95858 48.0914 2.86531 48.5807 2.83111C48.6052 2.82942 48.6564 2.82475 48.7348 2.81689L48.7895 3.60102L48.6387 3.60793C48.4222 3.62307 48.265 3.66102 48.1684 3.72177C48.0718 3.7827 47.9957 3.87056 47.9422 3.98495C47.8875 4.09916 47.8114 4.33075 47.7131 4.68197C47.6609 4.86758 47.6019 5.02421 47.5357 5.15169C47.4682 5.27823 47.343 5.40253 47.1596 5.52365C47.4005 5.5745 47.6056 5.69525 47.774 5.88759C47.9422 6.07993 48.1312 6.35562 48.3406 6.71226L49.1585 8.1035L47.9118 8.1906L47.1891 6.87638C47.1779 6.8575 47.1559 6.82218 47.12 6.76928C47.1078 6.75059 47.0568 6.67171 46.9706 6.53133C46.8168 6.28273 46.6931 6.12908 46.6015 6.07039C46.5101 6.0117 46.3745 5.98796 46.1944 5.99805L46.3555 8.29939L45.2945 8.3736L44.9272 3.11877ZM54.5197 8.21004L53.3621 8.18986L52.923 6.98498L50.8174 6.94835L50.3624 8.13751L49.2342 8.11789L51.3778 2.88661L52.5023 2.90625L54.5197 8.21004ZM52.5976 6.09245L51.9056 4.12495L51.1604 6.06721L52.5976 6.09245ZM56.4517 3.23578L60.0861 3.87653L59.1715 9.06425L58.1242 8.87976L58.8842 4.57018L57.3236 4.29485L56.933 6.51002C56.8212 7.14423 56.7212 7.58368 56.6347 7.82742C56.5481 8.07116 56.4096 8.24854 56.222 8.35994C56.033 8.47116 55.7646 8.49602 55.4141 8.43415C55.2922 8.41266 55.0707 8.36257 54.7524 8.28144L54.8954 7.47097L55.1277 7.51564C55.3477 7.55452 55.5001 7.55152 55.5855 7.50554C55.672 7.45956 55.735 7.32125 55.776 7.08947L55.9294 6.19749L56.4517 3.23578ZM61.9663 4.31243L62.9775 4.64122L62.3269 6.64386L63.68 7.08349C64.0359 7.19919 64.3258 7.34629 64.551 7.52648C64.7761 7.70667 64.9331 7.94985 65.0224 8.2549C65.1127 8.56014 65.105 8.8736 64.9996 9.1979C64.8893 9.53734 64.706 9.80015 64.4478 9.98707C64.191 10.1744 63.9413 10.2725 63.6974 10.2811C63.4542 10.2908 63.1228 10.2271 62.703 10.0908L60.3384 9.32239L61.9663 4.31243ZM61.6231 8.80986L62.611 9.13098C62.9248 9.23285 63.1491 9.28912 63.2837 9.2994C63.4175 9.308 63.5512 9.27398 63.6833 9.19697C63.8157 9.11884 63.9067 9.00126 63.9577 8.84388C64.0306 8.61995 64.0067 8.4278 63.8845 8.26425C63.7622 8.1007 63.4953 7.9534 63.0824 7.8192L62.0536 7.48499L61.6231 8.80986ZM66.7303 5.86048L67.7415 6.18889L66.1136 11.1989L65.1022 10.8703L66.7303 5.86048ZM69.975 14.4568L69.1871 14.0553L69.7088 13.0314L69.3952 12.8716L69.4528 11.3729C69.4529 11.351 69.4522 11.3093 69.4488 11.2454C69.4479 11.2121 69.4458 11.1189 69.443 10.9646C69.4385 10.7089 69.4229 10.54 69.3954 10.4559C69.3471 10.3183 69.2329 10.2024 69.0526 10.1076L68.0053 12.1634L67.0578 11.6805L69.4492 6.98685L70.3967 7.46966L69.3789 9.46725C69.6275 9.5652 69.852 9.55715 70.0526 9.44444C70.104 9.41136 70.2894 9.25248 70.6087 8.96912C71.024 8.59715 71.3563 8.38817 71.6074 8.34107C71.8836 8.2878 72.2582 8.38219 72.7292 8.62219C72.7509 8.63341 72.7975 8.65565 72.8685 8.68911L72.5115 9.38968L72.3788 9.3179C72.0668 9.1493 71.8031 9.13752 71.5875 9.28239C71.4818 9.35211 71.2973 9.51136 71.032 9.76183C70.8651 9.91903 70.7307 10.0239 70.6244 10.0785C70.4915 10.1499 70.324 10.1897 70.1244 10.1981C70.3068 10.3669 70.4204 10.576 70.4645 10.8271C70.515 11.1088 70.5354 11.4415 70.5244 11.8252L70.5072 12.4456L70.8984 12.6449L69.975 14.4568ZM74.1192 12.5729C74.4274 12.1327 74.7508 11.8097 75.0915 11.6035C75.3433 11.4534 75.6154 11.3491 75.9076 11.2931C76.1992 11.2383 76.4758 11.2387 76.7368 11.2957C77.0863 11.3699 77.4351 11.5303 77.7867 11.7764C78.4228 12.2217 78.7932 12.7746 78.8985 13.4368C79.0046 14.098 78.8114 14.7802 78.3196 15.4825C77.8314 16.1797 77.2601 16.5913 76.6055 16.7199C75.9519 16.8475 75.3074 16.69 74.6747 16.2468C74.0326 15.7972 73.6593 15.244 73.5543 14.5879C73.4498 13.9309 73.6388 13.2591 74.1192 12.5729ZM75.0367 13.172C74.6951 13.6602 74.5489 14.1105 74.5975 14.5202C74.6468 14.9307 74.8451 15.2567 75.1928 15.5002C75.5395 15.7428 75.9121 15.818 76.311 15.723C76.7082 15.6283 77.082 15.3316 77.4325 14.8314C77.7785 14.337 77.9282 13.8923 77.8831 13.497C77.8364 13.1019 77.6332 12.7783 77.2745 12.5273C76.9147 12.2753 76.539 12.1964 76.1467 12.2884C75.7551 12.3811 75.385 12.6746 75.0367 13.172ZM77.3771 18.2709L80.9697 14.4183L82.2174 15.5817C82.6901 16.0227 82.9804 16.3299 83.088 16.5025C83.255 16.7656 83.3238 17.0643 83.292 17.3969C83.2602 17.7296 83.1011 18.0492 82.8159 18.355C82.5951 18.592 82.3664 18.7509 82.1305 18.8311C81.8938 18.9124 81.6675 18.9376 81.4484 18.9062C81.2312 18.8746 81.0398 18.8103 80.8759 18.7128C80.6559 18.5765 80.3691 18.3444 80.0166 18.0156L79.5099 17.5429L78.1547 18.9961L77.3771 18.2709ZM81.1392 15.7957L80.1205 16.8881L80.5458 17.2845C80.8525 17.5707 81.0762 17.7425 81.217 17.7982C81.3579 17.8541 81.4972 17.8666 81.6366 17.8358C81.7753 17.804 81.8978 17.732 82.0039 17.6182C82.1344 17.4782 82.2011 17.324 82.2039 17.1556C82.2067 16.9888 82.1553 16.8335 82.0507 16.6941C81.974 16.589 81.7949 16.4071 81.5151 16.146L81.1392 15.7957ZM81.6009 22.5156L84.9038 19.6446L83.8785 18.4653L84.5516 17.8802L87.2978 21.0395L86.6249 21.6246L85.6023 20.4481L82.2994 23.319L81.6009 22.5156ZM86.2124 28.5843L85.532 27.6476L86.2301 26.5719L84.9922 24.8682L83.7686 25.2205L83.1054 24.3076L88.5732 22.8715L89.2343 23.7812L86.2124 28.5843ZM86.7472 25.7749L87.9019 24.0383L85.9021 24.6119L86.7472 25.7749ZM91.2623 27.1446L92.9379 30.4329L88.2442 32.8243L87.7616 31.877L91.6607 29.8903L90.9412 28.4783L88.9371 29.4994C88.3632 29.7918 87.9522 29.9764 87.7055 30.054C87.4588 30.1318 87.2337 30.1279 87.0318 30.045C86.8294 29.9609 86.6479 29.7615 86.4864 29.4447C86.4301 29.3342 86.3369 29.1271 86.2101 28.8241L86.9434 28.4505L87.0475 28.663C87.149 28.862 87.243 28.9819 87.3311 29.0224C87.4199 29.0639 87.5683 29.031 87.7782 28.9241L88.5829 28.5099L91.2623 27.1446ZM93.7597 32.1039L94.1059 33.1096L92.1149 33.795L92.5781 35.1403C92.6999 35.4941 92.7569 35.8143 92.7485 36.1025C92.7401 36.3907 92.6403 36.6625 92.4504 36.9173C92.261 37.1732 92.0061 37.3556 91.6837 37.4666C91.3461 37.5829 91.0259 37.5945 90.7212 37.501C90.4171 37.4085 90.1885 37.2681 90.0349 37.0784C89.8806 36.8904 89.7322 36.5872 89.5883 36.1698L88.7789 33.8191L93.7597 32.1039ZM89.9614 34.5365L90.2995 35.5188C90.407 35.8307 90.4971 36.0436 90.57 36.1575C90.6436 36.2696 90.7511 36.3556 90.8921 36.4148C91.0341 36.4735 91.1829 36.4756 91.3393 36.4216C91.562 36.3449 91.701 36.2102 91.7582 36.0141C91.8152 35.818 91.7723 35.5163 91.6309 35.1059L91.2788 34.083L89.9614 34.5365ZM95.3904 36.8403L95.7368 37.8455L90.756 39.5607L90.4098 38.5552L95.3904 36.8403ZM95.8921 43.4482L95.4142 40.9897L94.0248 41.2598L94.2269 42.2999L93.5708 42.4274L93.3685 41.3872L91.1111 41.8261L90.9079 40.7811L93.1655 40.3422L93.051 39.7534L93.7072 39.6259L93.8216 40.2147L96.079 39.7758L96.7602 43.2796L95.8921 43.4482ZM97.0133 44.6306L97.0505 45.6933L94.9459 45.7667L94.9955 47.1888C95.0086 47.5626 94.9695 47.8854 94.8771 48.1585C94.7848 48.4318 94.61 48.6626 94.354 48.8507C94.0981 49.04 93.8009 49.14 93.4599 49.1518C93.1035 49.1643 92.7938 49.0819 92.5296 48.9034C92.2659 48.726 92.0881 48.5249 91.9967 48.2985C91.9042 48.0735 91.851 47.7404 91.8356 47.2991L91.7487 44.8144L97.0133 44.6306ZM92.6697 45.8462L92.7059 46.8845C92.7175 47.2142 92.7414 47.4441 92.7777 47.5742C92.8154 47.703 92.893 47.8167 93.0106 47.9146C93.1293 48.0122 93.271 48.0576 93.4364 48.0518C93.6715 48.0436 93.8442 47.9555 93.956 47.7847C94.0678 47.6137 94.1151 47.3127 94.0998 46.8789L94.062 45.7978L92.6697 45.8462ZM97.1882 49.6365L97.2252 50.6993L91.9607 50.883L91.9235 49.8204L97.1882 49.6365ZM4.97222 64.6905L9.89022 62.8028L10.2717 63.7966L8.33675 64.5395L9.08348 66.4849L11.0185 65.7421L11.3996 66.7348L6.48159 68.6227L6.10065 67.63L8.25114 66.8045L7.50421 64.8589L5.35372 65.6843L4.97222 64.6905ZM9.10105 74.0904L8.59357 73.0498L9.4676 72.1117L8.54441 70.219L7.27823 70.3535L6.78364 69.3391L12.4177 68.8743L12.9108 69.8851L9.10105 74.0904ZM10.1153 71.4165L11.5542 69.9068L9.48517 70.1246L10.1153 71.4165ZM13.7103 71.184L14.3407 72.1928L12.6727 74.6842L15.5477 74.1242L16.1359 75.0658L11.7985 75.6788C11.3287 75.7439 10.9443 75.7514 10.6452 75.7009C10.3472 75.65 10.1127 75.4899 9.94368 75.2194C9.77732 74.9532 9.66498 74.7342 9.60573 74.5629L10.2768 74.1437C10.3484 74.2768 10.4164 74.3949 10.4807 74.4979C10.6119 74.708 10.7439 74.8338 10.8764 74.8766C11.0089 74.9198 11.2271 74.9035 11.531 74.8293L13.7103 71.184ZM16.2623 75.1334L16.9168 75.9714L15.9262 76.7452C15.6052 76.9959 15.4015 77.1755 15.3153 77.2802C15.228 77.3858 15.1923 77.5271 15.2064 77.7047C15.2204 77.882 15.3161 78.0841 15.4929 78.3103C15.6333 78.4901 15.7772 78.6346 15.9254 78.7443C16.0727 78.8535 16.2243 78.9295 16.3796 78.9733L18.1696 77.5747L18.8243 78.4129L14.6733 81.6559L14.0185 80.818L15.6895 79.5123C15.4804 79.4019 15.2927 79.2792 15.1256 79.145C14.9585 79.011 14.8133 78.8649 14.6893 78.7062C14.3662 78.2925 14.1934 77.8703 14.1712 77.4394C14.1499 77.0078 14.3794 76.6043 14.8607 76.2282L16.2623 75.1334ZM15.628 82.5914L19.2875 78.8022L20.0533 79.5417L18.6135 81.0325L20.1126 82.4802L21.5522 80.9892L22.3171 81.7279L18.6578 85.5173L17.8929 84.7786L19.4931 83.1217L17.9941 81.674L16.3938 83.3311L15.628 82.5914ZM21.0859 84.1913C21.4165 83.7679 21.7567 83.4623 22.1076 83.2742C22.3668 83.1376 22.6442 83.0475 22.939 83.007C23.233 82.9673 23.5091 82.9823 23.7668 83.0531C24.1119 83.1453 24.4519 83.3236 24.79 83.5879C25.4018 84.0658 25.7429 84.6374 25.8134 85.3044C25.8848 85.97 25.656 86.6412 25.1282 87.3167C24.6042 87.9876 24.0122 88.3685 23.3519 88.4627C22.6922 88.556 22.0571 88.365 21.4483 87.8893C20.8305 87.4068 20.487 86.8347 20.4163 86.1741C20.3464 85.5124 20.5702 84.8515 21.0859 84.1913ZM21.9709 84.8376C21.6038 85.3072 21.4345 85.7494 21.4614 86.161C21.4894 86.5734 21.6703 86.9094 22.0049 87.1707C22.3382 87.4313 22.7064 87.5259 23.1098 87.4519C23.5113 87.3782 23.9003 87.1014 24.2764 86.6201C24.6478 86.1446 24.8207 85.7085 24.7964 85.3111C24.7704 84.9143 24.5842 84.5804 24.2392 84.3109C23.8932 84.0406 23.522 83.9421 23.1253 84.0133C22.7296 84.0857 22.3446 84.3591 21.9709 84.8376ZM25.1867 88.6227L25.7364 87.7762L27.3996 88.8564L26.85 89.7029L25.1867 88.6227ZM27.8388 91.8295L29.8256 87.9304L28.4332 87.2208L28.8381 86.4264L32.5679 88.327L32.163 89.1214L30.7742 88.4136L28.7874 92.3129L27.8388 91.8295ZM31.0047 93.3831L32.9781 88.499L36.5989 89.962L36.2649 90.7885L33.6301 89.724L33.1927 90.8067L35.6443 91.7971L35.3122 92.6194L32.8606 91.6289L32.3234 92.9583L35.0514 94.0605L34.7187 94.8837L31.0047 93.3831ZM35.2705 95.0222L37.7588 92.8764L36.8853 90.0052L38.0795 90.3474L38.6292 92.2659L40.0896 90.9239L41.2745 91.2637L38.9943 93.2714L39.9782 96.372L38.7451 96.0185L38.1247 93.9459L36.4967 95.3738L35.2705 95.0222ZM40.7149 96.5594L41.3569 91.331L42.4134 91.4609L42.1609 93.5179L44.2293 93.7721L44.4818 91.7147L45.5372 91.8443L44.8951 97.0727L43.8399 96.9432L44.1205 94.657L42.0523 94.403L41.7715 96.6894L40.7149 96.5594ZM46.4499 91.9844L47.4454 92.0192L47.323 95.5235L49.5781 92.0938L50.6372 92.1306L50.4533 97.3951L49.4593 97.3606L49.5793 93.9235L47.329 97.2862L46.2661 97.249L46.4499 91.9844ZM51.2174 92.09L52.2765 91.9975L52.386 93.2497C52.4215 93.6555 52.4612 93.9241 52.5019 94.0536C52.543 94.1841 52.6423 94.2912 52.7987 94.3759C52.9552 94.4607 53.1767 94.4906 53.4627 94.4656C53.6898 94.4458 53.8894 94.4037 54.0621 94.3392C54.2339 94.2749 54.3802 94.1895 54.5016 94.083L54.3036 91.8201L55.3629 91.7274L55.8221 96.9752L54.7627 97.0679L54.5778 94.9553C54.3713 95.0706 54.1662 95.1613 53.9627 95.2282C53.7593 95.2953 53.5574 95.3376 53.3571 95.3551C52.8341 95.4009 52.386 95.3157 52.0124 95.0996C51.6389 94.8824 51.4254 94.4703 51.3724 93.8616L51.2174 92.09ZM57.1483 96.8333L56.1433 91.6622L59.9766 90.9171L60.1467 91.7925L57.3571 92.3345L57.5801 93.4807L60.1756 92.9762L60.345 93.8467L57.7493 94.3512L58.0227 95.7587L60.911 95.1972L61.0805 96.0688L57.1483 96.8333ZM64.6878 92.8964L65.7675 92.8506C65.8155 93.4454 65.715 93.9362 65.4647 94.3248C65.2153 94.7119 64.8241 95.0032 64.2927 95.1966C63.6359 95.4357 63.0134 95.4077 62.4273 95.1133C61.8407 94.8176 61.405 94.2803 61.122 93.5026C60.822 92.6785 60.8024 91.9613 61.0616 91.35C61.3211 90.7399 61.797 90.3083 62.4908 90.0558C63.0959 89.8356 63.6531 89.8351 64.1617 90.056C64.4643 90.1846 64.7434 90.4276 65.0006 90.7829L64.0964 91.3798C63.9452 91.1437 63.7493 90.9852 63.5086 90.9046C63.2688 90.8235 63.016 90.8317 62.751 90.9282C62.3844 91.0616 62.1338 91.3018 62.0016 91.6487C61.8691 91.9945 61.9102 92.4624 62.125 93.0527C62.3529 93.6785 62.6269 94.0837 62.9493 94.2667C63.271 94.451 63.6119 94.4772 63.9714 94.3461C64.2377 94.2493 64.4353 94.0822 64.5648 93.8431C64.6951 93.6052 64.7353 93.2889 64.6878 92.8964ZM65.1966 89.2782L66.1604 88.8289L67.1079 90.8607C67.3137 90.739 67.4333 90.6156 67.4675 90.4913C67.5015 90.3672 67.5039 90.0644 67.4725 89.585C67.4314 88.9749 67.483 88.5597 67.6256 88.3405C67.7666 88.1203 68.06 87.9078 68.5045 87.7005C68.5268 87.69 68.5729 87.6674 68.643 87.6319L68.9754 88.3444L68.837 88.4048C68.6404 88.4966 68.5073 88.5883 68.4387 88.6797C68.3705 88.7711 68.3309 88.8805 68.3219 89.0065C68.3118 89.1328 68.3238 89.3762 68.3578 89.7394C68.3755 89.9313 68.3765 90.0986 68.3604 90.2416C68.3428 90.3837 68.2705 90.5446 68.1426 90.7233C68.3856 90.6844 68.6206 90.7239 68.8468 90.8431C69.0728 90.9624 69.3481 91.1519 69.6713 91.4099L70.9331 92.4155L69.8006 92.9437L68.655 91.9757C68.6378 91.962 68.6045 91.9371 68.5522 91.9005C68.5339 91.8874 68.4582 91.8321 68.3275 91.7321C68.0948 91.5549 67.924 91.4558 67.8178 91.4338C67.7112 91.4117 67.5761 91.4381 67.4116 91.5121L68.3866 93.6031L67.4228 94.0525L65.1966 89.2782ZM69.0251 87.6481L69.8787 87.1352L71.6847 90.1409L71.7081 86.036L72.6163 85.4902L75.3295 90.0055L74.4769 90.5179L72.7057 87.57L72.6496 91.6158L71.7382 92.1635L69.0251 87.6481ZM73.318 85.0653L74.1236 84.48L76.1848 87.3167L75.8502 83.2257L76.7076 82.6027L79.8039 86.8644L78.9992 87.4491L76.9777 84.6668L77.2745 88.7021L76.4143 89.327L73.318 85.0653ZM74.7569 82.3991L75.1549 82.1101C75.3233 82.3896 75.3816 82.664 75.3287 82.9314C75.2754 83.2004 75.1203 83.427 74.8622 83.6144C74.6044 83.8017 74.3409 83.8795 74.0694 83.8462C73.7988 83.8139 73.556 83.6735 73.3412 83.4279L73.7401 83.138C73.853 83.2666 73.9767 83.3346 74.1119 83.3455C74.2465 83.3552 74.3936 83.303 74.5522 83.1877C74.7111 83.0722 74.8061 82.9486 74.8384 82.8176C74.8698 82.6856 74.8433 82.5471 74.7569 82.3991ZM78.5792 81.0166L79.3045 80.2391L82.5103 83.2284L83.9172 81.7197L80.7114 78.7303L81.4366 77.9525L84.6425 80.9421L84.9419 80.6208L86.4292 82.0079L85.826 82.6546L84.9856 81.8707L82.4318 84.6094L78.5792 81.0166ZM86.2088 80.5383L82.0019 77.3682L84.3522 74.2493L85.0641 74.7861L83.3538 77.0555L84.2866 77.7581L85.8778 75.6463L86.586 76.1801L84.9946 78.2918L86.1399 79.1548L87.9105 76.8048L88.6197 77.3392L86.2088 80.5383ZM89.3154 76.4624L84.8481 73.6708L85.4122 72.768L87.17 73.8665L88.2743 72.0992L86.5165 71.0008L87.0801 70.0991L91.5474 72.8906L90.9838 73.7923L89.0304 72.5717L87.926 74.339L89.8795 75.5596L89.3154 76.4624ZM92.6173 70.6373L88.6197 68.8573L87.984 70.2848L87.1694 69.9221L88.8722 66.098L89.6868 66.4606L89.0528 67.8847L93.0504 69.6646L92.6173 70.6373ZM94.1422 67.4285L89.1046 65.8883L89.6034 64.2568C89.7924 63.6385 89.9414 63.243 90.0494 63.0707C90.2126 62.8052 90.4509 62.6125 90.764 62.4953C91.0769 62.3781 91.4337 62.3807 91.8338 62.5032C92.1435 62.5978 92.3867 62.7336 92.5622 62.9105C92.7388 63.0877 92.8609 63.28 92.9285 63.4907C92.9954 63.6996 93.0214 63.8998 93.0057 64.0901C92.9796 64.3475 92.8966 64.7069 92.7556 65.1681L92.553 65.8305L94.4532 66.4114L94.1422 67.4285ZM90.2683 65.132L91.6969 65.5688L91.8666 65.0129C91.9894 64.6118 92.0457 64.3353 92.0341 64.1843C92.0227 64.0333 91.9728 63.9026 91.8839 63.7907C91.7947 63.68 91.6762 63.6015 91.5272 63.5559C91.3442 63.5 91.1765 63.5077 91.0238 63.5791C90.8728 63.6495 90.7558 63.7639 90.6764 63.9191C90.6154 64.034 90.5304 64.2748 90.4184 64.6408L90.2683 65.132Z" fill="#2B2B2A"/>
<path d="M50.0008 9.96045C72.0538 9.96045 90.0407 27.9474 90.0407 50.0003C90.0407 72.0533 72.0538 90.0402 50.0008 90.0402C27.9479 90.0402 9.96094 72.0533 9.96094 50.0003C9.96094 27.9474 27.9479 9.96045 50.0008 9.96045ZM50.0008 10.6199C28.3109 10.6199 10.6204 28.3104 10.6204 50.0003C10.6204 71.6903 28.3109 89.3808 50.0008 89.3808C71.6908 89.3808 89.3813 71.6903 89.3813 50.0003C89.3813 28.3104 71.6908 10.6199 50.0008 10.6199Z" fill="#2B2B2A"/>
<path d="M19.0129 36.4439H30.4401C34.1501 36.4768 36.6202 38.7103 37.7109 41.521C38.114 42.5597 38.3219 43.6657 38.3269 44.7517C38.332 45.8532 38.1301 46.965 37.7135 47.9988C37.5081 48.5084 37.254 48.9949 36.9512 49.4493C38.3277 50.3904 39.2913 51.7477 39.8711 53.3C40.3017 54.4537 40.5038 55.6892 40.4911 56.9105C40.4786 58.1242 40.2604 59.3543 39.8511 60.5042C38.6931 63.7575 36.0393 66.3693 32.1514 66.4032H32.1332H15.5278L13.6882 61.7683C17.1441 61.7683 20.5998 61.7681 24.0557 61.7681C26.5234 61.7681 29.0289 61.7683 32.1155 61.7683C33.7643 61.7536 34.9374 60.5122 35.488 58.9653C35.7234 58.304 35.8488 57.5881 35.8561 56.8743C35.8634 56.1683 35.7619 55.4946 35.5441 54.9114C35.0781 53.6638 33.9803 52.7155 32.1437 52.7155C31.6282 52.7103 30.9457 52.7155 30.4067 52.7155H22.7012V48.0805H26.5242C27.5967 48.0805 28.6947 48.0807 30.4067 48.0807C32.0291 48.0807 33.0119 47.2981 33.4226 46.279C33.6058 45.824 33.6945 45.3065 33.6921 44.7698C33.6897 44.2175 33.5916 43.6752 33.402 43.1866C32.9491 42.0195 31.9297 41.0924 30.4039 41.0788H17.3673C16.5865 43.9225 16.1682 46.914 16.1682 50C16.1682 53.1262 16.597 56.1554 17.3974 59.033H12.8089C12.1031 56.135 11.7285 53.1099 11.7285 50C11.7285 28.9209 28.921 11.7285 50 11.7285C60.541 11.7285 70.1094 16.0261 77.0416 22.9584C80.4652 26.3821 83.2456 30.4491 85.1837 34.9583H80.2908C78.6463 31.6656 76.4806 28.6756 73.9025 26.0975C67.7732 19.968 59.3154 16.1682 50 16.1682C36.1824 16.1682 24.2559 24.5262 19.0129 36.4439Z" fill="#323C8D"/>
<path d="M86.5029 61.49C81.6039 76.9848 67.0783 88.2715 49.9996 88.2715C39.4588 88.2715 29.8903 83.9737 22.9582 77.0416C22.1694 76.2528 21.4154 75.4293 20.6973 74.5747H26.7899C32.8561 80.308 41.0302 83.8318 49.9996 83.8318C63.1381 83.8318 74.5665 76.2745 80.1656 65.2862C78.1944 66.108 76.0571 66.5533 73.902 66.5533C69.5694 66.5533 65.6281 64.8477 62.765 62.0966C59.88 59.3242 58.0913 55.4945 58.0913 51.2727C58.0913 47.0512 59.88 43.2214 62.765 40.4491C65.6281 37.6978 69.5694 35.9922 73.902 35.9922C76.1424 35.9922 78.3882 36.4823 80.4381 37.3802C82.4927 38.2804 84.3483 39.59 85.8044 41.2274L82.46 44.2041C81.4301 43.0459 80.1131 42.1177 78.6521 41.4777C77.1712 40.8289 75.539 40.4747 73.902 40.4747C70.761 40.4747 67.9174 41.6979 65.8643 43.6708C63.8331 45.6226 62.5738 48.3127 62.5738 51.2727C62.5738 54.2328 63.8331 56.9229 65.8643 58.8747C67.9174 60.8476 70.761 62.0708 73.902 62.0708C75.5818 62.0708 77.2299 61.7095 78.7187 61.0454C80.2131 60.3784 81.5531 59.4124 82.6101 58.2063L83.032 58.5754L86.5029 61.49Z" fill="#1E5E3F"/>
<path d="M16.3828 67.9656H38.3031L40.0705 62.3681L41.5984 64.6597L45.7158 35.0188H22.9775L23.2704 32.7444L31.7078 27.7113L67.1852 23.7647L68.4843 23.6245L69.0754 24.795L72.8219 32.2158L74.2104 34.966H53.869L58.3128 72.7028L60.6313 66.3454L61.0882 65.0926H67.1733C69.218 66.0291 71.5006 66.5534 73.9033 66.5534C76.0528 66.5534 78.1842 66.1106 80.1512 65.2928L79.0278 67.2955H61.5714L55.7965 82.856L55.4791 81.0474L49.8546 33.2833L49.8202 32.9917L49.7662 33.3807L43.7927 76.5621L41.019 67.1272L38.9197 73.7935L36.6582 70.0996C30.8454 70.0994 23.4141 70.0994 17.6013 70.0996C17.1671 69.4131 16.8795 68.8394 16.3828 67.9656ZM66.4159 27.9272L64.3082 31.173C65.5548 31.1719 66.8036 31.1708 68.0535 31.1708L66.4159 27.9272ZM59.9745 31.1784L56.8595 28.6864L53.3905 29.0605L49.2024 31.2009C52.7907 31.1928 56.3786 31.1842 59.9745 31.1784ZM42.1683 31.2154L40.6522 30.4336L33.3215 31.2237C36.2784 31.2237 39.2255 31.2205 42.1683 31.2154ZM42.9076 30.1904L44.8854 31.2104C45.4033 31.2093 45.9215 31.2082 46.4392 31.207L49.9039 29.4362L42.9076 30.1904ZM58.6281 28.4958L61.9775 31.1754C62.2575 31.1751 62.5377 31.1749 62.8177 31.1745L65.0034 27.8087L58.6281 28.4958Z" fill="#BE2B2F"/>
</svg>
