<svg width="189" height="78" viewBox="0 0 189 78" fill="none" xmlns="http://www.w3.org/2000/svg">
<path d="M0.402588 57.2892C0.402588 55.9897 0.640172 54.8225 1.11801 53.7942C1.57746 52.7864 2.24996 51.8927 3.08809 51.1762C3.96538 50.4386 4.97635 49.8808 6.06457 49.534C7.21111 49.1562 8.46711 48.9672 9.83255 48.9672C11.198 48.9672 12.4593 49.1562 13.6206 49.534C14.7791 49.9132 15.7774 50.4597 16.6144 51.1762C17.45 51.8907 18.1167 52.7852 18.5658 53.7942C19.029 54.8225 19.2625 55.9884 19.2625 57.2892V69.128H14.8553V58.4228C14.8553 56.6523 14.4308 55.3056 13.5805 54.3798C12.7303 53.4541 11.481 52.9926 9.83255 52.9926C8.15745 52.9926 6.90145 53.4541 6.06457 54.3798C5.22636 55.3042 4.80724 56.6523 4.80724 58.4228V69.128H0.402588V57.2906V57.2892ZM31.8705 65.7301C32.7071 65.7382 33.5363 65.572 34.3065 65.2415C35.0335 64.9297 35.6859 64.4636 36.2191 63.8745C36.7477 63.2875 37.1588 62.6102 37.4564 61.841C37.7514 61.0744 37.8995 60.2351 37.8995 59.3229C37.8995 58.4106 37.7528 57.5578 37.4564 56.763C37.1808 56.0039 36.7603 55.307 36.2191 54.7118C35.6813 54.1332 35.0298 53.6744 34.3065 53.365C33.5362 53.0351 32.7071 52.8688 31.8705 52.8766C30.9695 52.8766 30.1514 53.0386 29.4173 53.365C28.7013 53.6774 28.057 54.1359 27.5246 54.7118C26.983 55.3068 26.5625 56.0038 26.2872 56.763C25.9864 57.5818 25.8358 58.4493 25.8428 59.3229C25.8428 60.2351 25.9897 61.0744 26.2872 61.8423C26.5822 62.6102 26.9961 63.2875 27.5246 63.8745C28.0504 64.4603 28.6832 64.9164 29.4173 65.2415C30.1514 65.5681 30.9695 65.7301 31.8705 65.7301ZM31.8705 48.9686C33.3655 48.9686 34.7643 49.229 36.0656 49.7486C37.3218 50.2427 38.4702 50.9802 39.4466 51.9197C40.404 52.8503 41.1665 53.9658 41.6889 55.2003C42.2295 56.4661 42.4991 57.8371 42.4991 59.3229C42.5104 60.726 42.2341 62.1164 41.6876 63.4064C41.1655 64.6413 40.4029 65.7574 39.4452 66.6882C38.4671 67.6287 37.32 68.3713 36.0656 68.8756C34.7321 69.4162 33.3072 69.6884 31.8705 69.6772C30.4347 69.6883 29.0107 69.4161 27.678 68.8756C26.4231 68.3725 25.2754 67.6304 24.2972 66.6895C23.3388 65.7588 22.5761 64.6421 22.0549 63.4064C21.5084 62.1164 21.2321 60.726 21.2433 59.3229C21.2433 57.8385 21.5142 56.4661 22.0549 55.2016C22.5763 53.9664 23.3391 52.8501 24.2972 51.9197C25.2731 50.9798 26.4217 50.2421 27.678 49.7486C29.0144 49.2219 30.4377 48.9572 31.8719 48.9686H31.8705ZM44.4812 56.5092C44.4812 54.114 45.2086 52.2559 46.6649 50.9414C48.1197 49.6271 50.1364 48.9686 52.7139 48.9686C54.337 48.9686 55.6569 49.198 56.6754 49.6527C57.6925 50.1075 58.2023 50.8038 58.2023 51.7417C58.2023 52.1856 58.0796 52.6162 57.8354 53.0317C57.5884 53.4501 57.3895 53.7105 57.2347 53.8144C56.7101 53.5748 56.1674 53.3785 55.6116 53.2274C54.8932 53.0358 54.1522 52.9436 53.4093 52.9535C50.3955 52.9535 48.8885 54.5688 48.8885 57.798V69.128H44.4812V56.5092ZM74.4703 59.3229C74.4703 58.4376 74.322 57.6023 74.0257 56.821C73.7496 56.0728 73.3365 55.3839 72.8084 54.7901C72.2846 54.2117 71.6454 53.7522 70.9331 53.442C70.1711 53.1113 69.3491 52.9449 68.5199 52.9535C67.6163 52.9535 66.8047 53.1168 66.084 53.442C65.379 53.7562 64.7418 54.2075 64.2087 54.7698C63.6694 55.3487 63.2552 56.0348 62.9927 56.7846C62.7031 57.5985 62.559 58.458 62.567 59.3229C62.567 60.2351 62.7084 61.0744 62.9927 61.8423C63.2578 62.5791 63.6687 63.2537 64.2002 63.8246C64.7316 64.3957 65.3726 64.8511 66.084 65.1633C66.8047 65.4899 67.6163 65.6518 68.5199 65.6518C69.3929 65.6518 70.2003 65.4953 70.9331 65.1835C71.6403 64.8903 72.2791 64.4509 72.8084 63.8935C73.3411 63.3174 73.755 62.6399 74.0257 61.9003C74.3291 61.076 74.4798 60.2024 74.4703 59.3229ZM74.4703 42.4035C74.4703 41.7018 74.6705 41.1795 75.0708 40.8408C75.4686 40.5034 76.0412 40.3334 76.7887 40.3334C77.2532 40.3334 77.6777 40.3929 78.0647 40.5088C78.4518 40.6262 78.708 40.7113 78.8388 40.7638V58.385C78.8388 60.2863 78.5719 61.9395 78.0446 63.3456C77.5161 64.753 76.79 65.9243 75.861 66.8623C74.9322 67.8006 73.8109 68.5211 72.5762 68.9728C71.315 69.4411 69.9347 69.6759 68.4412 69.6759C66.9195 69.6759 65.5234 69.4154 64.2474 68.8932C63.0178 68.4024 61.8955 67.6725 60.9439 66.7449C60.0021 65.8136 59.2588 64.6972 58.7602 63.4643C58.2251 62.1508 57.956 60.7421 57.9688 59.3215C57.9688 57.8115 58.2197 56.4243 58.7229 55.1612C59.1988 53.9395 59.9077 52.8244 60.8092 51.8793C61.6968 50.9549 62.7619 50.2233 63.9391 49.7297C65.1377 49.2222 66.4445 48.9672 67.8632 48.9672C69.3555 48.9672 70.6702 49.2613 71.8047 49.8456C72.9366 50.4327 73.8268 51.1425 74.4703 51.9778V42.4035ZM91.2427 65.4561C92.0642 65.4672 92.8793 65.3073 93.6372 64.9865C94.3365 64.6902 94.9681 64.2515 95.4924 63.6978C96.0196 63.1324 96.4331 62.4687 96.7097 61.7438C97.0034 60.9882 97.1542 60.1555 97.1542 59.2432C97.1542 58.3581 97.0047 57.5321 96.7097 56.763C96.4327 56.0265 96.0196 55.3502 95.4924 54.7698C94.9714 54.207 94.3394 53.761 93.6372 53.4609C92.8787 53.1419 92.064 52.9825 91.2427 52.9926C90.339 52.9926 89.5208 53.1545 88.7867 53.4811C88.0525 53.805 87.4266 54.2557 86.9127 54.8279C86.3921 55.4094 85.9858 56.0859 85.7155 56.821C85.4292 57.5955 85.2853 58.4164 85.291 59.2432C85.291 61.1189 85.8315 62.6223 86.9127 63.7544C87.9952 64.8893 89.4367 65.4561 91.2427 65.4561ZM83.8975 72.4894C84.5384 72.791 85.2049 73.0331 85.889 73.2128C86.4175 73.3545 87.0368 73.4786 87.7443 73.5839C88.4516 73.6878 89.2191 73.739 90.044 73.739C90.9152 73.7403 91.7839 73.6425 92.6335 73.4476C93.4588 73.2629 94.236 72.9027 94.9131 72.391C95.5832 71.8835 96.1291 71.1737 96.5549 70.2602C96.9807 69.3493 97.1943 68.178 97.1943 66.7449V66.2779C96.6003 66.9797 95.7447 67.6437 94.6235 68.2697C93.5023 68.8945 92.1556 69.2076 90.586 69.2076C89.1417 69.2076 87.815 68.9674 86.6044 68.4843C85.435 68.0303 84.3698 67.3391 83.4745 66.4534C82.5835 65.5595 81.8859 64.4883 81.4255 63.3077C80.9358 62.0839 80.6914 60.7303 80.6914 59.2446C80.6914 57.7603 80.9544 56.3918 81.483 55.141C81.9894 53.9234 82.7319 52.8208 83.6667 51.8983C84.5942 50.9874 85.7088 50.2707 87.0102 49.7486C88.3115 49.229 89.7344 48.9672 91.2813 48.9672C92.7495 48.9672 94.1083 49.1899 95.3577 49.6312C96.5804 50.0585 97.6955 50.7523 98.6238 51.6635C99.5514 52.5756 100.272 53.7349 100.787 55.141C101.303 56.5471 101.562 58.2028 101.562 60.1042V65.7301C101.562 67.7867 101.284 69.5517 100.73 71.024C100.176 72.4949 99.4112 73.6999 98.4316 74.6378C97.4367 75.584 96.2396 76.2859 94.9332 76.6889C93.581 77.1181 92.1035 77.3327 90.5085 77.3327C88.7643 77.3469 87.0249 77.144 85.3297 76.728C84.6597 76.5581 84.1058 76.3908 83.6679 76.2193C83.3399 76.0973 83.0175 75.9604 82.7016 75.8091L83.8975 72.4894ZM114.04 65.7301C114.917 65.7301 115.727 65.5681 116.476 65.2415C117.203 64.9297 117.855 64.4636 118.389 63.8745C118.916 63.2875 119.328 62.6102 119.625 61.841C119.92 61.0744 120.07 60.2351 120.07 59.3229C120.07 58.4106 119.92 57.5578 119.625 56.763C119.349 56.0042 118.929 55.3073 118.389 54.7118C117.851 54.1332 117.199 53.6745 116.476 53.365C115.706 53.0349 114.877 52.8685 114.04 52.8766C113.138 52.8766 112.321 53.0386 111.587 53.365C110.871 53.6778 110.226 54.1362 109.693 54.7118C109.151 55.3065 108.731 56.0035 108.457 56.763C108.156 57.5819 108.005 58.4493 108.012 59.3229C108.012 60.2351 108.16 61.0744 108.457 61.8423C108.752 62.6102 109.164 63.2875 109.693 63.8745C110.221 64.4603 110.853 64.9164 111.587 65.2415C112.321 65.5681 113.138 65.7301 114.04 65.7301ZM114.04 48.9686C115.535 48.9686 116.932 49.229 118.234 49.7486C119.49 50.2425 120.639 50.9801 121.615 51.9197C122.572 52.8501 123.335 53.9658 123.857 55.2003C124.398 56.4661 124.667 57.8371 124.667 59.3229C124.667 60.7817 124.396 62.1433 123.857 63.4064C123.335 64.6413 122.572 65.7574 121.615 66.6882C120.636 67.629 119.489 68.3715 118.234 68.8756C116.901 69.4161 115.476 69.6883 114.04 69.6772C112.605 69.6882 111.181 69.4159 109.849 68.8756C108.593 68.3724 107.445 67.6303 106.465 66.6895C105.49 65.7346 104.716 64.5895 104.192 63.3235C103.667 62.0575 103.402 60.6969 103.413 59.3242C103.413 57.8385 103.684 56.4647 104.226 55.2003C104.747 53.966 105.509 52.8503 106.465 51.9197C107.442 50.98 108.591 50.2424 109.848 49.7486C111.183 49.2219 112.606 48.9572 114.04 48.9686ZM126.843 42.4048C126.843 41.7004 127.05 41.1809 127.462 40.8408C127.873 40.5034 128.453 40.3334 129.201 40.3334C129.665 40.3334 130.089 40.3929 130.477 40.5088C130.863 40.6262 131.121 40.7113 131.249 40.7638V69.1293H126.844V42.4022L126.843 42.4048ZM149.968 59.3229C149.968 58.4376 149.818 57.6023 149.522 56.821C149.245 56.0729 148.833 55.384 148.306 54.7901C147.781 54.2122 147.142 53.7528 146.431 53.442C145.668 53.1108 144.845 52.9445 144.015 52.9535C143.113 52.9535 142.302 53.1168 141.581 53.442C140.858 53.7686 140.233 54.2112 139.706 54.7698C139.167 55.349 138.752 56.0351 138.489 56.7846C138.199 57.5986 138.055 58.458 138.063 59.3229C138.063 60.2351 138.206 61.0744 138.489 61.8423C138.772 62.6115 139.179 63.274 139.706 63.8354C140.233 64.3955 140.859 64.8381 141.581 65.1633C142.302 65.4899 143.113 65.6518 144.015 65.6518C144.891 65.6518 145.696 65.4953 146.431 65.1835C147.138 64.8902 147.777 64.4507 148.306 63.8935C148.819 63.3456 149.225 62.6816 149.522 61.9003C149.825 61.0763 149.977 60.2025 149.968 59.3229ZM149.968 42.4035C149.968 41.7018 150.166 41.1795 150.565 40.8408C150.965 40.5034 151.536 40.3334 152.285 40.3334C152.75 40.3334 153.175 40.3929 153.561 40.5088C153.947 40.6262 154.205 40.7113 154.335 40.7638V58.385C154.335 60.2863 154.07 61.9395 153.542 63.3456C153.012 64.753 152.285 65.9243 151.357 66.8623C150.429 67.8009 149.306 68.5214 148.072 68.9728C146.811 69.4411 145.431 69.6759 143.939 69.6759C142.417 69.6759 141.019 69.4154 139.745 68.8932C138.515 68.4023 137.393 67.6724 136.441 66.7449C135.5 65.813 134.757 64.6968 134.257 63.4643C133.722 62.1509 133.452 60.7421 133.465 59.3215C133.465 57.8115 133.718 56.4243 134.219 55.1612C134.696 53.9401 135.405 52.8251 136.306 51.8793C137.194 50.9548 138.26 50.2232 139.438 49.7297C140.635 49.2222 141.942 48.9672 143.36 48.9672C144.852 48.9672 146.167 49.2613 147.302 49.8456C148.435 50.4327 149.325 51.1425 149.968 51.9778V42.4035Z" fill="black"/>
<path d="M161.37 13.5L168.49 0.333374L175.608 13.5C175.608 13.5 171.751 12.0887 168.488 12.0887C164.642 12.0887 161.37 13.5 161.37 13.5Z" fill="#E9A844"/>
<path d="M161.37 13.5L168.49 0.333374L175.608 13.5C175.608 13.5 171.751 12.0887 168.488 12.0887C164.642 12.0887 161.37 13.5 161.37 13.5Z" fill="#E9A844"/>
<path d="M161.491 27.8185L148.472 20.66L161.491 13.5013C161.491 13.5013 160.096 17.38 160.096 20.66C160.096 24.5278 161.491 27.8198 161.491 27.8198V27.8185ZM175.648 27.8266L168.573 41L161.5 27.8266C161.5 27.8266 165.333 29.2385 168.573 29.2385C172.394 29.2385 175.648 27.8266 175.648 27.8266ZM175.653 13.5L188.672 20.6613L175.653 27.8172C175.653 27.8172 177.05 23.9399 177.05 20.6586C177.05 16.792 175.653 13.5 175.653 13.5Z" fill="#8CA243"/>
</svg>
