<svg width="144" height="76" viewBox="0 0 144 76" fill="none" xmlns="http://www.w3.org/2000/svg">
<path fill-rule="evenodd" clip-rule="evenodd" d="M2.06174 0.5L143.523 0.51359L143.52 3.65457C115.498 3.65457 88.4559 3.65457 60.5722 3.65457C48.7405 3.98076 42.6488 8.94683 40.1172 21.6712H39.5049C36.1102 9.11854 29.7801 4.21507 20.3561 3.66328L2.06079 3.65639L2.06174 0.501052V0.5Z" fill="#0994DC"/>
<path fill-rule="evenodd" clip-rule="evenodd" d="M2.06174 12.0132L143.523 12.0268L143.52 15.1679C115.498 15.1679 88.4559 15.1679 60.5722 15.1679C48.7405 15.4939 42.6488 20.4598 40.1172 33.1851H39.5049C36.1102 20.6321 29.7801 15.7283 20.3561 15.1765L2.06079 15.1697L2.06174 12.014V12.0132Z" fill="#231F20"/>
<path fill-rule="evenodd" clip-rule="evenodd" d="M2.06174 24.3325L143.523 24.344L143.52 27.4853C115.498 27.4853 88.4559 27.4853 60.5722 27.4853C48.7405 27.8117 42.6488 32.7783 40.1172 45.5027H39.5049C36.1102 32.9497 29.7801 28.0462 20.3561 27.4939L2.06079 27.4863L2.06174 24.3306V24.3325Z" fill="#0994DC"/>
<path fill-rule="evenodd" clip-rule="evenodd" d="M24.7034 75.007H19.6218L9.30394 60.3598L4.50016 64.9684V75.007H0.64502V46.0303H4.50016V60.4009L18.9721 46.0303H24.168L11.9798 57.7697L24.7034 75.007ZM49.7363 75.007H28.002V46.0303H49.0596V49.4703H31.8504V58.3229H47.9486V61.7639H31.8504V71.566H49.7363V75.007ZM80.9157 70.9525C77.2499 73.9886 73.2391 75.4999 68.8899 75.4999C64.4321 75.4999 60.8346 74.1513 58.104 71.4387C55.3666 68.7329 54.0047 65.1302 54.0047 60.6364C54.0047 57.897 54.5602 55.3405 55.679 52.9792C56.7968 50.6112 58.4423 48.7821 60.6241 47.4804C62.7991 46.1854 65.4625 45.5374 68.6121 45.5374C71.8781 45.5374 74.5001 46.2524 76.4781 47.6823C78.4561 49.1133 79.7902 51.2525 80.4822 54.1125L77.0269 55.084C76.4848 52.9993 75.5093 51.4343 74.106 50.3882C72.7037 49.342 70.8746 48.8166 68.6121 48.8166C65.103 48.8166 62.4599 49.8818 60.6721 52.0211C58.8835 54.1526 57.9886 56.9466 57.9886 60.4009C57.9886 62.9842 58.4221 65.1302 59.2891 66.8435C60.157 68.5577 61.4439 69.8527 63.1452 70.7305C64.8454 71.6072 66.6946 72.0456 68.6938 72.0456C71.7349 72.0456 74.5674 71.0473 77.1826 69.0564V63.6791H68.6121V60.2248H80.9157V70.9525ZM99.3773 45.5374C103.449 45.5374 106.789 46.9137 109.377 49.6665C111.972 52.4193 113.273 56.0488 113.273 60.556C113.273 65.0498 111.965 68.6659 109.357 71.3976C106.755 74.1369 103.423 75.4999 99.3773 75.4999C95.1838 75.4999 91.8093 74.0833 89.2555 71.2492C86.7018 68.4161 85.4206 64.9608 85.4206 60.8728C85.4206 56.1167 86.7143 52.3724 89.3026 49.6397C91.891 46.9003 95.2444 45.5374 99.3773 45.5374ZM99.3369 72.2207C102.291 72.2207 104.682 71.1956 106.511 69.1378C108.348 67.0799 109.269 64.219 109.283 60.556C109.283 56.7915 108.348 53.8904 106.471 51.8593C104.601 49.835 102.25 48.8166 99.4186 48.8166C96.5044 48.8166 94.1064 49.8149 92.2302 51.8057C90.3531 53.7889 89.4112 56.8451 89.4112 60.9541C89.4112 64.3137 90.333 67.033 92.1687 69.1043C94.0112 71.1822 96.3958 72.2207 99.3369 72.2207ZM142.907 65.8193C142.061 69.0698 140.577 71.499 138.469 73.0984C136.355 74.7036 133.828 75.4999 130.874 75.4999C126.111 75.4999 122.643 74.0154 120.468 71.0473C118.287 68.0715 117.203 64.4965 117.203 60.3195C117.203 55.6984 118.483 52.0747 121.044 49.4569C123.605 46.8467 126.891 45.5374 130.915 45.5374C133.747 45.5374 136.173 46.2524 138.178 47.69C140.19 49.1267 141.599 51.2314 142.405 53.9976L138.639 54.8887C138.002 52.871 137.033 51.353 135.739 50.3413C134.445 49.3219 132.819 48.8166 130.874 48.8166C127.703 48.8166 125.292 49.856 123.652 51.934C122.013 54.0053 121.193 56.7915 121.193 60.2794C121.193 64.3137 122.053 67.3096 123.782 69.2727C125.509 71.2358 127.758 72.2207 130.536 72.2207C132.812 72.2207 134.661 71.6072 136.084 70.3792C137.507 69.1579 138.502 67.3096 139.072 64.8469L142.907 65.8193Z" fill="#231F20"/>
</svg>
