<svg width="124" height="93" viewBox="0 0 124 93" fill="none" xmlns="http://www.w3.org/2000/svg">
<g clip-path="url(#clip0_1864_14897)">
<path fill-rule="evenodd" clip-rule="evenodd" d="M61.1087 72.1165L61.121 38.3144H43.1557C43.4108 56.4881 51.3008 71.264 61.1087 72.1165ZM61.121 36.5279V2.72574C51.3008 3.56599 43.4108 18.3526 43.1557 36.5279H61.121ZM62.8914 2.72574L62.8791 36.5279H80.8445C80.5894 18.3526 72.6994 3.57828 62.8914 2.72574ZM62.8791 38.3144V72.1165C72.6994 71.2747 80.5894 56.4881 80.8445 38.3144H62.8791ZM69.7856 3.54295C85.2751 6.97616 96.9703 20.4202 97.3975 36.5279H82.6595C82.452 21.6353 77.1777 8.89323 69.7856 3.54295ZM41.3392 36.5279H26.6011C27.0299 20.4202 38.7266 6.97616 54.2146 3.54295C46.8225 8.89169 41.5482 21.6353 41.3392 36.5279ZM97.3975 38.3144C96.9703 54.4205 85.2751 67.8645 69.7856 71.2993C77.1777 65.949 82.452 53.207 82.661 38.3144H97.399H97.3975ZM54.2146 71.2993C38.7251 67.8645 27.0299 54.4205 26.6027 38.3144H41.3407C41.5482 53.207 46.8225 65.949 54.2146 71.2993ZM78.1028 4.44311C98.1736 8.93931 112.83 21.5769 113.397 36.5279H99.2371C98.8897 22.4187 90.342 10.2343 78.1028 4.44311ZM24.7631 36.5279H10.6029C11.1716 21.5769 25.8266 8.93931 45.8974 4.44311C33.6582 10.2343 25.1104 22.4187 24.7631 36.5279ZM113.397 38.3144C112.829 53.2531 98.1736 65.9029 78.1028 70.3991C90.342 64.6064 98.8897 52.4236 99.2371 38.3144H113.397ZM45.8974 70.3991C25.8266 65.9029 11.17 53.2531 10.6029 38.3144H24.7631C25.1104 52.4236 33.6582 64.6064 45.8974 70.3991ZM62.0001 0.833252C95.8591 0.833252 123.473 17.2666 123.473 37.4265C123.473 57.5741 95.8591 74.009 62.0001 74.009C28.141 74.009 0.527588 57.5741 0.527588 37.4265C0.527588 17.2666 28.141 0.833252 62.0001 0.833252ZM2.3902 36.5279H8.79871C9.21519 24.8119 17.7061 14.4278 30.5692 7.92241C14.0731 13.9148 2.92194 24.474 2.3902 36.5279ZM115.201 36.5279H121.61C121.078 24.474 109.927 13.9271 93.431 7.92241C106.294 14.4294 114.785 24.8119 115.201 36.5279ZM121.61 38.3144H115.201C114.785 50.0288 106.294 60.4129 93.431 66.9075C109.927 60.9152 121.078 50.3682 121.61 38.3144ZM8.79871 38.3144H2.3902C2.92194 50.3682 14.0731 60.9152 30.5692 66.9075C17.7061 60.4129 9.21519 50.0288 8.79871 38.3144Z" fill="#006CB5"/>
<path fill-rule="evenodd" clip-rule="evenodd" d="M21.7202 18.8442C22.9696 18.8442 24.3005 18.9257 24.6248 19.1008C24.9598 19.2759 25.1673 19.2882 25.7113 20.2452L25.9879 21.0977C28.118 30.1608 30.5815 41.2223 32.71 50.2869C33.1956 51.7923 33.4169 51.992 33.7965 52.4835C34.5833 53.0903 35.5899 53.0903 36.3076 53.0903H87.3114C88.0168 53.0442 89.3477 52.6802 89.9485 52.2608C90.4111 51.8399 90.886 51.2209 91.1058 50.2869C93.222 41.2238 95.9529 30.1623 98.0691 21.11C98.1224 20.8361 98.2081 20.5696 98.3242 20.3158C98.4978 19.9533 98.9712 19.2298 99.5736 19.0071C100.162 18.8688 102.048 18.8688 102.28 18.8442C102.28 31.5402 102.245 43.3959 102.245 56.0919C102.083 57.2132 101.227 58.439 100.533 58.7785C99.2032 59.4314 97.9538 59.7939 96.1957 59.9813C73.4755 59.992 50.7568 60.0166 28.0242 60.0397C25.9895 59.8999 24.2191 59.4099 23.0619 58.8476C22.4149 58.5205 21.7786 57.2823 21.7202 56.1379V18.8442Z" fill="#FEFEFE"/>
<path fill-rule="evenodd" clip-rule="evenodd" d="M28.2563 15.9593H95.5933C93.2113 25.8626 91.0244 37.2867 88.6408 47.1792C88.4243 47.7728 88.1286 48.3345 87.7617 48.849C87.3575 49.3636 86.6291 49.7845 85.9329 49.7845H37.4419C36.6781 49.6677 36.5505 49.7614 35.8221 49.1654C35.1274 48.4757 34.9307 48.0318 34.7233 47.1562L28.2563 15.9578V15.9593Z" fill="#FEFEFE"/>
<path fill-rule="evenodd" clip-rule="evenodd" d="M21.7202 18.8442C22.9696 18.8442 24.3005 18.9257 24.6248 19.1008C24.9598 19.2759 25.1673 19.2882 25.7113 20.2452L25.9879 21.0977C28.118 30.1608 30.5815 41.2223 32.71 50.2869C33.1956 51.7923 33.4169 51.992 33.7965 52.4835C34.5833 53.0903 35.5899 53.0903 36.3076 53.0903H87.3114C88.0168 53.0442 89.3477 52.6802 89.9485 52.2608C90.4111 51.8399 90.886 51.2209 91.1058 50.2869C93.222 41.2238 95.9529 30.1623 98.0691 21.11C98.1224 20.8361 98.2081 20.5696 98.3242 20.3158C98.4978 19.9533 98.9712 19.2298 99.5736 19.0071C100.162 18.8688 102.048 18.8688 102.28 18.8442C102.28 31.5402 102.245 43.3959 102.245 56.0919C102.083 57.2132 101.227 58.439 100.533 58.7785C99.2032 59.4314 97.9538 59.7939 96.1957 59.9813C73.4755 59.992 50.7568 60.0166 28.0242 60.0397C25.9895 59.8999 24.2191 59.4099 23.0619 58.8476C22.4149 58.5205 21.7786 57.2823 21.7202 56.1379V18.8442Z" fill="black"/>
<path fill-rule="evenodd" clip-rule="evenodd" d="M28.2562 15.9593H95.5932C93.2111 25.8626 91.0242 37.2867 88.6406 47.1792C88.4241 47.7728 88.1284 48.3345 87.7616 48.849C87.3574 49.3636 86.629 49.7845 85.9328 49.7845H37.4417C36.6779 49.6677 36.5504 49.7614 35.8219 49.1654C35.1273 48.4757 34.9306 48.0318 34.7231 47.1562L28.2562 15.9578V15.9593ZM117.782 92.9876L118.811 90.582C116.614 90.536 114.207 90.2088 112.286 89.1688C110.632 88.2687 109.567 86.9384 109.567 85.0582C109.567 84.0643 109.961 83.2348 110.84 82.6987C111.847 82.0904 113.362 81.9737 114.519 81.9737H118.521L117.468 79.5681H113.119C110.909 79.5681 108.238 79.8953 106.501 81.3439C105.334 82.3239 104.86 83.5866 104.86 85.0582C104.86 87.5467 105.959 89.4254 108.087 90.8278C110.666 92.5099 113.952 92.9876 117.006 92.9876H117.782ZM102.43 92.9876V79.5681H97.3405V84.8001L90.2143 79.5681H85.1367V92.9876H90.2266L90.2958 83.5866L97.3405 89.006V92.9876H102.43ZM82.1276 92.9876V79.5681H77.0377V92.9876H82.1276ZM74.817 79.5681H61.665L60.6461 81.9737H67.6232L59.8254 92.9876H73.6721L74.7018 90.582H67.0208L74.817 79.5681ZM58.2748 79.5681H45.1227L44.0931 81.9737H51.0794L43.2832 92.9876H57.1298L58.1595 90.582H50.4785L58.2748 79.5681ZM41.107 92.9876V81.9629L36.0048 82.0551V85.7694H29.1583L29.3427 85.4668C29.8745 84.625 30.5814 83.7494 31.4712 83.2241C33.2539 82.1841 35.8096 81.9737 37.8336 81.9737L41.0963 81.9383L41.0609 79.5681H38.227C36.2031 79.5681 34.0285 79.6142 32.0275 79.9184C30.211 80.1979 28.3592 80.7356 26.7978 81.7049C25.5944 82.4652 24.6693 83.4683 24.1253 84.7418C23.6396 85.8631 23.489 87.1243 23.489 88.3163C23.489 89.5544 23.8133 90.7218 24.3681 91.8202L25.075 92.9999H30.5461C30.0762 92.499 29.6756 91.9374 29.355 91.3301C28.9435 90.573 28.725 89.7263 28.7188 88.8647H36.0064V92.9876H41.1086H41.107ZM20.921 79.5681H15.3116L10.3139 85.5713L16.017 92.9876H22.0444L15.8787 85.4299L20.9225 79.5681H20.921ZM10.2801 92.9876V79.5681H5.19019V92.9876H10.2801Z" fill="black"/>
<path fill-rule="evenodd" clip-rule="evenodd" d="M36.0188 81.7864H41.1087V82.2426H36.0188V81.7879V81.7864Z" fill="black"/>
</g>
<defs>
<clipPath id="clip0_1864_14897">
<rect width="122.945" height="92.1667" fill="white" transform="translate(0.527588 0.833252)"/>
</clipPath>
</defs>
</svg>
