<svg width="128" height="40" viewBox="0 0 128 40" fill="none" xmlns="http://www.w3.org/2000/svg">
<path d="M95.9431 38.6913C96.3656 38.6913 96.7007 38.4877 96.8893 38.1574H96.8978V38.6418H97.3653V34.6714H96.8753V36.2452H96.8639C96.6894 35.9315 96.3514 35.7306 95.9318 35.7306C95.194 35.7306 94.6899 36.314 94.6899 37.211C94.6899 38.1079 95.1968 38.6913 95.9431 38.6913ZM96.036 36.1516C96.5401 36.1516 96.8781 36.5726 96.8781 37.211C96.8781 37.8521 96.5401 38.2703 96.036 38.2703C95.5178 38.2703 95.1912 37.8603 95.1912 37.211C95.1912 36.5644 95.5178 36.1516 96.036 36.1516ZM98.0524 38.6418H98.5424V35.7802H98.0524V38.6418ZM98.2974 35.2987C98.4664 35.2987 98.6044 35.1639 98.6044 35.0015C98.6044 34.8364 98.4664 34.7043 98.2974 34.7043C98.1313 34.7043 97.9933 34.8364 97.9933 35.0015C97.9933 35.1639 98.1313 35.2987 98.2974 35.2987ZM100.395 38.2427C99.8913 38.2427 99.5618 37.841 99.5618 37.2C99.5618 36.5589 99.8913 36.1516 100.395 36.1516C100.905 36.1516 101.246 36.5699 101.246 37.2C101.246 37.83 100.905 38.2427 100.395 38.2427ZM100.412 39.7204C101.221 39.7204 101.736 39.2663 101.736 38.584V35.7802H101.268V36.2618H101.26C101.066 35.9288 100.722 35.7306 100.308 35.7306C99.5505 35.7306 99.0605 36.303 99.0605 37.2C99.0605 38.0887 99.5505 38.6637 100.297 38.6637C100.708 38.6637 101.054 38.4602 101.235 38.1493H101.246V38.6005C101.246 39.0269 100.939 39.3131 100.432 39.3131C100.066 39.3131 99.7758 39.1398 99.6802 38.8784H99.176C99.2576 39.3655 99.7674 39.7204 100.412 39.7204ZM102.401 38.6418H102.891V35.7802H102.401V38.6418ZM102.646 35.2987C102.814 35.2987 102.952 35.1639 102.952 35.0015C102.952 34.8364 102.814 34.7043 102.646 34.7043C102.479 34.7043 102.341 34.8364 102.341 35.0015C102.341 35.1639 102.479 35.2987 102.646 35.2987ZM103.71 35.0895V35.7802H103.274V36.1736H103.71V37.8988C103.71 38.4492 103.918 38.6637 104.456 38.6637C104.572 38.6637 104.707 38.6555 104.766 38.6418V38.24C104.732 38.2456 104.62 38.2539 104.563 38.2539C104.313 38.2539 104.2 38.1355 104.2 37.8741V36.1736H104.769V35.7802H104.2V35.0895H103.71ZM106.202 38.2841C105.85 38.2841 105.617 38.1052 105.617 37.8329C105.617 37.5631 105.842 37.3926 106.236 37.3678L107.019 37.321V37.555C107.019 37.9677 106.664 38.2841 106.202 38.2841ZM106.092 38.6913C106.487 38.6913 106.858 38.4767 107.033 38.1493H107.044V38.6418H107.509V36.6635C107.509 36.0939 107.075 35.7306 106.388 35.7306C105.695 35.7306 105.262 36.1104 105.228 36.6057H105.701C105.763 36.325 106 36.1516 106.377 36.1516C106.782 36.1516 107.019 36.3608 107.019 36.7102V36.9495L106.18 36.9963C105.504 37.0348 105.118 37.343 105.118 37.8329C105.118 38.3473 105.51 38.6913 106.092 38.6913ZM108.157 38.6418H108.647V34.6714H108.157V38.6418ZM111.457 38.2841C111.105 38.2841 110.871 38.1052 110.871 37.8329C110.871 37.5631 111.097 37.3926 111.491 37.3678L112.274 37.321V37.555C112.274 37.9677 111.919 38.2841 111.457 38.2841ZM111.347 38.6913C111.742 38.6913 112.113 38.4767 112.288 38.1493H112.299V38.6418H112.764V36.6635C112.764 36.0939 112.33 35.7306 111.643 35.7306C110.95 35.7306 110.517 36.1104 110.483 36.6057H110.956C111.018 36.325 111.254 36.1516 111.632 36.1516C112.037 36.1516 112.274 36.3608 112.274 36.7102V36.9495L111.435 36.9963C110.759 37.0348 110.373 37.343 110.373 37.8329C110.373 38.3473 110.764 38.6913 111.347 38.6913ZM114.577 38.2427C114.073 38.2427 113.744 37.841 113.744 37.2C113.744 36.5589 114.073 36.1516 114.577 36.1516C115.087 36.1516 115.428 36.5699 115.428 37.2C115.428 37.83 115.087 38.2427 114.577 38.2427ZM114.594 39.7204C115.403 39.7204 115.918 39.2663 115.918 38.584V35.7802H115.45V36.2618H115.442C115.248 35.9288 114.904 35.7306 114.49 35.7306C113.733 35.7306 113.243 36.303 113.243 37.2C113.243 38.0887 113.733 38.6637 114.479 38.6637C114.89 38.6637 115.236 38.4602 115.417 38.1493H115.428V38.6005C115.428 39.0269 115.121 39.3131 114.614 39.3131C114.248 39.3131 113.958 39.1398 113.862 38.8784H113.358C113.44 39.3655 113.949 39.7204 114.594 39.7204ZM117.732 36.1462C118.193 36.1462 118.5 36.4873 118.512 36.9661H116.92C116.951 36.49 117.273 36.1462 117.732 36.1462ZM118.5 37.8218C118.419 38.0915 118.146 38.2758 117.774 38.2758C117.247 38.2758 116.918 37.9153 116.918 37.3678V37.3403H119.019V37.1587C119.019 36.292 118.531 35.7306 117.74 35.7306C116.932 35.7306 116.414 36.3332 116.414 37.222C116.414 38.1218 116.923 38.6913 117.763 38.6913C118.402 38.6913 118.897 38.3226 118.982 37.8218H118.5ZM119.514 38.6418H120.004V36.9578C120.004 36.4736 120.305 36.1543 120.767 36.1543C121.218 36.1543 121.44 36.4076 121.44 36.8698V38.6418H121.93V36.7845C121.93 36.1351 121.559 35.7306 120.917 35.7306C120.463 35.7306 120.151 35.9288 119.987 36.2369H119.976V35.7802H119.514V38.6418ZM124.989 36.7184C124.927 36.204 124.49 35.7306 123.758 35.7306C122.95 35.7306 122.412 36.3085 122.412 37.211C122.412 38.1327 122.953 38.6913 123.764 38.6913C124.428 38.6913 124.918 38.2895 124.994 37.72H124.513C124.428 38.064 124.166 38.2703 123.767 38.2703C123.26 38.2703 122.91 37.8768 122.91 37.211C122.91 36.5616 123.254 36.1516 123.761 36.1516C124.192 36.1516 124.44 36.4076 124.51 36.7184H124.989ZM125.687 39.7121C126.217 39.7121 126.458 39.5113 126.71 38.8426L127.861 35.7802H127.345L126.534 38.163H126.527L125.715 35.7802H125.191L126.273 38.6445L126.205 38.8453C126.093 39.1783 125.941 39.3076 125.667 39.3076C125.606 39.3076 125.529 39.3048 125.476 39.2939V39.6956C125.529 39.7066 125.628 39.7121 125.687 39.7121Z" fill="white"/>
<path d="M47.0049 32.0351H51.8016V21.6278C51.8016 19.6975 53.0336 18.3463 54.8569 18.3463C56.6311 18.3463 57.6988 19.4401 57.6988 21.29V32.0351H62.3147V21.5635C62.3147 19.6493 63.5139 18.3463 65.3372 18.3463C67.1934 18.3463 68.2119 19.4401 68.2119 21.4348V32.0351H73.0085V20.2605C73.0085 16.7861 70.6924 14.4698 67.2427 14.4698C64.6638 14.4698 62.5612 15.837 61.7727 18.0086H61.674C61.0828 15.7565 59.3086 14.4698 56.7624 14.4698C54.3641 14.4698 52.4751 15.837 51.7359 17.9121H51.6373V14.7915H47.0049V32.0351ZM82.8482 28.9144C81.222 28.9144 80.1377 28.1103 80.1377 26.8235C80.1377 25.6009 81.1562 24.8127 82.9467 24.6841L86.6592 24.4589V25.7135C86.6592 27.5794 84.9344 28.9144 82.8482 28.9144ZM81.2713 32.3085C83.4724 32.3085 85.6572 31.2309 86.6429 29.3972H86.7414V32.0351H91.3737V20.1801C91.3737 16.7056 88.4334 14.4215 83.916 14.4215C79.2507 14.4215 76.3432 16.7217 76.1624 20.0675H80.5485C80.7784 18.7968 81.9119 17.9282 83.7024 17.9282C85.5093 17.9282 86.6592 18.8611 86.6592 20.4696V21.6117L82.224 21.869C77.838 22.1264 75.3739 23.9441 75.3739 27.0807C75.3739 30.1853 77.9202 32.3085 81.2713 32.3085ZM99.4558 21.7082H99.3899V8.82373H94.5934V32.0351H99.3899V26.3409L100.638 25.0219L105.681 32.0351H111.201L104.154 22.1907L110.872 14.7915H105.435L99.4558 21.7082ZM119.661 17.8959C121.796 17.8959 123.258 19.408 123.357 21.6117H115.882C116.047 19.4563 117.558 17.8959 119.661 17.8959ZM123.422 26.7591C122.979 28.078 121.632 28.9306 119.874 28.9306C117.427 28.9306 115.833 27.2416 115.833 24.7805V24.491H127.972V23.0594C127.972 17.8156 124.736 14.4215 119.611 14.4215C114.404 14.4215 111.119 17.9925 111.119 23.4937C111.119 29.011 114.371 32.4051 119.792 32.4051C124.145 32.4051 127.299 30.137 127.824 26.7591H123.422Z" fill="#323C8D"/>
<path fill-rule="evenodd" clip-rule="evenodd" d="M115.617 0H124.841C125.958 0 126.863 0.884376 126.863 1.97531V8.88889C126.863 9.97982 125.958 10.8642 124.841 10.8642H115.617C114.5 10.8642 113.595 9.97982 113.595 8.88889V1.97531C113.595 0.884376 114.5 0 115.617 0ZM117.713 6.99745C117.713 7.24234 117.51 7.44044 117.259 7.44044C117.006 7.44044 116.806 7.24234 116.806 6.99745C116.806 6.74982 117.006 6.55446 117.259 6.55446C117.51 6.55446 117.713 6.74982 117.713 6.99745ZM119.172 5.64097H119.183L120.208 4.45782H121.14L119.988 5.72351L121.196 7.40743H120.25L119.386 6.20777L119.172 6.4334V7.40743H118.349V3.43702H119.172V5.64097ZM123.869 7.40743H121.377V6.95067L122.88 5.08792V5.07141H121.399V4.45782H123.835V4.96685L122.421 6.77734V6.79109H123.869V7.40743Z" fill="white"/>
<path d="M25.9119 14.5701H21.1887L18.5155 27.4389H18.4171L15.2847 14.5701H10.6928L7.57674 27.4389H7.47835L4.82157 14.5701H0L4.67397 31.9228H9.70874L12.8739 19.6528H12.9724L16.1539 31.9228H21.2543L25.9119 14.5701ZM35.4074 17.6942C37.5394 17.6942 38.9989 19.2158 39.0974 21.4334H31.6355C31.7993 19.2643 33.3082 17.6942 35.4074 17.6942ZM39.1629 26.6134C38.7202 27.9407 37.3754 28.7986 35.6206 28.7986C33.177 28.7986 31.5862 27.099 31.5862 24.6223V24.331H43.7057V22.8903C43.7057 17.6133 40.4749 14.1978 35.3582 14.1978C30.1595 14.1978 26.8794 17.7913 26.8794 23.3274C26.8794 28.8796 30.1266 32.295 35.5385 32.295C39.8846 32.295 43.0333 30.0127 43.5582 26.6134H39.1629Z" fill="white"/>
</svg>
