<svg width="64" height="64" viewBox="0 0 64 64" fill="none" xmlns="http://www.w3.org/2000/svg">
<path fill-rule="evenodd" clip-rule="evenodd" d="M2.07262 0.251764C1.35562 0.531764 0.714 1.10726 0.33275 1.81251L0.0625 2.31251V32V61.6875L0.33275 62.1875C0.651375 62.7769 1.26425 63.3799 1.875 63.7048C2.29625 63.9289 3.1305 63.9388 24.3074 63.9701C48.5005 64.006 46.9223 64.0543 47.8989 63.2493C48.1484 63.0436 48.4981 62.583 48.6763 62.2256L49 61.5759V55.6223V49.6686L48.7108 49.3968C48.2984 49.0095 47.6305 49.0325 47.2405 49.4475L46.9375 49.7699L46.9065 55.3538C46.8894 58.4248 46.8464 61.063 46.8109 61.2165C46.6504 61.9109 47.8694 61.875 24.4341 61.875H2.85575L2.49038 61.5096L2.125 61.1443V32.0166V2.88901L2.42663 2.53826L2.72837 2.18751L24.3329 2.15464C39.5716 2.13151 46.0339 2.16151 46.2645 2.25664C46.4444 2.33076 46.6555 2.51439 46.7336 2.66451C46.8356 2.86051 46.8844 5.85401 46.9066 13.2713L46.9375 23.605L47.2405 23.9275C47.6431 24.3559 48.3422 24.3715 48.7282 23.9608L49 23.6714V13.0478V2.42414L48.6709 1.76376C48.2914 1.00214 47.4724 0.336639 46.6634 0.132389C46.3041 0.0416388 39.3043 0.00188883 24.4134 0.00588883C3.29088 0.0115138 2.67037 0.0183888 2.07262 0.251764ZM10.2946 6.49901C9.67938 6.74726 9.625 7.00364 9.625 9.65851C9.625 12.1226 9.62675 12.138 9.93188 12.4431L10.2386 12.75H24.535H38.8314L39.0846 12.4688C39.4604 12.0513 39.5168 11.7821 39.3247 11.3224C39.208 11.043 39.0199 10.8628 38.7448 10.7669C38.4509 10.6645 34.6404 10.625 25.0439 10.625H11.75V9.56251V8.50001H25.2908H38.8314L39.0846 8.21876C39.4604 7.80126 39.5168 7.53214 39.3247 7.07239C39.208 6.79301 39.0199 6.61276 38.7448 6.51689C38.2514 6.34489 10.7194 6.32751 10.2946 6.49901ZM59.4421 13.132C58.7712 13.4668 58.2933 13.9398 57.8638 14.6939C57.5273 15.2848 57.4769 15.3221 57.0789 15.2756C56.8449 15.2484 56.5417 15.2858 56.4051 15.3589C56.2686 15.432 55.5903 16.4639 54.8979 17.6521C53.1759 20.6068 53.4279 20.3554 52.5961 19.9485C51.9381 19.6265 51.8814 19.619 51.4562 19.7966C51.1465 19.926 50.9805 20.0919 50.9166 20.3355C50.7291 21.0504 50.8862 21.3509 51.7181 21.8688L52.2487 22.199L47.7394 30.0058L43.23 37.8125L42.1095 40.799C41.4933 42.4416 40.654 44.4258 40.2445 45.2081C39.5742 46.4888 39.5 46.7061 39.5 47.3859C39.5 47.877 39.5921 48.3554 39.7635 48.7538L40.027 49.3664L38.9304 50.7144C38.3271 51.4559 37.7945 52.1083 37.7465 52.164C37.6986 52.2199 37.4771 51.8134 37.2544 51.2608C36.6253 49.7003 35.7604 49.0795 34.5353 49.3094C34.0808 49.3946 33.2458 50.107 32.929 50.6799C32.826 50.8661 32.7491 50.3869 32.5923 48.5804C32.3662 45.9786 32.251 45.6395 31.3958 45.0584C30.5898 44.5106 29.3784 44.7018 28.7237 45.4798C28.2551 46.0366 25.5484 54.1778 25.6702 54.6634C25.7803 55.1015 26.4499 55.5306 26.875 55.4355C27.0469 55.397 27.3 55.2403 27.4375 55.0869C27.58 54.9281 28.2231 53.1566 28.9335 50.9666C29.6187 48.8538 30.2135 47.125 30.255 47.125C30.2965 47.125 30.4024 48.0673 30.4902 49.2188C30.5798 50.3914 30.7296 51.5043 30.831 51.7483C31.5126 53.3899 33.5205 53.6149 34.543 52.1643C34.7521 51.8676 34.9596 51.625 35.0044 51.625C35.049 51.625 35.2411 52.0218 35.4314 52.5066C35.8634 53.6078 36.2296 54.0488 36.9356 54.3185C37.5884 54.5678 38.2407 54.4901 38.8279 54.0933C39.0425 53.9481 39.7984 53.0916 40.5076 52.1898L41.797 50.55L42.5124 50.6018C43.0811 50.6429 43.365 50.5906 43.8963 50.3475C44.7301 49.9658 45.0594 49.6183 46.0355 48.0896C46.4629 47.4205 47.662 45.8469 48.7002 44.5928L50.5881 42.3125L55.1204 34.4375C57.613 30.1063 59.669 26.5445 59.6891 26.5225C59.7754 26.4284 60.7505 27.021 60.9292 27.2761C61.3346 27.855 61.201 28.1783 58.924 32.125C57.7142 34.2219 56.6951 36.1178 56.6592 36.338C56.6056 36.6678 56.6639 36.8081 56.9896 37.1339C57.3202 37.4644 57.4489 37.5165 57.7744 37.4514C57.9885 37.4085 58.2365 37.3131 58.3254 37.2393C58.5771 37.0304 62.9999 29.3113 63.1323 28.8498C63.5458 27.4079 62.956 26.0318 61.5353 25.1233L60.758 24.6263L62.129 22.2543C63.5871 19.7316 63.7428 19.2585 63.2588 18.8204C63.0216 18.6058 63.0249 18.5884 63.4505 17.8139C63.9879 16.8364 64.101 16.035 63.8317 15.1146C63.425 13.7246 62.2501 12.8709 60.7567 12.88C60.1992 12.8834 59.7792 12.9639 59.4421 13.132ZM13.1654 15.2813C12.7881 15.7005 12.7334 15.9681 12.929 16.4366C13.0636 16.7588 13.2194 16.8923 13.584 16.9985C13.924 17.0975 17.1863 17.1269 24.8546 17.1001L35.6468 17.0625L35.9484 16.7118C36.3425 16.2535 36.3405 15.7041 35.9431 15.3069L35.6364 15H24.5275H13.4186L13.1654 15.2813ZM61.4969 15.2469C61.896 15.646 61.9313 16.0548 61.6217 16.6943C61.4684 17.011 61.2738 17.2966 61.1893 17.3291C61.0735 17.3735 59.7141 16.6898 59.3911 16.4244C59.3029 16.352 60.0055 15.2593 60.2211 15.1336C60.5834 14.9226 61.23 14.98 61.4969 15.2469ZM59.1725 18.768C60.1432 19.328 60.9586 19.8038 60.9845 19.8254C61.0214 19.8564 59.0859 23.2955 58.9251 23.4845C58.8939 23.5213 55.4575 21.5879 55.2666 21.4263C55.2161 21.3835 57.2834 17.755 57.36 17.7519C57.3861 17.7509 58.2018 18.2081 59.1725 18.768ZM17.7614 22.5103C17.3284 22.6848 17.1335 22.9966 17.129 23.5221C17.126 23.8726 17.2032 24.0434 17.4544 24.2409C17.7824 24.499 17.8316 24.5 29.8975 24.5H42.0114L42.3181 24.1931C42.7393 23.7721 42.7325 23.1445 42.3025 22.7405L41.9799 22.4375L30.0212 22.4133C22.5168 22.398 17.9504 22.4341 17.7614 22.5103ZM56.5938 24.6578C57.2296 25.0179 57.75 25.3625 57.75 25.4235C57.75 25.5099 49.8549 39.2595 49.39 39.9826C49.3044 40.1158 48.8891 39.9274 47.484 39.1183C46.496 38.5493 45.6704 38.0711 45.6494 38.0558C45.6206 38.0348 50.9016 28.8305 53.8377 23.7845L54.145 23.2564L54.7912 23.6298C55.1467 23.8351 55.9577 24.2978 56.5938 24.6578ZM8.28375 28.8365C7.90662 28.9113 7.5 29.4551 7.5 29.8849C7.5 30.078 7.63575 30.3939 7.80162 30.5868L8.10338 30.9375H19.1666H30.2299L30.5524 30.6345C30.9969 30.2169 30.9969 29.5331 30.5525 29.1155L30.23 28.8125L19.3962 28.7969C13.4376 28.7884 8.437 28.8063 8.28375 28.8365ZM33.9375 28.8363C33.1225 29.044 32.8438 30.0671 33.4476 30.6345L33.7701 30.9375H37.8959H42.0216L42.3234 30.5868C42.7089 30.1386 42.7089 29.6115 42.3235 29.1633L42.022 28.8125L38.1048 28.7925C35.9503 28.7815 34.075 28.8011 33.9375 28.8363ZM8.0625 34.276C7.4215 34.6435 7.3 35.4364 7.80688 35.9431L8.11362 36.25H13.8523H19.5909L19.9205 35.9205C20.3681 35.4728 20.3552 34.961 19.8846 34.4904L19.5193 34.125L13.9159 34.1288C9.9365 34.1315 8.24 34.1741 8.0625 34.276ZM23 34.2868C22.3211 34.6301 22.2393 35.5268 22.8434 36.002C23.1432 36.2379 23.3589 36.25 27.2432 36.25C31.1736 36.25 31.3381 36.2404 31.5999 35.9965C32.1695 35.4659 32.0581 34.6325 31.3713 34.2849C30.9276 34.0605 23.4441 34.0621 23 34.2868ZM46.7832 41.156C47.386 41.4995 47.9099 41.8303 47.9475 41.8911C47.9851 41.952 47.4109 42.7306 46.6715 43.6214L45.3271 45.241L44.6323 44.8451C44.2501 44.6274 43.7831 44.3623 43.5945 44.2559C43.4059 44.1495 43.2513 44.0284 43.2508 43.9868C43.2499 43.8949 44.6193 40.2355 44.7088 40.0906C44.7435 40.0344 44.978 40.1105 45.2298 40.2599C45.4815 40.4093 46.1806 40.8125 46.7832 41.156ZM11.5 41.8169C8.09338 42.5384 5.43263 45.095 4.54488 48.5C4.21925 49.7489 4.2455 51.813 4.60275 53.0569C5.5005 56.1829 7.8215 58.5034 10.9431 59.3961C11.7036 59.6135 12.2609 59.6809 13.3125 59.6821C15.0156 59.6844 15.7129 59.5203 17.3561 58.7303C18.4341 58.2121 18.8113 57.9483 19.6178 57.148C21.2556 55.5228 22.2009 53.521 22.3375 51.3878C22.4047 50.3388 22.398 50.3041 22.0611 49.9688C21.3162 49.227 20.2521 49.7829 20.2481 50.9159C20.2426 52.4753 19.4441 54.308 18.2509 55.5C16.8679 56.8815 15.2891 57.5466 13.375 57.5541C9.4595 57.5696 6.43038 54.5405 6.44588 50.625C6.45338 48.7109 7.1185 47.1321 8.5 45.7491C10.1632 44.0841 12.5721 43.4025 14.8749 43.9451C15.6024 44.1166 15.983 44.2823 17.6437 45.1503C18.0624 45.3691 18.1369 45.3734 18.5456 45.2026C19.0193 45.0048 19.1764 44.6804 19.1035 44.0506C19.0215 43.3418 17.0088 42.2009 15.1423 41.8053C14.1088 41.5861 12.5664 41.5911 11.5 41.8169ZM43.3235 46.5733C43.7643 46.8198 44.125 47.047 44.125 47.0783C44.125 47.2814 43.58 48.1424 43.3489 48.3043C42.6816 48.7716 41.7339 48.302 41.7186 47.4965C41.7104 47.0554 42.1714 46.125 42.3983 46.125C42.4663 46.125 42.8826 46.3268 43.3235 46.5733ZM17.25 47.5915C17.1469 47.631 16.1465 48.5353 15.027 49.6011L12.9915 51.5391L11.7014 50.2695C10.6423 49.2274 10.3439 49 10.0351 49C9.50513 49 9 49.531 9 50.0884C9 50.4649 9.16262 50.6844 10.3235 51.8748C11.0514 52.6213 11.8433 53.3251 12.0831 53.4389C12.5855 53.6773 13.3997 53.7066 13.9261 53.5053C14.409 53.3205 18.234 49.5468 18.4501 49.0419C18.6927 48.475 18.4731 47.9033 17.9246 47.674C17.6955 47.5784 17.4921 47.5045 17.4727 47.5099C17.4534 47.5153 17.3531 47.552 17.25 47.5915Z" fill="#323C8D"/>
</svg>
