<svg width="65" height="65" viewBox="0 0 65 65" fill="none" xmlns="http://www.w3.org/2000/svg">
<path fill-rule="evenodd" clip-rule="evenodd" d="M50.8125 0.237504C50.2184 0.513129 49.5706 1.166 49.3737 1.6875C49.0207 2.623 49.3144 3.93875 50.0191 4.57913C50.6846 5.18388 51.1025 5.29513 52.9832 5.368L54.7791 5.4375L47.3745 12.7968L39.97 20.156L36.2037 16.4168C29.5032 9.76425 29.5567 9.81238 28.5077 9.49375C27.8231 9.28588 27.4056 9.23338 26.8135 9.28088C25.1199 9.41688 25.796 8.816 12.5644 21.9438C5.33349 29.1179 0.42824 34.0776 0.291365 34.3533C0.146365 34.6455 0.0632399 35.0889 0.0629899 35.5723C0.0626149 36.1994 0.12824 36.4384 0.438615 36.9405C1.13074 38.06 2.62874 38.5021 3.80736 37.9349C4.13374 37.7779 8.18999 33.8246 15.713 26.3319L27.1237 14.967L32.235 20.0279C35.8157 23.5734 37.5141 25.17 37.9066 25.36C39.332 26.0501 40.9231 26.0051 42.187 25.2391C42.5774 25.0026 44.0587 23.6299 45.7479 21.9396C48.33 19.3558 48.6417 19.0003 48.6524 18.6268C48.6657 18.1545 48.1774 17.625 47.7282 17.625C47.5599 17.625 46.4354 18.6451 44.4816 20.5703C42.488 22.5348 41.3171 23.5953 40.9651 23.755C40.3302 24.0433 39.6475 24.065 39.0515 23.816C38.7745 23.7003 36.6889 21.7425 33.4289 18.5383C30.5786 15.7366 28.1207 13.3746 27.967 13.2891C27.586 13.0774 26.7625 13.0875 26.3377 13.309C26.1454 13.4093 20.8447 18.5965 14.5585 24.836C8.27224 31.0755 3.00399 36.2268 2.85149 36.2831C2.48062 36.4204 1.95099 36.0264 1.89711 35.5733C1.86124 35.2711 3.15936 33.9383 13.6941 23.4606C20.2045 16.9854 25.6874 11.5871 25.8782 11.4644C26.353 11.1589 27.3529 11.0571 27.9481 11.2535C28.3236 11.3775 29.5814 12.5483 33.6215 16.5346C36.5121 19.3866 38.9907 21.7325 39.2147 21.8283C39.7465 22.0554 40.2967 22.0454 40.7875 21.7998C41.0075 21.6896 44.8015 17.9919 49.2187 13.5824C57.8059 5.01025 57.6075 5.238 57.2474 4.36863C57.1615 4.16125 56.9506 3.88088 56.7787 3.74575C56.4937 3.52163 56.262 3.49988 54.1394 3.49813C51.4895 3.496 51.2112 3.428 51.1475 2.76675C51.122 2.50275 51.1859 2.26488 51.3231 2.11325C51.5284 1.88638 51.78 1.875 56.5819 1.875C61.4584 1.875 61.6332 1.88325 61.875 2.125C62.1166 2.36663 62.125 2.54163 62.125 7.375C62.125 12.2084 62.1166 12.3834 61.875 12.625C61.5261 12.9739 61.0704 12.9415 60.7591 12.5456C60.5176 12.2388 60.5 12.0546 60.5 9.84563V7.475L60.075 7.05C59.5977 6.57275 59.0009 6.48513 58.4 6.80425C58.2144 6.90288 56.2391 8.811 54.0104 11.0446C50.4172 14.6456 49.9584 15.15 49.9584 15.4973C49.9584 16.0079 50.3671 16.4166 50.8776 16.4166C51.2241 16.4166 51.6914 15.9948 54.9352 12.7523L58.6014 9.08775L58.6444 10.9501C58.6854 12.7228 58.7042 12.841 59.0346 13.4029C59.6529 14.4548 60.8997 14.9505 62.0891 14.6175C62.8299 14.4101 63.6335 13.6353 63.8462 12.923C64.0637 12.195 64.0637 2.555 63.8462 1.827C63.6479 1.16288 62.8371 0.352129 62.173 0.153754C61.8012 0.0426286 60.2235 0.000753625 56.4855 0.00275363C51.7127 0.00525363 51.2739 0.0235036 50.8125 0.237504ZM30.3125 31.0789C19.7732 31.7364 10.4912 37.2033 4.87199 46.0625C2.03724 50.5318 0.129615 56.6558 0.0764899 61.458C0.0612399 62.8411 0.16524 63.1139 0.923115 63.6798C1.26811 63.9374 1.27612 63.9375 22.491 63.9699L43.7136 64.0021L44.0442 63.742C44.4637 63.4121 44.4966 62.7739 44.1121 62.4256C43.8732 62.2093 43.5724 62.1818 40.8131 62.125L37.777 62.0625L42.1947 57.0625C44.6246 54.3125 46.708 51.8679 46.8246 51.63C47.3774 50.5025 47.0139 49.0936 45.9965 48.4204C45.3014 47.9604 44.1311 47.8609 43.47 48.2055C43.2252 48.3331 40.7232 50.4693 37.9101 52.9524L32.7952 57.4673L31.6714 57.521C30.7059 57.5671 30.4154 57.6374 29.6106 58.0196C28.1147 58.73 26.8157 60.2934 26.5516 61.7014L26.4721 62.125H17.2951H8.11799L8.19511 61.2813C8.50374 57.904 9.24674 55.2521 10.6901 52.375C14.0142 45.7493 20.0895 41.1354 27.5 39.6086C28.7831 39.3443 29.2662 39.3125 32 39.3125C34.7337 39.3125 35.2169 39.3443 36.5 39.6086C43.9142 41.1361 49.984 45.7458 53.3099 52.375C54.7424 55.2304 55.465 57.8216 55.8107 61.3438L55.8874 62.125H51.7075C47.8099 62.125 47.5082 62.1408 47.2389 62.3589C46.8356 62.6854 46.8375 63.4411 47.2422 63.7689C47.523 63.9963 47.8356 64.0043 55.1332 63.9715C62.5857 63.9381 62.7385 63.9325 63.077 63.6798C63.8349 63.1138 63.9387 62.841 63.9235 61.458C63.8586 55.6025 61.3785 48.837 57.3406 43.5014C56.1654 41.9484 53.0039 38.7898 51.5 37.6661C45.8209 33.4229 39.8029 31.2971 32.875 31.087C31.8781 31.0568 30.725 31.0531 30.3125 31.0789ZM31 35.1875V37.375L30.4062 37.3773C29.5816 37.3805 27.4599 37.6935 26.087 38.0145C22.4051 38.8756 18.5131 40.8091 15.648 43.2008L14.6907 43.9998L13.1579 42.4705C12.3147 41.6294 11.625 40.901 11.625 40.8519C11.625 40.6986 13.6307 39.0741 14.875 38.2196C18.5631 35.6865 22.7749 34.0115 27.1875 33.323C28.8874 33.0578 29.0547 33.0403 30.0937 33.0188L31 33V35.1875ZM37.25 33.3836C41.2881 34.0711 45.2485 35.6503 48.7305 37.9613C50.1314 38.8911 52.375 40.6685 52.375 40.8484C52.375 40.8995 51.6852 41.6294 50.8421 42.4705L49.3092 43.9998L48.352 43.2008C45.5211 40.8378 41.8895 39.013 38.1347 38.0668C36.8207 37.7356 34.4349 37.375 33.5582 37.375H33V35.1684V32.9618L34.3437 33.0398C35.0829 33.0825 36.3906 33.2374 37.25 33.3836ZM11.8281 43.7655L13.3472 45.2811L12.3486 46.469C8.97561 50.4805 6.90774 55.3795 6.38049 60.607C6.30874 61.319 6.24999 61.9518 6.24999 62.0133C6.24999 62.0748 5.26561 62.125 4.06249 62.125H1.87499L1.87511 61.7188C1.87549 60.8449 2.27849 57.8654 2.58099 56.5C3.50099 52.3476 5.30824 48.3975 7.87086 44.9375C8.69337 43.827 10.0779 42.25 10.2304 42.25C10.2736 42.25 10.9925 42.932 11.8281 43.7655ZM54.5687 43.0313C56.2719 44.8926 57.9056 47.3728 59.2007 50.0625C60.8307 53.4478 61.7435 56.9396 62.0679 61.0313L62.1546 62.125H59.9522C58.741 62.125 57.75 62.0748 57.75 62.0133C57.75 61.413 57.4281 59.0101 57.187 57.8099C56.3775 53.7801 54.2349 49.4324 51.5211 46.3125L50.6512 45.3125L52.1675 43.7813C53.0015 42.939 53.722 42.25 53.7689 42.25C53.8157 42.25 54.1756 42.6016 54.5687 43.0313ZM45.0659 50.1288C45.2425 50.324 45.2686 50.4519 45.179 50.6826C45.0551 51.0015 37.0445 60.125 36.8885 60.125C36.8379 60.125 36.6112 59.8779 36.385 59.5758C36.1586 59.2738 35.725 58.8404 35.4212 58.6129L34.8691 58.1991L35.1532 57.9156C35.3096 57.7598 37.4062 55.8911 39.8125 53.763C44.4069 49.6996 44.5734 49.5845 45.0659 50.1288ZM33.5625 59.6698C34.2754 60.0033 35.1486 60.8903 35.4322 61.5694C35.5382 61.823 35.625 62.0518 35.625 62.0778C35.625 62.1038 33.9937 62.125 32 62.125C30.0062 62.125 28.375 62.1038 28.375 62.0778C28.375 61.8228 28.8637 60.9956 29.2865 60.5351C30.039 59.7155 30.8312 59.3775 32 59.3775C32.7212 59.3775 33.0816 59.4449 33.5625 59.6698Z" fill="#323C8D"/>
</svg>
