<svg width="570" height="291" viewBox="0 0 570 291" fill="none" xmlns="http://www.w3.org/2000/svg">
<rect x="50" y="19" width="520" height="272" rx="16" fill="#F5F5F7"/>
<path fill-rule="evenodd" clip-rule="evenodd" d="M417.152 73.1465C403.557 74.3605 389.059 79.1605 377.396 86.3084C365.987 93.3009 356.213 102.664 348.753 113.746C347.954 114.934 347.3 115.983 347.3 116.078C347.3 116.174 348.146 116.252 349.181 116.252H351.062L352.683 114.023C355.281 110.453 358.16 107.054 361.433 103.692C364.51 100.532 368.821 96.6423 369.561 96.3596C369.851 96.2485 370.333 96.4493 371.314 97.09C372.058 97.5761 374.097 98.7841 375.845 99.7743C377.593 100.765 379.023 101.639 379.023 101.717C379.023 101.796 378.416 102.603 377.673 103.511C374.063 107.927 369.059 115.399 369.059 116.374C369.059 116.449 369.892 116.469 370.91 116.419C372.298 116.352 372.806 116.249 372.937 116.01C373.887 114.28 379.402 106.976 381.479 104.698L382.614 103.453L386.055 104.779C387.947 105.509 391.394 106.769 393.715 107.579C396.036 108.389 397.935 109.14 397.935 109.248C397.935 109.558 396.927 112.052 396.072 113.857C395.643 114.763 395.291 115.661 395.291 115.852C395.291 116.31 396.28 116.506 397.742 116.338L398.876 116.207L400.349 113.052L401.823 109.898L403.488 110.263C407.765 111.2 414.79 112.081 420.765 112.431C422.178 112.513 423.216 112.666 423.299 112.805C423.378 112.933 423.491 113.738 423.55 114.593L423.659 116.148L424.975 116.211C427.206 116.318 427.218 116.307 427.218 114.386C427.218 112.446 426.949 112.609 430.472 112.42C435.52 112.148 444.004 110.994 447.073 110.16C447.647 110.004 448.209 109.935 448.321 110.006C448.434 110.078 449.17 111.513 449.957 113.194L451.388 116.252H453.246C455.44 116.252 455.389 116.602 453.749 112.797C452.533 109.976 452.232 108.84 452.666 108.713C454.668 108.124 461.276 105.787 464.127 104.659L467.787 103.211L469.364 104.89C471.184 106.829 473.891 110.322 476.281 113.816L477.946 116.252L479.578 116.248C480.475 116.247 481.332 116.165 481.483 116.068C481.692 115.933 481.163 114.994 479.246 112.104C477.865 110.021 476.506 107.968 476.226 107.542C475.709 106.754 475.211 106.136 473.123 103.69C471.962 102.329 471.536 101.453 471.879 101.129C471.977 101.036 473.247 100.286 474.701 99.4617C476.155 98.6374 477.965 97.5539 478.724 97.0542C479.482 96.5544 480.292 96.1454 480.523 96.1454C481.607 96.1454 490.181 104.279 494.071 108.997C495.246 110.422 496.896 112.579 497.737 113.79L499.266 115.993L500.732 116.128C501.586 116.207 502.426 116.175 502.743 116.052C503.411 115.794 503.444 115.866 501.219 112.71C497.845 107.924 494.6 104.113 490.025 99.5656C475.278 84.9036 456.957 76.0803 435.759 73.4313C432.583 73.0346 420.481 72.8493 417.152 73.1465ZM429.963 76.4549C433.962 76.6893 438.958 77.3126 442.163 77.9772C444.876 78.5395 445.053 78.7955 443.449 79.84C440.453 81.7911 436.481 83.377 432.417 84.2449C429.314 84.9076 423.841 85.1424 420.555 84.7535C416.019 84.2169 411.325 82.6644 407.715 80.507C405.966 79.4619 405.484 78.9354 405.931 78.5571C406.075 78.4361 407.422 78.1067 408.926 77.8254C416.136 76.4769 422.861 76.0389 429.963 76.4549ZM400.892 80.244C401.942 80.8807 402.612 81.5405 402.612 81.9381C402.612 82.2508 402.207 82.6227 401.138 83.2904C395.594 86.7526 389.699 91.3392 384.268 96.4186C382.271 98.2862 381.794 98.6376 381.413 98.5221C381.161 98.446 379.239 97.4049 377.142 96.2087C374.306 94.5906 373.329 93.934 373.329 93.6446C373.329 92.5692 382.965 86.8357 389.699 83.9043C394.146 81.9687 398.544 80.3654 400.375 80.012C400.431 80.001 400.664 80.1055 400.892 80.244ZM452.364 80.6946C456.65 81.9708 460.236 83.4338 464.853 85.7897C470.298 88.5683 476.836 92.7272 476.836 93.4125C476.836 93.8979 469.603 98.2182 468.79 98.2182C468.399 98.2182 467.628 97.6088 465.789 95.8451C460.98 91.2348 456.028 87.3209 450.659 83.8867C448.741 82.66 447.858 81.9774 447.858 81.7208C447.858 81.3743 449.404 79.9776 449.787 79.9776C449.88 79.9776 451.04 80.3003 452.364 80.6946ZM445.535 85.1078C448.659 86.7092 453.42 89.9045 457.009 92.8084C460.74 95.8269 464.635 99.5409 464.635 100.079C464.633 100.781 454.34 104.644 451.034 105.182L450.28 105.305L448.08 101.547C445.625 97.3531 442.311 92.1661 439.958 88.8374C439.103 87.6262 438.404 86.5598 438.405 86.4675C438.408 86.3278 443.141 84.1574 443.499 84.1315C443.563 84.1269 444.479 84.5664 445.535 85.1078ZM409.272 85.302C411.238 86.1423 411.56 86.3463 411.56 86.7528C411.56 87.0166 410.986 87.9836 410.264 88.9391C408.296 91.5411 404.71 97.1804 402.279 101.499C401.08 103.628 400.066 105.412 400.025 105.465C399.817 105.732 392.141 103.247 388.072 101.595C385.488 100.545 385.433 100.36 387.195 98.6689C390.95 95.0674 395.456 91.4161 399.66 88.5708C402.979 86.3243 406.243 84.3554 406.679 84.3371C406.847 84.3301 408.014 84.7643 409.272 85.302ZM423.326 88.7932C423.398 88.8658 423.456 93.3049 423.456 98.6577C423.456 107.075 423.415 108.419 423.151 108.604C422.341 109.173 412.598 108.307 406.323 107.109L404.036 106.672V106.007C404.036 104.591 410.909 93.7642 415.301 88.2611L415.721 87.7353L419.459 88.1981C421.515 88.4527 423.255 88.7205 423.326 88.7932ZM436.417 90.3416C437.408 91.6527 439.221 94.2364 440.446 96.0835C442.659 99.4186 446.333 105.733 446.333 106.2C446.333 106.426 443.091 107.205 439.928 107.739C437.569 108.138 433.186 108.579 430.251 108.714L427.284 108.851L427.149 105.056C426.979 100.258 426.978 95.8298 427.147 91.8608L427.279 88.7538L430.146 88.3258C434.662 87.6515 434.296 87.534 436.417 90.3416ZM401.595 124.267C395.685 124.695 390.731 125.961 386.534 128.116C379.192 131.886 375.253 136.965 373.752 144.6C372.916 148.855 373.029 153.818 374.043 157.385C376.069 164.51 382.306 170.828 390.825 174.385C391.548 174.687 398.499 176.891 406.272 179.283C414.046 181.675 421.163 183.922 422.089 184.276C424.18 185.077 425.388 186.153 425.388 187.217C425.388 188.69 424.115 189.486 420.498 190.274C418.702 190.666 417.756 190.737 414.407 190.732C410.822 190.728 410.209 190.673 408.017 190.16C403.867 189.188 400.088 187.602 397.259 185.644C394.903 184.015 392.3 181.197 390.933 178.798L390.372 177.814H382.156H373.939V193.256V208.698H382.988H392.038V205.9C392.038 202.628 391.978 202.687 394.036 203.906C399.073 206.889 404.597 208.729 412.271 209.98C414.815 210.395 423.753 210.329 426.303 209.877C434.238 208.47 440.608 205.328 444.402 200.951C448.645 196.056 450.604 190.744 450.604 184.136C450.604 177.208 448.538 172.112 443.608 166.881C440.591 163.68 437.361 161.356 433.678 159.738C432.694 159.305 425.1 156.939 416.804 154.481C408.508 152.022 401.399 149.874 401.007 149.707C398.456 148.62 397.636 146.6 399.058 144.907C400.426 143.278 402.692 142.836 407.899 143.182C414.037 143.59 419.984 145.484 424.453 148.453C426.481 149.8 428.833 152.021 430.079 153.765L430.973 155.017L439.518 154.963L448.062 154.909L448.124 142.576C448.158 135.793 448.126 129.38 448.054 128.326L447.922 126.408H439.197H430.472V128.792C430.472 130.745 430.418 131.176 430.174 131.176C430.011 131.176 428.745 130.53 427.361 129.74C424.153 127.91 421.431 126.727 418.928 126.074C413.512 124.661 406.393 123.919 401.595 124.267ZM491.783 124.274C485.924 124.682 479.893 126.215 473.904 128.816C468.949 130.968 466.218 132.85 462.923 136.383C458.325 141.312 455.062 148 453.884 154.909C450.739 173.357 453.891 188.418 462.879 197.888C467.168 202.407 474.742 206.604 482.205 208.598C486.923 209.858 489.382 210.184 495.037 210.298C502.543 210.451 507.769 209.717 514.545 207.558C520.283 205.731 524.173 203.583 528.232 200.002C534.075 194.847 537.864 186.736 539.613 175.637C540.133 172.342 540.128 162.348 539.605 158.951C538.807 153.774 537.602 149.396 535.783 145.064C532.146 136.405 523.093 129.451 511.096 126.1C505.375 124.502 498.219 123.825 491.783 124.274ZM317 135.321V145.685H322.897H328.795V166.932V188.178H322.897H317V198.438V208.698H343.131H369.262V198.438V188.178H363.263H357.264V166.932V145.685H363.263H369.262V135.321V124.957H343.131H317V135.321ZM501.268 145.658C504.642 146.556 507.262 148.591 508.146 151C508.774 152.711 509.324 155.16 509.697 157.915C510.315 162.469 510.037 176.451 509.247 180.508C508.582 183.927 506.76 186.567 504.236 187.77C501.798 188.932 499.867 189.305 496.358 189.294C493.524 189.285 493.022 189.227 491.376 188.719C487.442 187.502 485.764 185.859 484.578 182.064C483.357 178.16 483.242 176.899 483.245 167.553C483.25 154.607 483.743 151.687 486.432 148.687C487.949 146.996 490.69 145.799 494.426 145.196C495.754 144.982 499.741 145.251 501.268 145.658ZM348.367 217.34C347.892 217.389 347.503 217.506 347.503 217.6C347.503 217.874 350.864 222.703 352.56 224.866C360.042 234.411 369.655 242.861 379.638 248.668C390.119 254.765 403.41 259.175 415.337 260.514C421.439 261.2 430.306 261.156 436.657 260.409C463.505 257.251 487.399 242.437 502.43 219.632C503.993 217.259 504.033 217.404 501.82 217.405L499.917 217.406L498.399 219.521C495.569 223.464 492.404 227.233 488.936 230.79C485.579 234.232 482.414 237.091 481.644 237.375C481.106 237.574 472.164 232.371 472.161 231.857C472.16 231.655 472.511 231.096 472.94 230.614C474.172 229.233 476.871 225.705 478.336 223.563C479.767 221.471 482.124 217.711 482.124 217.52C482.124 217.456 481.261 217.404 480.207 217.404H478.29L476.915 219.425C474.878 222.421 473.332 224.488 471.158 227.123C470.087 228.421 469.066 229.667 468.888 229.892C468.573 230.291 468.454 230.257 463.093 228.231C460.082 227.093 456.59 225.816 455.332 225.393C454.073 224.971 453.044 224.547 453.044 224.453C453.044 224.358 453.583 222.99 454.242 221.413C454.901 219.835 455.497 218.288 455.567 217.974L455.695 217.404H453.962H452.229L450.676 220.578L449.123 223.751L446.254 223.183C441.242 222.189 435.724 221.475 429.506 221.014C427.5 220.865 427.501 220.866 427.609 219.685C427.635 219.4 427.597 218.771 427.526 218.286L427.396 217.404H425.68H423.964V219.037C423.964 220.096 423.875 220.742 423.71 220.875C423.57 220.987 422.337 221.141 420.97 221.216C417.588 221.403 412.063 222.055 407.289 222.83C405.108 223.185 403.149 223.485 402.936 223.497C402.635 223.514 402.189 222.814 400.937 220.358L399.326 217.197H397.614C396.672 217.197 395.901 217.276 395.901 217.372C395.901 217.778 396.748 219.943 397.726 222.037C398.304 223.274 398.734 224.398 398.682 224.536C398.63 224.674 397.594 225.096 396.38 225.474C393.673 226.316 387.516 228.567 384.967 229.647C383.93 230.087 382.969 230.396 382.832 230.335C381.98 229.954 373.499 218.857 373.08 217.575C373.031 217.426 372.451 217.29 371.644 217.237C370.152 217.14 369.262 217.29 369.262 217.638C369.262 218.413 373.278 224.29 376.983 228.937C378.684 231.07 379.153 231.792 379.08 232.162C379.007 232.53 378.038 233.198 374.863 235.075C372.596 236.414 370.531 237.51 370.276 237.51C369.203 237.51 362.103 230.872 357.989 226.021C356.03 223.712 352.131 218.629 351.625 217.725C351.45 217.41 349.704 217.205 348.367 217.34ZM423.964 234.905C423.964 244.613 423.951 244.949 423.575 245.07C423.18 245.198 419.21 245.742 417.355 245.922L416.338 246.021L415.126 244.409C411.745 239.912 408.344 234.661 405.832 230.056C404.573 227.748 404.431 227.238 405.001 227.069C408.404 226.067 416.939 224.954 421.677 224.895L423.964 224.866V234.905ZM433.827 225.08C437.674 225.411 440.901 225.865 444.189 226.539C445.861 226.882 447.263 227.196 447.303 227.237C447.425 227.361 446.185 229.747 444.505 232.622C442.548 235.973 440.011 239.832 437.462 243.338L435.52 246.009L434.572 246.005C434.05 246.003 432.892 245.873 431.997 245.716C431.102 245.559 429.752 245.367 428.997 245.289L427.625 245.147V235.006V224.866L429.506 224.868C430.54 224.87 432.485 224.965 433.827 225.08ZM401.163 229.152C402.404 231.756 407.493 239.976 410.982 245.011C411.747 246.115 412.373 247.108 412.373 247.217C412.373 247.325 411.148 247.948 409.651 248.601L406.93 249.787L404.72 248.493C399.38 245.367 393.167 240.629 387.715 235.527C385.98 233.903 385.864 233.517 386.945 232.955C388.496 232.148 392.745 230.505 395.8 229.53C397.477 228.994 399.079 228.48 399.358 228.386C400.422 228.029 400.68 228.139 401.163 229.152ZM454.098 229.001C458.681 230.218 465.245 232.791 465.245 233.37C465.245 233.941 460.364 238.57 456.704 241.472C452.179 245.058 444.845 249.658 444.027 249.422C443.785 249.352 442.65 248.91 441.504 248.439C440.043 247.839 439.419 247.481 439.419 247.241C439.419 247.053 439.939 246.163 440.575 245.262C442.789 242.125 447.115 235.31 449.081 231.862C450.488 229.395 451.167 228.39 451.429 228.39C451.631 228.39 452.832 228.665 454.098 229.001ZM384.416 237.113C388.762 241.594 394.526 246.219 400.477 249.999C401.931 250.922 403.158 251.708 403.204 251.744C403.459 251.946 402.717 252.891 401.939 253.355L401.039 253.893L398.318 253.043C391.02 250.766 383.613 247.174 376.43 242.43C373.19 240.29 373.189 240.278 376.125 238.475C378.98 236.722 381.789 235.23 382.235 235.23C382.43 235.23 383.412 236.077 384.416 237.113ZM473.904 237.459C477.145 239.287 477.844 239.761 477.802 240.101C477.691 241.009 472.137 244.615 465.962 247.789C461.818 249.918 457.194 251.827 453.22 253.049C450.659 253.837 450.496 253.862 450.004 253.544C449.249 253.058 448.366 252.184 448.371 251.929C448.374 251.808 449.902 250.683 451.768 249.429C456.93 245.958 460.272 243.294 464.737 239.089C467.959 236.053 468.923 235.255 469.379 235.244C469.748 235.235 471.374 236.031 473.904 237.459ZM429.038 248.917C434.726 249.43 439.964 251.142 444.145 253.854C445.37 254.648 445.629 255.212 444.859 255.408C443.512 255.75 438.536 256.598 435.962 256.924C431.74 257.459 420.248 257.461 416.033 256.928C413.054 256.55 409.502 255.969 407.543 255.537C406.09 255.217 406.115 254.771 407.645 253.786C411.583 251.249 417.193 249.414 422.462 248.941C425.328 248.684 426.406 248.68 429.038 248.917Z" fill="white"/>
<path fill-rule="evenodd" clip-rule="evenodd" d="M224.185 3.90453C206.111 15.3201 187.546 29.3403 169.624 45.1079C156.414 56.7304 137.105 76.3359 124.011 91.4207C102.152 116.602 80.0637 147.355 66.4018 171.627L64.4486 175.098L61.6698 169.462C60.1417 166.362 57.5201 161.008 55.8443 157.564C45.557 136.421 43.7314 132.729 42.9299 131.446C41.6313 129.367 36.9195 125.111 34.7836 124.088C30.3329 121.956 25.0467 121.534 19.6336 122.878C15.3239 123.947 8.37094 127.434 3.8085 130.814L0 133.635L2.00547 134.31C13.6679 138.232 25.1592 151.857 35.2935 173.779C41.55 187.313 47.8172 205.118 51.9261 221.033C52.5881 223.598 53.178 225.742 53.2374 225.799C53.2965 225.856 59.0498 222.034 66.0226 217.305L78.7005 208.706L80.1806 204.699C93.6738 168.167 116.697 130.852 149.766 91.9178C173.636 63.815 205.981 31.9199 233.716 9.13545L235 8.08064L232.593 4.13775C231.269 1.96934 230.153 0.197211 230.114 0.199954C230.074 0.202698 227.406 1.86978 224.185 3.90453Z" fill="#DDDDDD"/>
<path d="M83.75 104H93.1875V58.9062H83.75V104ZM117.156 104.781C128.531 104.781 135.344 99.2812 135.344 90.625V90.5938C135.344 83.5 131.094 79.6562 121.656 77.7812L116.875 76.8125C111.688 75.7812 109.375 74.125 109.375 71.2812V71.25C109.375 68.0312 112.281 65.8125 117.125 65.7812C121.781 65.7812 125.031 67.9375 125.5 71.4688L125.531 71.8438H134.438L134.406 71.25C133.969 63.3438 127.562 58.125 117.125 58.125C107.125 58.125 99.9375 63.5625 99.9375 71.8125V71.8438C99.9375 78.625 104.438 82.875 113.344 84.6562L118.094 85.5938C123.688 86.75 125.906 88.2812 125.906 91.3438V91.375C125.906 94.8125 122.625 97.0938 117.406 97.0938C112.25 97.0938 108.531 94.9062 107.938 91.4062L107.875 91.0625H98.9688L99 91.5625C99.5312 99.875 106.438 104.781 117.156 104.781ZM161.469 104.781C174.875 104.781 183.219 95.8125 183.219 81.4688V81.4062C183.219 67.0938 174.844 58.125 161.469 58.125C148.125 58.125 139.719 67.0625 139.719 81.4062V81.4688C139.719 95.8125 148.062 104.781 161.469 104.781ZM161.469 96.7812C154.062 96.7812 149.344 90.9062 149.344 81.4688V81.4062C149.344 71.9688 154.094 66.125 161.469 66.125C168.875 66.125 173.594 72 173.594 81.4062V81.4688C173.594 90.8125 168.969 96.7812 161.469 96.7812Z" fill="#323C8D"/>
<path d="M442.246 83H445.645V77.1406H449.629V74.0547H445.645V54.8164H440.449L428.086 73.957V77.1406H442.246V83ZM431.562 74.0547V73.9766L442.129 57.8242H442.246V74.0547H431.562ZM462.715 83.4688C468.574 83.4688 472.734 79.5234 472.754 73.8789V73.8398C472.754 68.4297 468.848 64.5039 463.438 64.5039C460.703 64.5039 458.359 65.5195 457.031 67.4141H456.953L457.91 57.9414H471.152V54.8164H455.02L453.574 70.8906H456.68C457.051 70.2461 457.5 69.6992 458.008 69.2305C459.258 68.0977 460.898 67.5312 462.812 67.5312C466.543 67.5312 469.219 70.1875 469.238 73.8984V73.9375C469.238 77.7266 466.582 80.3828 462.754 80.3828C459.375 80.3828 456.875 78.2539 456.523 75.4609L456.504 75.3047H453.047L453.066 75.5195C453.477 80.1094 457.324 83.4688 462.715 83.4688ZM486.25 83.4688C492.734 83.4688 496.621 77.8633 496.621 68.918V68.8789C496.621 59.9336 492.734 54.3477 486.25 54.3477C479.766 54.3477 475.918 59.9336 475.918 68.8789V68.918C475.918 77.8633 479.766 83.4688 486.25 83.4688ZM486.25 80.4023C481.953 80.4023 479.453 75.9883 479.453 68.918V68.8789C479.453 61.8086 481.953 57.4336 486.25 57.4336C490.547 57.4336 493.086 61.8086 493.086 68.8789V68.918C493.086 75.9883 490.547 80.4023 486.25 80.4023ZM510.508 83.4688C516.992 83.4688 520.879 77.8633 520.879 68.918V68.8789C520.879 59.9336 516.992 54.3477 510.508 54.3477C504.023 54.3477 500.176 59.9336 500.176 68.8789V68.918C500.176 77.8633 504.023 83.4688 510.508 83.4688ZM510.508 80.4023C506.211 80.4023 503.711 75.9883 503.711 68.918V68.8789C503.711 61.8086 506.211 57.4336 510.508 57.4336C514.805 57.4336 517.344 61.8086 517.344 68.8789V68.918C517.344 75.9883 514.805 80.4023 510.508 80.4023ZM531.738 83H535.137V54.8164H531.699L524.199 60.207V63.7422L531.66 58.5469H531.738V83Z" fill="#1D1D1F"/>
<path d="M102.781 168.719C112.156 168.719 119.031 163.031 120.719 154.531L120.781 154.219H116.5L116.406 154.5C114.531 160.906 109.781 164.75 102.781 164.75C93.0938 164.75 86.7812 157.125 86.7812 145.438V145.406C86.7812 133.688 93.0312 126.156 102.781 126.156C109.812 126.156 114.594 130.031 116.312 136.125L116.5 136.688H120.781L120.719 136.375C119.031 127.938 112.125 122.188 102.781 122.188C90.3438 122.188 82.4062 131.25 82.4062 145.406V145.438C82.4062 159.562 90.4062 168.719 102.781 168.719ZM127.094 168H154.312V164.125H131.344V146.812H153.156V143H131.344V126.781H154.312V122.906H127.094V168ZM161.594 168H165.844V149.531H176.938C177.219 149.531 177.594 149.531 177.844 149.531L188.219 168H193.219L182.281 148.844C188.281 147.281 191.938 142.5 191.938 136.156V136.094C191.938 128.062 186.312 122.906 177.5 122.906H161.594V168ZM165.844 145.75V126.719H177C183.531 126.719 187.531 130.25 187.531 136.188V136.25C187.531 142.25 183.688 145.75 177.156 145.75H165.844ZM210.562 168H214.844V126.781H229.75V122.906H195.688V126.781H210.562V168ZM235.156 168H239.406V122.906H235.156V168ZM247.844 168H252.094V147.531H272.844V143.719H252.094V126.781H274.688V122.906H247.844V168ZM281.031 168H285.281V122.906H281.031V168ZM293.719 168H320.938V164.125H297.969V146.812H319.781V143H297.969V126.781H320.938V122.906H293.719V168ZM328.219 168H342.844C356.344 168 364.219 159.719 364.219 145.469V145.406C364.219 131.156 356.312 122.906 342.844 122.906H328.219V168ZM332.469 164.125V126.781H342.594C353.688 126.781 359.875 133.438 359.875 145.438V145.5C359.875 157.438 353.688 164.125 342.594 164.125H332.469Z" fill="#6E6E73"/>
</svg>
