<svg width="44" height="34" viewBox="0 0 44 34" fill="none" xmlns="http://www.w3.org/2000/svg">
<g clip-path="url(#clip0_2132_1341)">
<path fill-rule="evenodd" clip-rule="evenodd" d="M21.6846 25.8279L21.6889 13.9493H15.327C15.4173 20.3359 18.2113 25.5283 21.6846 25.8279ZM21.6889 13.3215V1.44288C18.2113 1.73816 15.4173 6.93442 15.327 13.3215H21.6889ZM22.3158 1.44288L22.3115 13.3215H28.6734C28.5831 6.93442 25.7891 1.74248 22.3158 1.44288ZM22.3115 13.9493V25.8279C25.789 25.5321 28.5831 20.3359 28.6734 13.9493H22.3115ZM24.7572 1.73007C30.2424 2.93655 34.3839 7.66101 34.5352 13.3215H29.3161C29.2427 8.088 27.3749 3.61024 24.7572 1.73007ZM14.6837 13.3215H9.46466C9.6165 7.66101 13.7585 2.93655 19.2432 1.73007C16.6255 3.6097 14.7577 8.088 14.6837 13.3215ZM34.5352 13.9493C34.3839 19.6093 30.2424 24.3337 24.7572 25.5408C27.3749 23.6606 29.2427 19.1828 29.3167 13.9493H34.5357H34.5352ZM19.2432 25.5408C13.758 24.3337 9.6165 19.6093 9.46521 13.9493H14.6843C14.7577 19.1828 16.6255 23.6606 19.2432 25.5408ZM27.7025 2.0464C34.81 3.62643 40.0002 8.06749 40.2011 13.3215H35.1866C35.0636 8.36331 32.0367 4.0815 27.7025 2.0464ZM8.81378 13.3215H3.79934C4.00071 8.06749 9.19038 3.62643 16.2979 2.0464C11.9637 4.0815 8.93677 8.36331 8.81378 13.3215ZM40.2011 13.9493C39.9997 19.199 34.81 23.6444 27.7025 25.2244C32.0367 23.1888 35.0636 18.9075 35.1866 13.9493H40.2011ZM16.2979 25.2244C9.19038 23.6444 4.00016 19.199 3.79934 13.9493H8.81378C8.93677 18.9075 11.9637 23.1888 16.2979 25.2244ZM22.0002 0.777832C33.9904 0.777832 43.769 6.55277 43.769 13.6373C43.769 20.7175 33.9904 26.493 22.0002 26.493C10.01 26.493 0.231445 20.7175 0.231445 13.6373C0.231445 6.55277 10.01 0.777832 22.0002 0.777832ZM0.891039 13.3215H3.16043C3.30791 9.20434 6.31472 5.55519 10.8698 3.26908C5.02819 5.37489 1.07934 9.08558 0.891039 13.3215ZM40.84 13.3215H43.1094C42.9211 9.08558 38.9722 5.37921 33.1306 3.26908C37.6857 5.55573 40.6925 9.20434 40.84 13.3215ZM43.1094 13.9493H40.84C40.6925 18.0659 37.6857 21.7151 33.1306 23.9974C38.9722 21.8916 42.9211 18.1852 43.1094 13.9493ZM3.16043 13.9493H0.891039C1.07934 18.1852 5.02819 21.8916 10.8698 23.9974C6.31472 21.7151 3.30791 18.0659 3.16043 13.9493Z" fill="white"/>
<path fill-rule="evenodd" clip-rule="evenodd" d="M7.73633 7.10718C8.17878 7.10718 8.65007 7.13579 8.7649 7.19733C8.88354 7.25887 8.95701 7.26318 9.14966 7.59949L9.24762 7.89909C10.0019 11.084 10.8743 14.9712 11.628 18.1566C11.8 18.6857 11.8784 18.7558 12.0128 18.9286C12.2914 19.1418 12.6479 19.1418 12.9021 19.1418H30.9636C31.2134 19.1256 31.6847 18.9977 31.8975 18.8503C32.0613 18.7024 32.2294 18.4849 32.3073 18.1566C33.0567 14.9717 34.0237 11.0845 34.7731 7.9034C34.792 7.80716 34.8223 7.71348 34.8635 7.62432C34.925 7.49692 35.0926 7.24267 35.3059 7.1644C35.5143 7.11581 36.1821 7.11581 36.2643 7.10718C36.2643 11.5687 36.2518 15.735 36.2518 20.1966C36.1946 20.5907 35.8915 21.0214 35.6455 21.1407C35.1748 21.3702 34.7323 21.4976 34.1097 21.5634C26.064 21.5672 18.0188 21.5758 9.96871 21.5839C9.24817 21.5348 8.62123 21.3626 8.21143 21.165C7.98232 21.0501 7.75701 20.615 7.73633 20.2128V7.10718Z" fill="#FEFEFE"/>
<path fill-rule="evenodd" clip-rule="evenodd" d="M10.0508 6.09331H33.8963C33.0527 9.5735 32.2783 13.5881 31.4342 17.0645C31.3576 17.2731 31.2528 17.4705 31.1229 17.6513C30.9798 17.8321 30.7218 17.98 30.4753 17.98H13.3036C13.0331 17.939 12.9879 17.9719 12.73 17.7625C12.484 17.5201 12.4143 17.3641 12.3409 17.0564L10.0508 6.09277V6.09331Z" fill="#FEFEFE"/>
<path fill-rule="evenodd" clip-rule="evenodd" d="M7.73633 7.10718C8.17878 7.10718 8.65007 7.13579 8.7649 7.19733C8.88354 7.25887 8.95701 7.26318 9.14966 7.59949L9.24762 7.89909C10.0019 11.084 10.8743 14.9712 11.628 18.1566C11.8 18.6857 11.8784 18.7558 12.0128 18.9286C12.2914 19.1418 12.6479 19.1418 12.9021 19.1418H30.9636C31.2134 19.1256 31.6847 18.9977 31.8975 18.8503C32.0613 18.7024 32.2294 18.4849 32.3073 18.1566C33.0567 14.9717 34.0237 11.0845 34.7731 7.9034C34.792 7.80716 34.8223 7.71348 34.8635 7.62432C34.925 7.49692 35.0926 7.24267 35.3059 7.1644C35.5143 7.11581 36.1821 7.11581 36.2643 7.10718C36.2643 11.5687 36.2518 15.735 36.2518 20.1966C36.1946 20.5907 35.8915 21.0214 35.6455 21.1407C35.1748 21.3702 34.7323 21.4976 34.1097 21.5634C26.064 21.5672 18.0188 21.5758 9.96871 21.5839C9.24817 21.5348 8.62123 21.3626 8.21143 21.165C7.98232 21.0501 7.75701 20.615 7.73633 20.2128V7.10718Z" fill="white"/>
<path fill-rule="evenodd" clip-rule="evenodd" d="M10.051 6.09331H33.8965C33.0529 9.5735 32.2785 13.5881 31.4344 17.0645C31.3578 17.2731 31.253 17.4705 31.1231 17.6513C30.98 17.8321 30.7221 17.98 30.4755 17.98H13.3038C13.0333 17.939 12.9881 17.9719 12.7302 17.7625C12.4842 17.5201 12.4145 17.3641 12.3411 17.0564L10.051 6.09277V6.09331ZM41.7539 33.1623L42.1185 32.317C41.3403 32.3008 40.4881 32.1858 39.8078 31.8203C39.2222 31.504 38.8451 31.0365 38.8451 30.3758C38.8451 30.0265 38.9844 29.735 39.2957 29.5466C39.6521 29.3329 40.1887 29.2919 40.5985 29.2919H42.0157L41.6429 28.4465H40.1028C39.3202 28.4465 38.3743 28.5615 37.7593 29.0705C37.3457 29.4149 37.1781 29.8587 37.1781 30.3758C37.1781 31.2503 37.5672 31.9105 38.321 32.4033C39.2342 32.9944 40.3977 33.1623 41.4791 33.1623H41.7539ZM36.3177 33.1623V28.4465H34.5153V30.2851L31.9917 28.4465H30.1936V33.1623H31.9961L32.0206 29.8587L34.5153 31.7631V33.1623H36.3177ZM29.128 33.1623V28.4465H27.3256V33.1623H29.128ZM26.5392 28.4465H21.8818L21.5209 29.2919H23.9917L21.2303 33.1623H26.1337L26.4984 32.317H23.7784L26.5392 28.4465ZM20.6812 28.4465H16.0238L15.6592 29.2919H18.1332L15.3724 33.1623H20.2758L20.6404 32.317H17.9204L20.6812 28.4465ZM14.6017 33.1623V29.2881L12.7949 29.3205V30.6257H10.3704L10.4358 30.5194C10.6241 30.2236 10.8744 29.9159 11.1895 29.7313C11.8208 29.3658 12.7258 29.2919 13.4426 29.2919L14.5979 29.2794L14.5854 28.4465H13.5819C12.8651 28.4465 12.0951 28.4627 11.3865 28.5696C10.7432 28.6678 10.0875 28.8568 9.53453 29.1974C9.10841 29.4646 8.78079 29.8171 8.58813 30.2646C8.41616 30.6587 8.36283 31.1019 8.36283 31.5207C8.36283 31.9558 8.47766 32.3661 8.67412 32.7521L8.92446 33.1666H10.8619C10.6955 32.9906 10.5536 32.7933 10.4401 32.5799C10.2944 32.3138 10.217 32.0162 10.2148 31.7135H12.7955V33.1623H14.6023H14.6017ZM7.45344 28.4465H5.46704L3.69724 30.5561L5.71683 33.1623H7.85126L5.66785 30.5064L7.45398 28.4465H7.45344ZM3.68527 33.1623V28.4465H1.88281V33.1623H3.68527Z" fill="white"/>
<path fill-rule="evenodd" clip-rule="evenodd" d="M12.7998 29.2261H14.6023V29.3864H12.7998V29.2266V29.2261Z" fill="white"/>
</g>
<defs>
<clipPath id="clip0_2132_1341">
<rect width="43.5375" height="32.3889" fill="white" transform="translate(0.231445 0.777832)"/>
</clipPath>
</defs>
</svg>
