<svg width="214" height="40" viewBox="0 0 214 40" fill="none" xmlns="http://www.w3.org/2000/svg">
<path fill-rule="evenodd" clip-rule="evenodd" d="M28.5182 0.316973C28.3894 0.395645 27.9095 0.669579 27.4516 0.925715C25.7341 1.88655 19.8955 5.16075 18.9186 5.71104C18.661 5.85611 17.707 6.3917 16.7985 6.90119C15.8899 7.41072 15.1475 7.83921 15.1486 7.8534C15.1497 7.86759 16.3495 8.56909 17.815 9.41235C19.2805 10.2556 21.7321 11.6686 23.2631 12.5523C24.7941 13.4361 26.4916 14.4148 27.0353 14.7273C27.5791 15.0398 28.2171 15.4081 28.4532 15.5458L28.8824 15.7961V7.98144C28.8824 1.76217 28.8692 0.16747 28.8174 0.170359C28.7817 0.17232 28.647 0.238301 28.5182 0.316973ZM28.9345 7.9866V15.8064L29.1036 15.7037C29.2949 15.5875 33.4052 13.1998 38.9359 9.99199C40.9883 8.80159 42.6674 7.816 42.6672 7.80181C42.6671 7.78763 42.182 7.51008 41.5891 7.18502C40.9963 6.86002 40.1133 6.37081 39.6268 6.0979C39.1403 5.825 37.9345 5.1527 36.9472 4.60391C34.8577 3.44235 31.4275 1.5327 29.9844 0.727564C29.4316 0.419118 28.9692 0.166748 28.9568 0.166748C28.9446 0.166748 28.9345 3.68569 28.9345 7.9866ZM205.631 6.39469C201.353 6.52129 197.901 8.67593 195.522 12.705C194.252 14.8553 193.51 17.8976 193.707 20.1432C193.804 21.2467 193.958 21.8397 194.368 22.6895C195.049 24.1007 196.342 25.1752 197.982 25.6927C199.022 26.0205 199.886 26.136 201.286 26.134C203.283 26.1313 204.793 25.8058 206.388 25.0343C207.609 24.4432 208.472 23.8129 209.508 22.7558C211.848 20.3663 213.189 17.3967 213.491 13.9376C213.764 10.8019 212.605 8.42964 210.216 7.23125C209.035 6.63917 207.407 6.34212 205.631 6.39469ZM89.7063 6.49415C87.0696 6.67007 84.9381 7.44333 83.3464 8.80139C82.3043 9.69056 81.411 11.05 80.893 12.535L80.7085 13.0638H82.8189H84.9293L84.9597 12.9477C85.0264 12.6936 85.4481 11.9373 85.6853 11.6464C86.7635 10.324 89.0033 9.71471 90.9892 10.2037C91.9302 10.4354 92.4451 10.9288 92.5039 11.6553C92.5971 12.8064 91.8516 13.8303 90.6513 14.1999C90.0717 14.3783 89.6611 14.4196 88.1468 14.4514L86.6652 14.4825L86.265 15.7464C86.0449 16.4416 85.8076 17.1876 85.7378 17.4042L85.6107 17.7982L87.3593 17.822C88.7936 17.8414 89.1782 17.8621 89.4982 17.9374C90.0042 18.0564 90.3177 18.2161 90.554 18.4754C90.8452 18.7951 90.916 19.0037 90.9142 19.5381C90.9099 20.9106 90.0201 21.9109 88.3724 22.396C87.5657 22.6335 86.3714 22.7174 85.3618 22.6073C83.6671 22.4227 82.7948 21.8166 82.583 20.6765C82.5035 20.2485 82.5122 19.7709 82.6041 19.5124C82.6471 19.3917 82.6822 19.2843 82.6822 19.2737C82.6822 19.2631 81.7685 19.2544 80.6517 19.2544H78.6212L78.5778 19.3705C78.554 19.4343 78.5077 19.6433 78.475 19.8348C78.4424 20.0263 78.3864 20.3397 78.3506 20.5312C78.2633 20.9989 78.2678 22.1841 78.3586 22.6334C78.4914 23.2905 78.7985 23.928 79.1995 24.3793C80.0138 25.2955 81.427 25.8674 83.5147 26.1255C84.2536 26.2169 87.1646 26.2165 87.8332 26.1249C89.5179 25.8942 90.6063 25.5929 91.6973 25.055C94.1784 23.832 95.5519 21.8202 95.5518 19.4092C95.5518 18.7937 95.5357 18.6643 95.4133 18.296C95.2399 17.7744 94.9656 17.351 94.5616 16.9813C94.1992 16.6496 93.5719 16.3085 93.0871 16.1796C92.9018 16.1304 92.7316 16.0745 92.709 16.0554C92.6864 16.0364 92.8269 15.9789 93.0212 15.9277C94.7088 15.4829 96.0878 14.3806 96.7594 12.9393C97.2225 11.9454 97.3776 10.5216 97.124 9.5912C96.7098 8.07136 95.2568 7.01602 93.0623 6.64103C92.1691 6.48843 90.7342 6.42559 89.7063 6.49415ZM69.8826 8.41989C69.3246 9.242 68.1693 10.9425 67.3152 12.1986C66.4612 13.4548 65.2618 15.2196 64.65 16.1204L63.5376 17.7584H69.8605H76.1835L76.1543 17.4617C76.1382 17.2985 76.0667 16.3294 75.9955 15.3079C75.9242 14.2865 75.8308 12.9748 75.788 12.3932C75.6488 10.5031 75.3979 7.00715 75.3979 6.95705C75.3979 6.93931 74.3852 6.92486 73.1476 6.92497L70.8972 6.92512L69.8826 8.41989ZM147.22 8.58853C146.598 9.50361 145.805 10.6701 145.457 11.1808C144.184 13.0505 141.178 17.4786 141.088 17.6165L140.997 17.7584H147.305H153.613L153.576 17.1522C153.556 16.8188 153.509 16.1398 153.471 15.6432C153.432 15.1467 153.276 12.9819 153.123 10.8327L152.846 6.92486H150.598L148.35 6.92481L147.22 8.58853ZM161.829 7.09247C161.803 7.18466 161.698 7.52711 161.597 7.8534C161.241 9.00382 159.935 13.2483 159.844 13.5539C159.793 13.7241 159.535 14.5599 159.271 15.4111C159.007 16.2623 158.75 17.098 158.699 17.2683C158.601 17.5924 158.497 17.9334 157.423 21.4211C157.061 22.5986 156.626 24.0118 156.457 24.5615C156.288 25.1112 156.15 25.5707 156.15 25.5826C156.15 25.5945 158.59 25.5957 161.574 25.5853C166.365 25.5685 167.062 25.5561 167.544 25.4787C169.198 25.2138 170.507 24.7421 171.547 24.036C172.038 23.7029 172.869 22.8928 173.157 22.4667C173.836 21.462 174.167 20.3791 174.17 19.1512C174.172 18.1398 173.944 17.4873 173.373 16.8692C172.931 16.391 172.186 15.9509 171.605 15.8244C171.518 15.8054 171.447 15.7731 171.447 15.7526C171.447 15.7322 171.673 15.6524 171.95 15.5752C172.529 15.4139 173.311 15.0609 173.701 14.7849C174.588 14.158 175.382 13.1255 175.735 12.1436C176.015 11.3617 176.106 10.2275 175.949 9.48942C175.713 8.38811 174.848 7.53572 173.606 7.18048C172.748 6.93518 172.531 6.92677 167.039 6.92574L161.878 6.92481L161.829 7.09247ZM179.859 6.9635C179.829 7.01509 178.828 10.2199 178.796 10.3683L178.771 10.4844H181.587C183.758 10.4844 184.402 10.4987 184.402 10.547C184.402 10.5967 181.906 18.8106 181.02 21.6791C180.91 22.0337 180.711 22.6837 180.578 23.1235C180.382 23.7669 180.113 24.6442 179.845 25.5095C179.818 25.5945 179.945 25.5998 182.001 25.5998H184.186L184.24 25.4321C184.27 25.3399 184.414 24.8698 184.559 24.3874C184.705 23.9051 184.903 23.2551 184.999 22.943C185.213 22.2479 185.37 21.7328 186.691 17.3972C187.763 13.8822 188.127 12.6914 188.435 11.6967C188.532 11.3846 188.652 10.9842 188.701 10.8068L188.79 10.4844L191.682 10.4837L194.574 10.483L195.005 9.10375C195.242 8.34509 195.492 7.54449 195.561 7.32462L195.685 6.92481H187.783C183.437 6.92481 179.871 6.94225 179.859 6.9635ZM102.957 7.01509C102.933 7.05574 102.61 8.0725 102.453 8.60143C102.402 8.77167 102.028 9.99045 101.621 11.3098C101.215 12.6292 100.84 13.848 100.789 14.0182C100.738 14.1884 100.398 15.2911 100.035 16.4686C99.6712 17.6461 99.2962 18.8649 99.2014 19.177C99.1066 19.4891 98.732 20.7079 98.3689 21.8854C98.0059 23.0629 97.6743 24.1424 97.6321 24.2843C97.5899 24.4261 97.4895 24.7511 97.4091 25.0065C97.3286 25.2619 97.2468 25.523 97.2273 25.5869L97.1917 25.7029H99.4788H101.766L104.881 22.2879C106.594 20.4096 109.022 17.7458 110.277 16.3681C111.532 14.9905 112.647 13.7737 112.755 13.6639L112.952 13.4644L112.079 16.3465C110.134 22.7717 109.27 25.6411 109.27 25.6712C109.27 25.6887 110.248 25.7029 111.444 25.7029H113.619L114.209 23.7813C115.743 18.7852 116.387 16.6911 116.997 14.7146C117.36 13.5371 117.735 12.3184 117.829 12.0063C117.923 11.6941 118.298 10.4754 118.662 9.29787C119.026 8.12037 119.335 7.11636 119.35 7.06668C119.374 6.98166 119.24 6.9764 117.033 6.9764H114.691L113.242 8.55964C112.445 9.43045 111.548 10.4128 111.247 10.7428C110.947 11.0726 110.49 11.5731 110.232 11.8549C109.974 12.1368 108.397 13.8604 106.727 15.6852C105.058 17.5101 103.681 18.9925 103.668 18.9795C103.655 18.9665 104.128 17.3806 104.719 15.4553C105.31 13.53 105.875 11.6877 105.975 11.3614C106.074 11.0351 106.234 10.5128 106.329 10.2007C106.424 9.88856 106.68 9.05659 106.897 8.35185C107.115 7.6471 107.293 7.04929 107.293 7.02345C107.293 6.96675 102.991 6.95845 102.957 7.01509ZM127.902 7.03366C125.992 7.20194 124.27 7.829 122.859 8.86979C121.472 9.89392 120.618 11.3209 120.319 13.1148C120.196 13.854 120.208 15.1779 120.344 15.7811C120.701 17.3707 121.637 18.3793 123.071 18.7201C123.292 18.7728 123.468 18.8319 123.461 18.8513C123.454 18.8708 123.307 19.0333 123.135 19.2124C122.528 19.8437 119.851 22.6362 119.29 23.2245C118.568 23.9812 117.786 24.7915 117.286 25.3031L116.895 25.7029L119.495 25.6997L122.095 25.6965L123.318 24.2712C123.991 23.4872 125.238 22.0377 126.091 21.0501L127.641 19.2544H128.964C130 19.2544 130.282 19.2684 130.263 19.3189C130.25 19.3544 129.817 20.7647 129.301 22.4529C128.785 24.1411 128.35 25.5632 128.334 25.6132C128.307 25.6991 128.427 25.7033 130.533 25.6906L132.76 25.6772L132.899 25.2129C132.975 24.9575 133.453 23.4021 133.959 21.7564C134.466 20.1108 134.922 18.625 134.973 18.4548C135.025 18.2845 135.184 17.7622 135.328 17.2941C135.472 16.8259 136.003 15.0964 136.508 13.4507C137.014 11.8051 137.506 10.2032 137.602 9.89114C138.276 7.70503 138.459 7.09758 138.459 7.04089C138.459 6.98971 137.422 6.97784 133.425 6.98352C130.656 6.98739 128.171 7.00998 127.902 7.03366ZM37.5716 14.8363L28.9605 19.8493L28.934 24.1561L28.9076 28.4629L28.8947 24.1553L28.8818 19.8477L27.5683 19.0925C25.8408 18.0993 24.0142 17.0458 17.2072 13.1165L11.5415 9.84605L11.3798 9.93927C11.2908 9.99055 10.7497 10.2942 10.1774 10.6141C9.60506 10.9339 8.80899 11.3798 8.40835 11.6048C8.00771 11.8298 7.3053 12.2242 6.84743 12.4811C6.38956 12.738 4.86766 13.592 3.46543 14.3788C2.0632 15.1656 0.815559 15.8675 0.692922 15.9386L0.469971 16.0679L0.822999 16.2736C1.01718 16.3868 1.74972 16.8101 2.45083 17.2142C3.15195 17.6184 9.36832 21.2076 16.265 25.1903C23.6777 29.471 28.8576 32.4321 28.9345 32.4328C29.0147 32.4337 32.1529 30.6382 37.1293 27.7444C41.5649 25.1651 47.9101 21.4773 51.2296 19.5493C54.5492 17.6214 57.2836 16.0273 57.3061 16.0068C57.3286 15.9864 57.0125 15.7831 56.6037 15.5551C56.1949 15.3271 54.8067 14.5545 53.519 13.8381C52.2312 13.1218 50.8966 12.378 50.5532 12.1852C48.0942 10.8051 46.2889 9.81448 46.2401 9.8186C46.2085 9.82124 42.3077 12.0793 37.5716 14.8363ZM206.422 10.1148C207.18 10.3387 207.822 10.8174 208.168 11.4173C208.257 11.5713 208.393 11.9061 208.471 12.1613C208.597 12.575 208.615 12.7288 208.635 13.5797C208.662 14.658 208.588 15.3499 208.337 16.3913C207.892 18.2371 206.973 19.8991 205.754 21.0639C205.068 21.7193 204.265 22.18 203.408 22.4103C202.832 22.5653 201.579 22.6015 201.014 22.4795C200.391 22.3446 199.9 22.0882 199.497 21.6866C199.076 21.2668 198.85 20.8552 198.678 20.1961C198.365 18.9954 198.588 16.7143 199.181 15.05C199.777 13.3768 200.836 11.8533 202.015 10.9747C202.612 10.5292 203.553 10.1379 204.304 10.0224C204.819 9.94314 206.017 9.9954 206.422 10.1148ZM170.042 10.6039C170.44 10.7572 170.744 11.0152 170.901 11.3326C171.031 11.5952 171.041 11.6596 171.02 12.0712C170.978 12.8873 170.591 13.4331 169.767 13.8381C169.09 14.1706 168.852 14.1949 166.251 14.197C164.247 14.1986 163.999 14.1899 164.026 14.1198C164.042 14.0764 164.21 13.4438 164.399 12.714C164.748 11.3578 164.931 10.6657 164.971 10.5461C164.989 10.4916 165.455 10.4821 167.401 10.4963C169.54 10.5119 169.834 10.5239 170.042 10.6039ZM132.907 10.5747C132.918 10.5959 132.77 11.1357 132.576 11.7741C132.383 12.4125 132.04 13.55 131.814 14.3019L131.403 15.669L129.194 15.6673C127.29 15.6659 126.938 15.6535 126.635 15.5777C125.929 15.4012 125.451 15.0647 125.209 14.5728C125.083 14.3192 125.067 14.2274 125.069 13.7907C125.073 12.9107 125.341 12.2813 125.973 11.6619C126.613 11.034 127.457 10.6781 128.509 10.5919C129.162 10.5384 132.879 10.5239 132.907 10.5747ZM167.982 17.8332C168.904 18.0082 169.268 18.3272 169.421 19.0943C169.497 19.4807 169.423 20.1123 169.256 20.4879C168.995 21.0784 168.288 21.6613 167.441 21.9853C166.842 22.2141 166.397 22.2465 163.858 22.2465H161.549L161.574 22.1305C161.595 22.0288 162.203 20.0472 162.736 18.3387L162.917 17.7584H165.252C167.077 17.7584 167.673 17.7747 167.982 17.8332ZM60.4588 22.2565C59.1888 24.1063 58.1419 25.6385 58.1324 25.6614C58.1228 25.6842 59.1647 25.7027 60.4478 25.7024L62.7804 25.7019L62.8845 25.5291C62.9417 25.4341 63.4567 24.6334 64.0289 23.7498L65.0693 22.1434H68.5644H72.0597L72.0902 22.4658C72.1071 22.6431 72.1382 23.4382 72.1594 24.2327L72.198 25.6772L74.4795 25.6906L76.761 25.704L76.7294 25.4069C76.7119 25.2434 76.651 24.4248 76.594 23.5878C76.4681 21.741 76.3975 20.7335 76.332 19.8503C76.3047 19.4828 76.2824 19.1172 76.2824 19.0377V18.8933H69.5252H62.768L60.4588 22.2565ZM139.883 19.3717C139.536 19.8887 136.826 23.8448 136.032 24.9941L135.541 25.704L137.889 25.6906L140.236 25.6772L141.369 23.9231L142.502 22.1691L146.015 22.1559L149.528 22.1426L149.561 23.0845C149.58 23.6025 149.609 24.4036 149.626 24.8646L149.658 25.7029H151.915H154.172V25.5405C154.172 25.4512 154.114 24.5516 154.043 23.5415C153.972 22.5313 153.878 21.1709 153.834 20.5183C153.79 19.8657 153.741 19.2331 153.726 19.1125L153.698 18.8933L146.95 18.8945L140.202 18.8957L139.883 19.3717ZM72.3708 32.4866C70.4579 32.8058 68.88 34.1786 68.3528 35.9823C67.795 37.8909 68.3617 39.3201 69.8826 39.8405C70.5468 40.0677 72.0626 40.0305 72.8288 39.7682L73.0305 39.6992L73.0565 39.0851C73.0708 38.7473 73.0792 38.4639 73.0751 38.4551C73.071 38.4463 72.9305 38.48 72.7629 38.5299C72.3239 38.6606 71.1444 38.6628 70.8261 38.5335C70.4553 38.3829 70.2598 38.2002 70.0781 37.8343C69.9237 37.5233 69.9089 37.4518 69.9116 37.0277C69.9212 35.5052 70.9049 34.1832 72.2761 33.8502C72.6502 33.7593 73.5263 33.7683 73.889 33.8667C74.0464 33.9095 74.207 33.9531 74.2459 33.9636C74.2929 33.9764 74.411 33.776 74.5971 33.3676C74.7514 33.0292 74.8776 32.7437 74.8776 32.733C74.8776 32.685 74.4626 32.5496 74.1106 32.4828C73.6441 32.3943 72.9146 32.396 72.3708 32.4866ZM156.28 32.485C154.281 32.8491 152.743 34.6553 152.45 36.9837C152.333 37.9108 152.573 38.7139 153.134 39.2776C153.649 39.7948 154.205 39.9934 155.133 39.9921C156.049 39.9909 156.705 39.7953 157.476 39.2937C158.339 38.7326 158.974 37.8905 159.367 36.7859C159.827 35.4895 159.807 34.2519 159.313 33.479C158.769 32.6288 157.598 32.245 156.28 32.485ZM174.912 32.5133C173.496 32.8091 172.299 33.8287 171.651 35.2895C170.788 37.2369 171.094 38.9803 172.425 39.6988C173.15 40.0901 174.43 40.1015 175.401 39.7255C176.189 39.4204 176.982 38.7874 177.477 38.0675C178.135 37.1116 178.561 35.5417 178.425 34.5738C178.327 33.8723 178.117 33.4457 177.679 33.0524C177.031 32.4722 176.037 32.2784 174.912 32.5133ZM195.411 32.4665C193.574 32.7323 192.001 33.9621 191.374 35.6232C191.085 36.3874 190.977 37.5294 191.136 38.1225C191.319 38.8052 191.771 39.361 192.381 39.6566C192.942 39.9277 193.272 39.993 194.078 39.992C194.776 39.9911 195.245 39.9256 195.757 39.7568L196.005 39.6751V39.0602C196.005 38.722 195.991 38.4452 195.974 38.4452C195.957 38.4452 195.811 38.4852 195.649 38.5341C195.434 38.5989 195.165 38.6233 194.652 38.6244C194.021 38.6257 193.922 38.6133 193.675 38.5026C193.105 38.2474 192.808 37.7167 192.82 36.975C192.843 35.5277 193.769 34.2652 195.095 33.8742C195.534 33.7444 196.488 33.7554 196.904 33.8949C197.179 33.9872 197.209 33.9886 197.25 33.912C197.329 33.7642 197.774 32.771 197.774 32.7418C197.774 32.6858 197.385 32.5546 197.007 32.4828C196.587 32.4031 195.899 32.396 195.411 32.4665ZM184.61 32.5177C184.281 32.5428 183.897 32.5926 183.756 32.6283L183.5 32.6932L183.382 33.0543C183.317 33.2529 183.026 34.1815 182.736 35.1178C182.445 36.0541 182.011 37.447 181.772 38.2131C181.533 38.9792 181.322 39.6705 181.303 39.7492L181.268 39.8926L182.039 39.8782L182.809 39.8639L183.028 39.1675C183.148 38.7844 183.331 38.2003 183.434 37.8693L183.622 37.2674L184.207 37.2674C185.486 37.2672 186.379 36.9677 187.078 36.3043C187.644 35.767 187.93 35.167 187.978 34.4162C187.999 34.079 187.985 33.9098 187.918 33.7109C187.815 33.4021 187.498 33.0264 187.189 32.8471C186.689 32.5567 185.72 32.4328 184.61 32.5177ZM59.8927 32.5601C59.8927 32.5875 59.9854 33.0814 60.0985 33.6575C60.7343 36.8946 60.8293 37.4054 60.8293 37.588C60.8293 37.8464 60.6744 38.0917 60.3509 38.3451C60.0161 38.6075 59.7537 38.6771 59.3474 38.6112C59.1752 38.5832 59.0319 38.5634 59.029 38.5673C58.9833 38.6282 58.6012 39.8111 58.6183 39.8386C58.6683 39.9189 59.124 39.9929 59.5681 39.9929C60.0895 39.9929 60.4422 39.9072 60.9073 39.6673C61.3724 39.4275 62.3075 38.4763 62.8693 37.6714C63.4282 36.8707 66.1364 32.6368 66.1364 32.5637C66.1364 32.5283 65.8357 32.5149 65.2475 32.5243L64.3587 32.5384L63.2961 34.4729C62.7117 35.537 62.2204 36.4482 62.2043 36.4978C62.1404 36.6953 62.0906 36.5656 62.0559 36.1109C62.0358 35.8484 61.9324 34.9372 61.8259 34.086L61.6323 32.5384L60.7625 32.5243C60.2266 32.5155 59.8927 32.5293 59.8927 32.5601ZM78.5139 32.6545C78.4834 32.7325 78.3811 33.0401 78.2865 33.338L78.1146 33.8797L79.0716 33.8937C79.6958 33.9029 80.0286 33.9266 80.0286 33.9619C80.0286 34.0077 78.2928 39.6386 78.2212 39.8252C78.202 39.8751 78.3776 39.8897 78.9955 39.8894L79.7945 39.8891L80.1408 38.7674C80.5219 37.533 81.2477 35.1955 81.4939 34.4095L81.6512 33.9077L82.6445 33.8937L83.638 33.8797L83.836 33.2606C83.9449 32.9201 84.0343 32.6126 84.0345 32.5771C84.0349 32.5263 83.454 32.5126 81.3021 32.5126H78.5692L78.5139 32.6545ZM87.9208 32.5513C87.8939 32.5973 87.6671 33.3149 86.922 35.7111C86.6176 36.69 86.2038 38.0203 86.0025 38.6674C85.8011 39.3145 85.6461 39.8535 85.6579 39.8652C85.7068 39.9137 87.3691 39.9955 87.7292 39.9672C89.1384 39.8562 90.0829 39.5265 90.7588 38.9097C91.3039 38.4122 91.6038 37.8031 91.6669 37.065C91.7424 36.1809 91.3298 35.5162 90.5015 35.1877C90.2359 35.0823 90.1119 35.0682 89.4433 35.0672L88.686 35.0662L89.0195 34.0087C89.2029 33.427 89.3826 32.8649 89.4188 32.7595C89.4551 32.6542 89.4722 32.5555 89.4568 32.5403C89.4133 32.4972 87.9463 32.5077 87.9208 32.5513ZM102.586 36.1367C101.96 38.1299 101.437 39.7904 101.424 39.8266C101.406 39.8786 101.568 39.8895 102.193 39.8782L102.986 39.8639L103.334 38.7548C103.525 38.1447 103.739 37.4521 103.809 37.2155L103.937 36.7853L104.261 36.8052C104.979 36.8491 105.103 37.1192 105.264 38.9869C105.351 39.9985 105.24 39.8897 106.186 39.8897H106.993L106.963 39.7479C106.946 39.6698 106.907 39.339 106.876 39.0127C106.668 36.8629 106.519 36.3473 105.997 35.9643L105.842 35.8507L106.606 35.1206C107.027 34.719 107.798 33.9868 108.32 33.4933C108.843 33 109.27 32.5774 109.27 32.5544C109.27 32.5314 108.851 32.5126 108.339 32.5126H107.407L106.734 33.2219C106.363 33.6121 105.704 34.3143 105.268 34.7825C104.525 35.5804 104.327 35.7539 104.327 35.6058C104.327 35.5722 104.538 34.8767 104.795 34.0602C105.053 33.2438 105.264 32.5616 105.264 32.5442C105.264 32.5268 104.917 32.5126 104.494 32.5126H103.724L102.586 36.1367ZM114.524 33.2993C112.396 36.7661 110.519 39.8444 110.519 39.8674C110.519 39.8797 110.891 39.8897 111.346 39.8897H112.174L112.729 38.9353L113.285 37.981H114.354H115.423L115.386 38.9353L115.348 39.8897H116.185H117.022V36.2012V32.5126H116.015H115.007L114.524 33.2993ZM123.344 32.576C123.331 32.6121 123.182 33.013 123.011 33.467C122.288 35.3967 121.816 36.6562 121.263 38.1357C120.939 39.0011 120.658 39.7498 120.638 39.7994C120.604 39.8829 120.657 39.8897 121.329 39.8897H122.057L122.114 39.7479C122.145 39.6698 122.371 39.0488 122.617 38.3679C122.863 37.6869 123.116 36.9905 123.181 36.8202C123.245 36.65 123.483 35.9485 123.709 35.2614C123.935 34.5743 124.125 34.018 124.133 34.0253C124.14 34.0325 124.113 34.5251 124.072 35.1198C124.013 35.984 123.893 38.9852 123.891 39.6447L123.891 39.7865L124.502 39.7857L125.113 39.7848L126.219 38.0127C127.22 36.4077 127.934 35.2135 128.419 34.3332C128.516 34.1571 128.603 34.0209 128.613 34.0306C128.623 34.0403 128.534 34.3585 128.417 34.7378C128.234 35.3251 127.98 36.2373 127.142 39.3086C127.071 39.5707 127.012 39.8086 127.012 39.8374C127.012 39.8704 127.291 39.8897 127.765 39.8897H128.518L128.595 39.6189C128.637 39.4699 128.874 38.5587 129.12 37.594C129.367 36.6293 129.754 35.118 129.981 34.2354C130.208 33.3529 130.394 32.6042 130.394 32.5717C130.394 32.5292 130.098 32.5128 129.341 32.5132L128.287 32.5139L128.179 32.6809C127.687 33.4439 125.953 36.3517 125.635 36.9492L125.235 37.6972L125.266 37.3161C125.309 36.7941 125.443 33.8608 125.458 33.1317L125.471 32.5384L124.419 32.5244C123.606 32.5136 123.362 32.5253 123.344 32.576ZM135.106 32.5589C135.091 32.5843 134.901 33.1705 134.684 33.8615C134.468 34.5524 134.2 35.408 134.088 35.7627C133.977 36.1173 133.684 37.0575 133.438 37.852C133.191 38.6464 132.946 39.4299 132.892 39.5931L132.795 39.8897H135.072H137.349L137.54 39.278C137.645 38.9416 137.731 38.6398 137.731 38.6074C137.731 38.5646 137.332 38.5484 136.274 38.5484C135.473 38.5484 134.817 38.5329 134.817 38.5141C134.817 38.4951 134.924 38.1411 135.054 37.7273C135.185 37.3136 135.304 36.9343 135.318 36.8847C135.342 36.8018 135.452 36.7944 136.666 36.7944H137.987L138.172 36.2141C138.274 35.8949 138.37 35.593 138.386 35.5434C138.412 35.4591 138.328 35.4531 137.11 35.4531C136.187 35.4531 135.806 35.4364 135.806 35.3957C135.806 35.3641 135.912 35.0043 136.042 34.5961L136.279 33.8539H137.675H139.072L139.278 33.2219C139.391 32.8744 139.474 32.5726 139.462 32.5513C139.432 32.4956 135.141 32.5031 135.106 32.5589ZM143.695 32.7576C143.651 32.8924 143.51 33.3393 143.382 33.7507C143.255 34.1621 143.045 34.8354 142.916 35.2468C141.631 39.3551 141.477 39.8513 141.477 39.8733C141.477 39.8838 141.832 39.886 142.267 39.8782L143.057 39.8639L143.536 38.3421L144.015 36.8202L145.347 36.8064C146.108 36.7986 146.68 36.8125 146.68 36.8389C146.68 36.8773 145.844 39.6223 145.77 39.8252C145.752 39.875 145.928 39.8897 146.542 39.8897H147.338L147.655 38.8708C147.829 38.3105 148.128 37.3529 148.319 36.7428C148.51 36.1328 148.769 35.3029 148.896 34.8986C149.022 34.4943 149.231 33.8275 149.36 33.4169C149.488 33.0063 149.594 32.6343 149.594 32.5901C149.594 32.5204 149.492 32.5117 148.826 32.5241L148.059 32.5384L147.868 33.1317C147.762 33.458 147.557 34.1022 147.41 34.5632L147.144 35.4015H145.796H144.449L144.522 35.1823C144.69 34.6772 145.327 32.6002 145.327 32.5582C145.327 32.5331 144.978 32.5126 144.551 32.5126H143.775L143.695 32.7576ZM164.816 32.5589C164.8 32.5843 164.61 33.1705 164.394 33.8615C164.177 34.5524 163.909 35.408 163.798 35.7627C163.687 36.1173 163.393 37.0575 163.145 37.852C162.898 38.6464 162.654 39.4241 162.604 39.5802L162.513 39.8639L163.293 39.8782C163.722 39.8861 164.079 39.8861 164.087 39.8782C164.101 39.8641 164.271 39.329 164.924 37.2329C165.11 36.6371 165.369 35.813 165.498 35.4015C165.628 34.9901 165.785 34.4852 165.846 34.2795L165.957 33.9055H167.245C167.953 33.9055 168.533 33.8958 168.533 33.8839C168.533 33.872 168.616 33.5993 168.717 33.2778C168.818 32.9562 168.913 32.6525 168.928 32.6029C168.954 32.518 168.834 32.5126 166.9 32.5126C165.744 32.5126 164.832 32.5328 164.816 32.5589ZM201.964 32.835C201.911 33.0124 201.815 33.32 201.751 33.5186C201.687 33.7172 201.54 34.1815 201.424 34.5503C200.424 37.7411 199.786 39.7715 199.764 39.8266C199.744 39.8786 199.907 39.8895 200.537 39.8782L201.335 39.8639L201.501 39.3222C201.592 39.0243 201.805 38.3395 201.974 37.8004L202.281 36.8202L202.6 36.8206C202.985 36.821 203.157 36.9253 203.328 37.2619C203.448 37.4984 203.5 37.8224 203.603 38.9611C203.636 39.3158 203.675 39.6698 203.69 39.7479L203.719 39.8897H204.525H205.332L205.299 39.6963C205.281 39.5899 205.243 39.2707 205.214 38.9869C205.186 38.7032 205.137 38.2273 205.107 37.9294C205.004 36.9265 204.789 36.3535 204.389 36.012L204.188 35.84L205.898 34.2207C206.838 33.3301 207.608 32.5808 207.608 32.5558C207.608 32.5307 207.184 32.5166 206.66 32.5243L205.712 32.5384L204.266 34.086C202.932 35.5139 202.665 35.768 202.665 35.6083C202.665 35.5759 202.876 34.8858 203.133 34.0747C203.391 33.2636 203.602 32.5803 203.602 32.5563C203.602 32.5322 203.255 32.5126 202.831 32.5126H202.06L201.964 32.835ZM157.387 33.8647C157.984 34.1411 158.174 34.9506 157.896 36.0376C157.681 36.8785 157.253 37.6181 156.673 38.1502C156.223 38.5633 155.958 38.6774 155.446 38.6774C154.909 38.6774 154.589 38.5306 154.345 38.1719C154.05 37.7378 154.044 36.9061 154.33 36.0598C154.918 34.3186 156.27 33.3482 157.387 33.8647ZM176.014 33.8113C176.474 33.9502 176.711 34.3443 176.743 35.0239C176.781 35.8175 176.524 36.6717 176.015 37.4421C175.478 38.2548 174.825 38.7032 174.178 38.7032C173.648 38.7032 173.263 38.4898 173.025 38.0651C172.888 37.8185 172.878 37.7617 172.879 37.2329C172.881 36.5848 172.964 36.2322 173.27 35.5732C173.922 34.1667 174.967 33.4957 176.014 33.8113ZM115.55 35.2855L115.493 36.7944H114.694C114.254 36.7944 113.904 36.777 113.916 36.7557C113.928 36.7344 114.21 36.2493 114.541 35.6776C114.873 35.1059 115.244 34.4394 115.366 34.1964C115.487 33.9534 115.592 33.7595 115.597 33.7656C115.603 33.7716 115.582 34.4556 115.55 35.2855ZM185.949 33.852C186.271 33.9971 186.392 34.215 186.364 34.6034C186.324 35.1542 185.999 35.5813 185.417 35.8493C185.144 35.9748 185.041 35.993 184.602 35.9939C184.325 35.9944 184.084 35.9802 184.066 35.9623C184.028 35.925 184.648 33.9129 184.727 33.8152C184.815 33.7065 185.684 33.7327 185.949 33.852ZM89.5022 36.4389C89.7997 36.6022 89.9301 36.8316 89.935 37.2003C89.9428 37.786 89.6135 38.2508 88.987 38.5385C88.7404 38.6517 88.5995 38.6774 88.1324 38.6943C87.6852 38.7106 87.5732 38.7005 87.5736 38.6444C87.5738 38.6058 87.6761 38.2492 87.8009 37.852C87.9257 37.4548 88.0807 36.9511 88.1454 36.7327C88.256 36.3591 88.2725 36.3343 88.4253 36.3124C88.8006 36.2585 89.2753 36.3143 89.5022 36.4389ZM95.5608 36.5494C95.4936 36.7485 95.2736 37.5019 95.2736 37.5331C95.2736 37.5533 95.9107 37.5637 96.6893 37.5562L98.1049 37.5425L98.2711 37.0137L98.4373 36.4849H97.0099C95.9143 36.4849 95.5775 36.4999 95.5608 36.5494Z" fill="#7ECAE9"/>
<path fill-rule="evenodd" clip-rule="evenodd" d="M28.9346 7.98062V15.7945L29.4939 15.4697C29.8016 15.291 32.5234 13.7095 35.5425 11.9552C38.5616 10.201 41.4013 8.55124 41.8531 8.28912L42.6744 7.81254L42.5035 7.71024C42.2985 7.58762 41.644 7.22155 39.6009 6.08676C38.7567 5.61793 37.4104 4.86886 36.6091 4.42221C33.5606 2.723 32.6021 2.18973 30.8857 1.23818C29.9127 0.698778 29.0944 0.237011 29.0672 0.212094C29.0401 0.187177 28.9991 0.166748 28.9762 0.166748C28.9533 0.166748 28.9346 3.68301 28.9346 7.98062ZM204.408 6.48801C203.45 6.61219 202.303 6.90469 201.552 7.21618C200.64 7.59484 199.601 8.20338 198.841 8.80459C198.293 9.23793 197.347 10.1845 196.852 10.7939C194.985 13.0935 193.946 15.7018 193.714 18.6731C193.439 22.1781 194.952 24.6858 197.938 25.6742C199.705 26.2592 202.238 26.3016 204.33 25.7812C205.813 25.4124 207.267 24.6869 208.493 23.7052C208.954 23.3354 209.901 22.3789 210.346 21.8338C212.006 19.798 213.04 17.382 213.404 14.6888C213.64 12.9358 213.526 11.5444 213.045 10.3038C212.217 8.17113 210.326 6.83959 207.626 6.48853C206.879 6.39139 205.156 6.39108 204.408 6.48801ZM89.7585 6.4924C89.1424 6.52846 88.1279 6.66945 87.5236 6.80301C84.6227 7.444 82.5593 8.99469 81.3574 11.4372C81.0863 11.9881 80.7572 12.8402 80.7572 12.9911C80.7572 13.0542 81.0613 13.063 82.8416 13.0515L84.926 13.038L85.0613 12.7041C85.4229 11.8119 86.0703 11.0884 86.8708 10.6822C87.7905 10.2154 88.5144 10.0478 89.6024 10.0495C90.829 10.0515 91.6702 10.307 92.1447 10.8217C92.4289 11.1301 92.5166 11.3693 92.5149 11.8317C92.5105 12.9455 91.799 13.8393 90.617 14.2156C90.1156 14.3753 89.6681 14.4182 88.1737 14.4503L86.6671 14.4825L86.6047 14.6888C86.5704 14.8023 86.3411 15.5298 86.0952 16.3054C85.8493 17.081 85.648 17.7342 85.648 17.7569C85.648 17.7796 86.4499 17.8099 87.4301 17.8243C89.3396 17.8523 89.601 17.8831 90.1132 18.1405C90.6771 18.4238 90.9178 18.8328 90.9203 19.5124C90.9232 20.2992 90.6737 20.89 90.1029 21.4476C89.2375 22.2931 87.8488 22.7043 86.0643 22.6435C85.0982 22.6105 84.4672 22.5054 83.9466 22.2905C83.0285 21.9115 82.604 21.2983 82.5414 20.2604C82.5209 19.9201 82.5353 19.7236 82.5952 19.5246L82.677 19.2532L80.6412 19.2667L78.6053 19.2802L78.5627 19.435C78.4779 19.7427 78.3081 20.8374 78.2786 21.2662C78.1937 22.5036 78.5441 23.631 79.2662 24.4431C79.861 25.112 81.1072 25.7021 82.4742 25.9622C83.6319 26.1825 85.8947 26.2836 87.181 26.1725C90.1463 25.9164 92.2244 25.1069 93.7421 23.6169C94.8098 22.5685 95.3654 21.4309 95.5366 19.9422C95.7232 18.3199 95.0896 17.0861 93.7388 16.4414C93.4813 16.3184 93.1359 16.1877 92.9714 16.151C92.6437 16.0777 92.5949 16.0229 92.8153 15.9756C93.4725 15.8347 94.2014 15.5312 94.7794 15.1576C95.9885 14.3762 96.8394 13.1697 97.1294 11.8257C97.2582 11.2287 97.2592 10.1255 97.1312 9.65899C96.6677 7.9687 95.1903 6.94122 92.7175 6.58928C92.1805 6.51288 90.4031 6.45469 89.7585 6.4924ZM161.873 6.94375C161.873 6.95638 161.613 7.81043 161.295 8.84163C160.977 9.87282 160.675 10.8558 160.624 11.0261C160.573 11.1963 160.199 12.4151 159.792 13.7345C159.385 15.0538 159.01 16.2726 158.959 16.4428C158.908 16.6131 158.569 17.7158 158.205 18.8933C157.842 20.0708 157.467 21.2896 157.372 21.6017C157.192 22.1923 156.222 25.3498 156.171 25.5119C156.142 25.6009 156.364 25.6039 161.57 25.5859C167.427 25.5658 167.156 25.5776 168.524 25.2841C169.7 25.0318 170.882 24.5169 171.737 23.8839C173.183 22.8148 173.968 21.4348 174.152 19.6432C174.331 17.9004 173.62 16.6395 172.096 15.9954C171.924 15.9227 171.708 15.8466 171.615 15.8265C171.523 15.8063 171.447 15.7731 171.447 15.7526C171.447 15.7322 171.671 15.6529 171.946 15.5764C172.913 15.3069 173.674 14.877 174.378 14.2026C175.08 13.5309 175.595 12.6676 175.859 11.7225C175.982 11.2834 175.996 11.1439 175.995 10.3812C175.994 9.57366 175.986 9.51021 175.847 9.14311C175.657 8.64549 175.434 8.30521 175.084 7.97902C174.609 7.53753 174.061 7.27995 173.138 7.06513C172.68 6.95829 172.553 6.95556 167.271 6.93838C164.302 6.92868 161.873 6.93111 161.873 6.94375ZM179.851 6.9893C179.676 7.50539 178.783 10.3992 178.783 10.4484C178.783 10.4682 180.057 10.4844 181.613 10.4844H184.443L184.29 10.9874C183.976 12.0124 183.624 13.1636 183.388 13.9408C183.254 14.3806 183.03 15.1119 182.891 15.5658C182.752 16.0198 182.015 18.4293 181.254 20.9201C180.493 23.4109 179.858 25.4829 179.842 25.5243C179.816 25.5898 180.102 25.5998 182 25.5998C184.038 25.5998 184.189 25.5936 184.214 25.5095C184.244 25.4088 185.679 20.6959 186.048 19.4866C186.178 19.061 186.384 18.3877 186.506 17.9905C186.629 17.5933 187.194 15.7419 187.764 13.8763L188.799 10.4844L191.687 10.4839L194.574 10.4834L195.126 8.70409L195.677 6.92481H187.775C181.499 6.92481 179.868 6.93807 179.851 6.9893ZM102.955 7.017C102.941 7.03934 102.86 7.28887 102.775 7.57157C102.69 7.85428 102.405 8.78199 102.141 9.6332C101.877 10.4844 101.62 11.3201 101.569 11.4904C101.518 11.6606 101.144 12.8794 100.737 14.1988C100.33 15.5181 99.9555 16.7369 99.9044 16.9071C99.8532 17.0774 99.5141 18.1801 99.1509 19.3576C98.7876 20.5351 98.4131 21.7539 98.3187 22.066C98.0398 22.9874 97.247 25.5498 97.2161 25.6295C97.1918 25.6924 97.5175 25.7029 99.4748 25.7029H101.762L104.124 23.1124C105.423 21.6877 106.838 20.1365 107.267 19.6654C107.696 19.1942 108.469 18.3469 108.984 17.7823C109.499 17.2178 110.154 16.4998 110.439 16.1867C111.883 14.6037 112.921 13.4765 112.937 13.4765C112.946 13.4765 112.92 13.5868 112.879 13.7216C112.838 13.8564 112.183 16.0211 111.424 18.5322C110.665 21.0432 109.87 23.6711 109.657 24.3719C109.444 25.0726 109.27 25.6588 109.27 25.6745C109.27 25.7271 113.581 25.7055 113.614 25.6527C113.642 25.6065 113.769 25.2039 114.239 23.6652C114.334 23.3531 114.709 22.1343 115.072 20.9568C115.436 19.7793 115.774 18.6766 115.825 18.5064C115.877 18.3361 116.251 17.1174 116.658 15.798C117.065 14.4786 117.44 13.2599 117.491 13.0896C117.542 12.9194 117.881 11.8167 118.244 10.6392C119.226 7.45566 119.352 7.03284 119.322 7.00333C119.307 6.98852 118.26 6.9764 116.996 6.9764H114.698L109.76 12.3774C107.044 15.348 104.552 18.0733 104.223 18.4336C103.894 18.7939 103.62 19.0847 103.615 19.0798C103.606 19.0721 104.037 17.6502 104.664 15.6174C104.769 15.277 104.969 14.6269 105.108 14.173C105.247 13.719 105.784 11.9663 106.302 10.278C106.82 8.58982 107.257 7.15634 107.274 7.09247L107.304 6.9764H105.142C103.953 6.9764 102.969 6.99466 102.955 7.017ZM128.261 7.01055C125.376 7.16258 122.637 8.51466 121.364 10.4149C120.588 11.5739 120.248 12.7887 120.248 14.4084C120.248 15.698 120.439 16.4915 120.931 17.2461C121.436 18.0209 122.342 18.6118 123.256 18.763C123.379 18.7834 123.473 18.8209 123.464 18.8462C123.455 18.8717 121.997 20.405 120.222 22.2538C118.448 24.1025 116.989 25.6348 116.979 25.659C116.97 25.6832 118.113 25.7029 119.519 25.7029H122.076L122.216 25.5379C122.293 25.4472 123.544 23.9962 124.996 22.3136L127.636 19.2544H128.962C129.999 19.2544 130.282 19.2684 130.265 19.3189C130.24 19.3949 129.42 22.0718 129.171 22.8914C128.993 23.4786 128.536 24.9668 128.395 25.4192C128.351 25.5611 128.314 25.6832 128.314 25.6906C128.313 25.698 129.312 25.698 130.533 25.6906L132.752 25.6772L133.37 23.6652C134.091 21.3165 134.395 20.3218 134.634 19.5381C134.729 19.226 135.14 17.8912 135.546 16.5718C135.953 15.2524 136.327 14.0337 136.378 13.8634C136.429 13.6932 136.553 13.2869 136.654 12.9606C137.561 10.0236 138.459 7.07468 138.459 7.03052C138.459 6.99306 136.933 6.97934 133.503 6.98594C130.778 6.99121 128.419 7.00225 128.261 7.01055ZM43.3731 11.4772C41.7992 12.3912 37.9125 14.6495 34.736 16.4956L28.9606 19.8523L28.9474 25.74C28.9401 28.9783 28.9518 31.8135 28.9734 32.0405L29.0126 32.4532L29.4809 32.1809C30.5615 31.5523 49.8802 20.3267 53.4552 18.2499C56.8052 16.3039 57.3329 15.9814 57.2535 15.9286C57.2027 15.8948 56.6578 15.5877 56.0426 15.2461C55.0107 14.6732 49.4234 11.562 47.3014 10.3787C46.8006 10.0995 46.3558 9.85843 46.3128 9.84316C46.2676 9.82707 45.031 10.5144 43.3731 11.4772ZM206.443 10.1121C207.586 10.4733 208.287 11.2495 208.55 12.4448C208.645 12.8789 208.655 13.0586 208.634 14.0182C208.609 15.1701 208.52 15.8019 208.251 16.7524C207.566 19.175 206.091 21.1979 204.4 22.0342C203.652 22.4044 203.178 22.5149 202.218 22.5432C201.239 22.5719 200.844 22.5061 200.22 22.2102C199.493 21.866 198.908 21.1228 198.684 20.2604C198.261 18.6318 198.671 15.9479 199.645 13.9666C200.744 11.7307 202.278 10.4004 204.166 10.0459C204.736 9.93901 206.013 9.9761 206.443 10.1121ZM170.079 10.6208C170.459 10.7754 170.725 10.9997 170.895 11.3094C171.017 11.5317 171.04 11.6348 171.039 11.9491C171.036 12.8003 170.622 13.4285 169.796 13.8345C169.125 14.1648 169.109 14.1665 166.434 14.1863C164.091 14.2037 163.999 14.2008 164.028 14.1099C164.062 14.0023 164.071 13.9677 164.579 12.0063C164.785 11.2118 164.965 10.5433 164.979 10.5207C164.993 10.4981 166.085 10.4865 167.406 10.4949C169.723 10.5097 169.817 10.5141 170.079 10.6208ZM132.909 10.5747C132.921 10.5959 132.725 11.2982 132.472 12.1352C132.22 12.9722 131.877 14.1098 131.711 14.6631L131.408 15.669L129.416 15.6825C127.921 15.6927 127.302 15.6781 126.936 15.6241C126.051 15.4936 125.45 15.1154 125.176 14.5174C125.086 14.3211 125.066 14.1799 125.068 13.7603C125.073 12.8795 125.375 12.1986 126.032 11.5914C126.608 11.0585 127.449 10.6995 128.368 10.5939C128.849 10.5386 132.877 10.5216 132.909 10.5747ZM168.03 17.8324C168.462 17.9145 168.795 18.0607 169.019 18.267C169.683 18.8787 169.568 20.4168 168.804 21.1516C168.466 21.4761 167.722 21.9077 167.207 22.0779L166.79 22.2156L164.175 22.2352C162.16 22.2503 161.561 22.2405 161.561 22.1927C161.561 22.1384 161.787 21.3921 162.662 18.558C162.776 18.1891 162.878 17.8583 162.89 17.8228C162.922 17.7228 167.496 17.7312 168.03 17.8324ZM61.6837 20.4784C61.0851 21.3503 60.3173 22.4704 59.9774 22.9676C59.6377 23.4648 59.0973 24.2546 58.7766 24.7228C58.4559 25.1909 58.1765 25.603 58.1556 25.6385C58.1255 25.6896 58.598 25.7026 60.4491 25.7011L62.7805 25.6993L63.0667 25.2465C63.2241 24.9974 63.7369 24.1973 64.2061 23.4685L65.0594 22.1434H68.5579H72.0564L72.0859 22.311C72.102 22.4033 72.1293 23.1519 72.1465 23.9747C72.1638 24.7976 72.1887 25.523 72.202 25.5869L72.2261 25.7029H74.4902H76.7544L76.7261 25.4579C76.7105 25.3231 76.6506 24.5164 76.5928 23.6652C76.5351 22.814 76.4544 21.6417 76.4136 21.06C76.3727 20.4783 76.3233 19.7529 76.3038 19.4479L76.2683 18.8933H69.5202H62.7721L61.6837 20.4784ZM140.145 18.9893C140.119 19.0422 139.086 20.5599 137.848 22.3621C136.61 24.1643 135.598 25.6532 135.598 25.6709C135.598 25.6885 136.636 25.7029 137.906 25.7029H140.214L141.039 24.4261C141.492 23.7239 142.01 22.923 142.19 22.6463L142.516 22.1434H146.023H149.53L149.561 22.9043C149.578 23.3228 149.607 24.1237 149.625 24.6841L149.657 25.7029H151.915H154.172V25.5583C154.172 25.4788 154.114 24.6024 154.044 23.6109C153.973 22.6193 153.879 21.2741 153.835 20.6215C153.791 19.9689 153.742 19.3131 153.726 19.1641L153.697 18.8933H146.944C140.41 18.8933 140.191 18.8964 140.145 18.9893ZM72.4281 32.4859C70.7441 32.7672 69.3996 33.7397 68.6471 35.221C68.4201 35.6679 68.2736 36.1745 68.1888 36.8065C67.9672 38.4574 68.7008 39.5832 70.2152 39.9162C70.7621 40.0364 71.9522 39.9988 72.5532 39.8423C72.7771 39.784 72.9819 39.723 73.0084 39.7068C73.0349 39.6905 73.0566 39.3976 73.0566 39.0557C73.0566 38.5365 73.0443 38.4389 72.9818 38.4627C72.6614 38.5846 72.3737 38.6216 71.7298 38.6235C71.0335 38.6257 70.9882 38.6194 70.7019 38.48C70.0665 38.1708 69.785 37.4641 69.9332 36.5499C70.0611 35.7607 70.4108 35.0879 70.9649 34.5651C71.5704 33.9937 72.1492 33.777 73.0566 33.7817C73.4671 33.7839 73.7486 33.8129 73.9532 33.8743C74.1172 33.9235 74.2664 33.9636 74.2847 33.9633C74.3402 33.9625 74.8749 32.7474 74.8359 32.7111C74.7686 32.6486 74.3132 32.5161 73.9831 32.463C73.5552 32.3941 72.9214 32.4035 72.4281 32.4859ZM156.181 32.5133C154.52 32.8604 153.182 34.1895 152.645 36.0262C152.237 37.4209 152.406 38.5481 153.131 39.2738C153.456 39.5981 153.926 39.8531 154.369 39.9444C154.815 40.0362 155.877 39.9777 156.332 39.8362C157.99 39.3203 159.177 37.9231 159.585 36.007C159.988 34.1119 159.286 32.7792 157.729 32.4838C157.214 32.386 156.748 32.3949 156.181 32.5133ZM175.063 32.4847C174.175 32.6455 173.278 33.1219 172.663 33.76C171.314 35.1581 170.775 37.5675 171.526 38.8383C171.84 39.3701 172.39 39.768 173.012 39.9134C173.436 40.0123 174.279 40.0134 174.751 39.9157C176.019 39.653 177.175 38.7304 177.82 37.4669C178.36 36.4081 178.58 35.0357 178.349 34.1677C177.999 32.8556 176.697 32.1887 175.063 32.4847ZM195.352 32.4807C192.871 32.8838 191.066 34.9278 191.063 37.3382C191.061 38.7004 191.8 39.6266 193.122 39.9182C193.668 40.0385 194.866 40.0001 195.457 39.8434C195.685 39.783 195.893 39.7123 195.919 39.6863C195.976 39.6294 196.036 38.4452 195.981 38.4452C195.96 38.4452 195.811 38.4853 195.649 38.5342C195.43 38.6005 195.169 38.6231 194.626 38.6228C193.798 38.6224 193.654 38.581 193.276 38.2355C192.942 37.9302 192.815 37.5964 192.815 37.0266C192.815 35.6227 193.681 34.3522 194.933 33.9163C195.435 33.7415 196.438 33.728 196.905 33.8897C197.178 33.9844 197.21 33.9864 197.251 33.911C197.479 33.4858 197.772 32.7479 197.73 32.7061C197.702 32.6786 197.519 32.6109 197.324 32.5556C196.862 32.4252 195.915 32.3892 195.352 32.4807ZM184.793 32.5184C184.153 32.5531 183.576 32.6378 183.513 32.7063C183.494 32.7274 183.298 33.3251 183.078 34.0345C182.116 37.1321 181.577 38.8652 181.434 39.31C181.349 39.5728 181.281 39.8114 181.281 39.8401C181.281 39.8738 181.553 39.8874 182.043 39.8782L182.806 39.8639L182.957 39.3738C183.041 39.1043 183.225 38.5181 183.368 38.0712L183.626 37.2587H184.244C185.515 37.2587 186.395 36.9577 187.091 36.284C187.637 35.756 187.926 35.1554 187.977 34.4439C188.019 33.8515 187.905 33.5041 187.553 33.1554C187 32.6086 186.263 32.4385 184.793 32.5184ZM59.8928 32.5551C59.8928 32.5784 59.9498 32.886 60.0194 33.2386C60.0891 33.5912 60.207 34.1931 60.2815 34.5761C60.3559 34.9592 60.5116 35.7485 60.6275 36.3301C60.8904 37.6501 60.8947 37.7682 60.6897 38.0207C60.4685 38.2931 60.1322 38.5361 59.885 38.6021C59.7611 38.6352 59.5383 38.6443 59.3473 38.624L59.0212 38.5894L58.8546 39.0719C58.5764 39.8776 58.5847 39.818 58.7405 39.8906C58.941 39.9841 59.813 40.0166 60.1669 39.9438C60.6756 39.8391 61.1501 39.5647 61.6692 39.0748C62.4383 38.3491 62.8164 37.8125 65.2868 33.9409C65.7542 33.2085 66.1365 32.5875 66.1365 32.5609C66.1365 32.5328 65.7693 32.5126 65.2577 32.5126H64.3788L63.9478 33.2993C63.7108 33.732 63.3604 34.3646 63.1693 34.7051C62.9782 35.0456 62.6763 35.6086 62.4984 35.9561C62.3205 36.3037 62.1565 36.5881 62.134 36.5881C62.1115 36.5881 62.0775 36.3966 62.0585 36.1625C62.0201 35.691 61.6739 32.8122 61.6334 32.6287C61.6082 32.514 61.5974 32.5126 60.7504 32.5126C60.2787 32.5126 59.8928 32.5317 59.8928 32.5551ZM78.5402 32.5858C78.5247 32.6261 78.4214 32.9337 78.3109 33.2694L78.11 33.8797L79.0886 33.8937L80.0672 33.9076L79.7923 34.7965C79.6412 35.2853 79.4088 36.0335 79.2762 36.4591C79.0231 37.2705 78.8955 37.6808 78.4738 39.0385L78.2175 39.8639L78.976 39.8783C79.3932 39.8861 79.752 39.8745 79.7735 39.8525C79.8049 39.8201 80.3573 38.0884 80.7407 36.8202C80.8463 36.4707 81.2631 35.1367 81.2967 35.0404C81.3115 34.9979 81.396 34.7256 81.4845 34.4353L81.6455 33.9077L82.6417 33.8937L83.6379 33.8797L83.8088 33.338C83.9027 33.0401 83.994 32.7325 84.0115 32.6545L84.0434 32.5126H81.306C78.9893 32.5126 78.5642 32.5238 78.5402 32.5858ZM87.9198 32.5513C87.9067 32.5726 87.7673 33.0078 87.6099 33.5186C87.4525 34.0293 87.0264 35.399 86.6631 36.5623C85.6272 39.8791 85.6481 39.8072 85.7052 39.8638C85.7375 39.8959 86.2856 39.9148 87.1465 39.9137C88.481 39.9119 88.5555 39.9065 89.0363 39.7765C89.8422 39.5585 90.3858 39.2731 90.8199 38.84C91.9598 37.7024 91.9553 35.9531 90.8107 35.3354C90.3915 35.1092 89.9232 35.0252 89.2545 35.0562C88.8245 35.0762 88.6779 35.0675 88.6931 35.0231C88.857 34.5456 89.4463 32.6373 89.4463 32.5842C89.4463 32.5264 89.301 32.5126 88.6949 32.5126C88.2816 32.5126 87.9329 32.53 87.9198 32.5513ZM103.476 33.2993C103.34 33.732 103.029 34.7244 102.784 35.5047C102.539 36.285 102.285 37.0975 102.219 37.3103C101.925 38.2607 101.457 39.7477 101.431 39.8154C101.407 39.8781 101.525 39.8897 102.19 39.8897C102.774 39.8897 102.983 39.8731 102.999 39.8252C103.01 39.7898 103.226 39.0936 103.478 38.2781L103.937 36.7955L104.228 36.7949C104.446 36.7946 104.564 36.8241 104.696 36.912C105.058 37.1543 105.137 37.433 105.264 38.9353C105.295 39.3042 105.334 39.6698 105.35 39.7479L105.38 39.8897H106.186H106.993L106.962 39.7479C106.927 39.5827 106.854 38.9356 106.772 38.0583C106.666 36.9362 106.469 36.3742 106.057 36.0256L105.832 35.8351L106.133 35.5553C106.299 35.4014 106.938 34.7983 107.553 34.215C108.168 33.6318 108.806 33.0294 108.971 32.8764C109.135 32.7235 109.27 32.5785 109.27 32.5543C109.27 32.5301 108.843 32.5166 108.322 32.5243L107.375 32.5384L105.929 34.086C105.134 34.9372 104.449 35.6412 104.406 35.6503C104.362 35.6595 104.327 35.6354 104.327 35.5967C104.327 35.5581 104.481 35.0399 104.67 34.4451C105.04 33.2781 105.264 32.5559 105.264 32.5293C105.264 32.5201 104.917 32.5126 104.493 32.5126H103.722L103.476 33.2993ZM112.823 36.0851C111.621 38.0499 110.61 39.7098 110.576 39.7736L110.515 39.8897H111.342H112.169L112.626 39.103C112.878 38.6703 113.129 38.2409 113.184 38.1486L113.285 37.981H114.355H115.426L115.39 38.9353L115.354 39.8897H116.188H117.023V36.2012V32.5126H116.015H115.008L112.823 36.0851ZM123.344 32.5771C123.321 32.6409 121.647 37.1224 121.201 38.3163C121.073 38.6568 120.889 39.1501 120.792 39.4125L120.615 39.8897H121.335H122.056L122.635 38.3034C122.954 37.4309 123.425 36.1018 123.682 35.35C124.131 34.0384 124.148 33.9975 124.124 34.344C124.026 35.7318 123.893 38.7823 123.891 39.6979C123.891 39.7817 123.945 39.7886 124.502 39.7753L125.113 39.7607L125.83 38.6258C126.722 37.2137 127.884 35.2953 128.289 34.5657C128.458 34.262 128.603 34.0209 128.612 34.0299C128.621 34.0389 128.514 34.4266 128.373 34.8915C128.233 35.3565 128.022 36.0851 127.906 36.5107C127.348 38.5453 127.012 39.7981 127.012 39.8417C127.012 39.8691 127.336 39.8897 127.765 39.8897H128.517L128.568 39.6963C128.86 38.5867 128.999 38.0504 129.432 36.3559C129.707 35.2777 130.037 33.9972 130.164 33.5102C130.291 33.0232 130.394 32.5996 130.394 32.5687C130.394 32.5302 130.071 32.5126 129.362 32.5126C128.443 32.5126 128.321 32.5225 128.252 32.6029C128.175 32.6921 126.559 35.3292 126.129 36.0658C126.007 36.2751 125.756 36.7278 125.572 37.0718L125.236 37.6972L125.266 37.2845C125.325 36.4673 125.451 33.6099 125.451 33.0672L125.452 32.5126H124.409C123.623 32.5126 123.361 32.5284 123.344 32.5771ZM135.112 32.5513C135.1 32.5726 134.994 32.8918 134.878 33.2606C134.645 34.0027 134.036 35.949 133.724 36.9492C133.613 37.3039 133.369 38.0825 133.181 38.6795C132.993 39.2764 132.84 39.793 132.84 39.8273C132.84 39.8752 133.365 39.8897 135.094 39.8897H137.348L137.539 39.2578C137.645 38.9102 137.731 38.6084 137.731 38.5871C137.731 38.5658 137.075 38.5484 136.274 38.5484C135.473 38.5484 134.817 38.5316 134.817 38.5109C134.817 38.4667 135.147 37.3977 135.275 37.0266L135.365 36.7686L136.69 36.7428L138.015 36.717L138.206 36.098L138.396 35.4789L137.101 35.4651C136.116 35.4547 135.806 35.4361 135.806 35.3877C135.806 35.3527 135.907 34.9991 136.032 34.6019L136.257 33.8797L137.664 33.866L139.07 33.8522L139.233 33.3421C139.323 33.0616 139.411 32.7602 139.429 32.6723L139.461 32.5126H137.298C136.109 32.5126 135.125 32.53 135.112 32.5513ZM143.619 33.0156C143.532 33.2922 143.294 34.0525 143.09 34.7051C142.886 35.3577 142.628 36.1818 142.517 36.5365C142.099 37.8723 141.524 39.7126 141.497 39.8008C141.471 39.8862 141.523 39.8915 142.264 39.8782L143.06 39.8639L143.531 38.3421L144.003 36.8202L145.342 36.8064C146.313 36.7964 146.68 36.8087 146.68 36.8512C146.68 36.9023 146.02 39.0713 145.822 39.6705L145.75 39.8897H146.542H147.335L147.426 39.5931C147.527 39.264 148.29 36.82 148.605 35.8142C148.716 35.4596 148.984 34.6057 149.201 33.9169C149.417 33.228 149.594 32.6302 149.594 32.5885C149.594 32.5252 149.469 32.5126 148.842 32.5126C148.342 32.5126 148.079 32.532 148.055 32.5706C148.035 32.6026 147.954 32.8405 147.874 33.0994C147.794 33.3583 147.608 33.9648 147.46 34.4472C147.311 34.9295 147.173 35.342 147.153 35.3637C147.132 35.3855 146.517 35.3971 145.785 35.3895L144.455 35.3757L144.891 33.9834C145.131 33.2176 145.327 32.5734 145.327 32.5518C145.327 32.5302 144.978 32.5126 144.552 32.5126H143.777L143.619 33.0156ZM164.784 32.6488C164.755 32.7238 164.641 33.0778 164.53 33.4356C164.418 33.7933 164.222 34.4227 164.093 34.8341C163.964 35.2455 163.706 36.0696 163.52 36.6655C163.334 37.2613 163.031 38.2305 162.847 38.8193L162.512 39.8897H163.3H164.089L164.577 38.3292C164.845 37.4708 165.127 36.5713 165.203 36.3301C165.279 36.089 165.48 35.4447 165.649 34.8986L165.956 33.9055H167.234H168.512L168.723 33.2361C168.839 32.8679 168.922 32.5545 168.907 32.5396C168.892 32.5248 167.97 32.5126 166.858 32.5126H164.836L164.784 32.6488ZM202.071 32.5576C202.047 32.5961 201.756 33.5157 200.264 38.2647C200.148 38.6335 199.995 39.1211 199.924 39.348C199.854 39.575 199.786 39.7904 199.775 39.8266C199.758 39.8784 199.921 39.8894 200.54 39.8782L201.325 39.8639L201.465 39.4254C201.542 39.1842 201.755 38.494 201.94 37.8917L202.275 36.7964L202.551 36.7954C202.879 36.7942 203.08 36.8871 203.262 37.1235C203.415 37.322 203.547 37.8598 203.549 38.2905C203.55 38.4465 203.585 38.8644 203.628 39.2191C203.67 39.5737 203.705 39.8697 203.705 39.8768C203.707 39.9128 205.319 39.8836 205.319 39.8476C205.319 39.8245 205.296 39.6793 205.269 39.5252C205.241 39.371 205.194 38.9261 205.163 38.5366C205.05 37.0729 204.886 36.5081 204.454 36.0895L204.178 35.8228L204.4 35.6251C204.962 35.1249 207.608 32.5926 207.608 32.555C207.608 32.5316 207.188 32.5126 206.675 32.5126H205.742L204.503 33.8377C203.821 34.5666 203.162 35.2746 203.038 35.4112C202.823 35.6468 202.665 35.7278 202.665 35.6021C202.665 35.5705 202.876 34.8767 203.133 34.0602C203.391 33.2438 203.602 32.5616 203.602 32.5442C203.602 32.4943 202.102 32.5074 202.071 32.5576ZM157.39 33.8651C157.857 34.0834 158.051 34.5452 158.011 35.3376C157.962 36.3113 157.518 37.2901 156.8 38.0105C156.251 38.561 156.009 38.6778 155.421 38.6763C154.89 38.6749 154.621 38.5593 154.38 38.2296C154.155 37.9219 154.104 37.6761 154.136 37.0524C154.213 35.5304 155.287 33.983 156.428 33.7513C156.723 33.6914 157.119 33.7382 157.39 33.8651ZM176.077 33.8363C176.333 33.9411 176.489 34.0982 176.63 34.3956C176.925 35.0163 176.704 36.3255 176.15 37.2393C175.423 38.4371 174.552 38.9197 173.66 38.6185C173.074 38.4205 172.815 37.9094 172.868 37.0542C172.961 35.5479 174.049 33.9754 175.152 33.7524C175.421 33.6981 175.829 33.7352 176.077 33.8363ZM115.567 34.9422C115.538 35.5779 115.515 36.2547 115.514 36.4462L115.514 36.7944H114.707C114.264 36.7944 113.901 36.7859 113.901 36.7754C113.901 36.765 114.152 36.3283 114.46 35.8051C114.768 35.2819 115.148 34.607 115.304 34.3053C115.461 34.0036 115.596 33.7635 115.604 33.7716C115.612 33.7798 115.596 34.3066 115.567 34.9422ZM185.937 33.8478C186.286 34.0065 186.354 34.1204 186.351 34.543C186.349 34.9965 186.234 35.2381 185.864 35.5677C185.51 35.8839 185.027 36.0397 184.486 36.0126C184.272 36.0019 184.083 35.9787 184.065 35.9609C184.023 35.9195 184.669 33.8406 184.74 33.7902C184.769 33.7693 185.003 33.7525 185.261 33.7526C185.604 33.7529 185.785 33.7782 185.937 33.8478ZM89.3046 36.3405C89.7547 36.4742 90.01 36.9036 89.9365 37.4034C89.8641 37.8955 89.5447 38.2825 89.004 38.5328C88.7351 38.6573 88.6143 38.6798 88.1325 38.6948C87.7215 38.7077 87.5732 38.6959 87.5732 38.6502C87.5732 38.6161 87.6809 38.2368 87.8126 37.8074C87.9443 37.3779 88.0997 36.8711 88.1581 36.6811C88.2496 36.3828 88.2826 36.3328 88.3999 36.3148C88.6937 36.2698 89.1061 36.2815 89.3046 36.3405ZM95.5609 36.5494C95.4937 36.7485 95.2737 37.5019 95.2737 37.5331C95.2737 37.5533 95.9091 37.5637 96.6857 37.5562L98.0976 37.5425L98.2663 37.0137L98.435 36.4849H97.0088C95.9142 36.4849 95.5776 36.4999 95.5609 36.5494Z" fill="#24438E"/>
</svg>
