<svg width="194" height="70" viewBox="0 0 194 70" fill="none" xmlns="http://www.w3.org/2000/svg">
<path fill-rule="evenodd" clip-rule="evenodd" d="M105.2 61.3854C56.2223 61.3854 16.5546 47.5557 16.5546 30.4644C16.5546 15.1996 48.2887 2.54413 90.0546 0C40.0929 1.30468 0.6875 16.439 0.6875 34.9655C0.6875 54.2749 43.8302 69.9963 97.0702 69.9963C150.31 69.9963 193.453 54.3401 193.453 34.9655C193.453 34.5089 193.453 34.1175 193.387 33.7261C188.732 49.2518 151.031 61.3854 105.2 61.3854Z" fill="#FFC731"/>
<path fill-rule="evenodd" clip-rule="evenodd" d="M113.331 68.5612C60.0907 68.5612 16.948 53.0354 16.948 33.9218C16.948 17.2218 49.7312 3.32694 93.3329 0C41.8632 0.652342 0.6875 16.0476 0.6875 34.9655C0.6875 54.2749 43.8302 69.9963 97.0702 69.9963C107.823 69.9963 118.248 69.344 127.886 68.1698C123.166 68.4307 118.314 68.5612 113.331 68.5612Z" fill="#0CB5DD"/>
<path fill-rule="evenodd" clip-rule="evenodd" d="M61.0742 33.2699L62.4511 29.0297H62.5167L63.7624 33.2699H61.0742ZM61.5332 24.4633C60.9431 24.4633 60.4185 24.7895 60.0251 25.1809L55.1077 38.0973H59.5006L60.1563 36.1402H64.6804L65.2705 38.0973H69.7946L64.6148 24.3981L61.5332 24.4633Z" fill="#3860A9"/>
<path fill-rule="evenodd" clip-rule="evenodd" d="M81.9244 28.3123L82.2522 27.9209C82.5145 27.5947 82.6456 27.2033 82.6456 26.8119V24.4635H70.7125V27.9861H76.9413L70.7125 34.4443C70.5158 34.7053 70.3847 35.0314 70.3191 35.4228V38.1627H82.9734V34.64H76.0234L81.9244 28.3123Z" fill="#3860A9"/>
<path fill-rule="evenodd" clip-rule="evenodd" d="M167.226 29.8127C165.194 29.2908 163.227 29.0951 163.096 28.1166C163.096 27.3338 164.079 27.2033 164.669 27.2033C165.128 27.2033 165.587 27.2685 165.981 27.5295C166.308 27.7904 166.571 28.1166 166.505 28.6384H170.636C170.505 25.3115 167.816 24.2025 164.735 24.2025C161.85 24.2025 159.031 25.5724 159.031 28.7037C159.031 31.4435 161.588 32.0306 163.817 32.683C166.243 33.3353 166.898 33.531 166.898 34.2486C166.898 35.2923 165.784 35.488 165.063 35.488C164.276 35.488 163.292 35.2923 162.965 34.5095C162.833 34.2486 162.833 33.9876 162.833 33.5962H158.44C158.506 37.9669 163.03 38.4888 164.669 38.4888C167.816 38.4888 171.226 37.3146 171.226 33.7919C171.226 31.2478 169.259 30.3345 167.226 29.8127Z" fill="#3860A9"/>
<path fill-rule="evenodd" clip-rule="evenodd" d="M137.525 25.6375L135.82 32.4871H135.755L134.05 25.7028C133.919 24.9852 133.329 24.4633 132.542 24.4633H127.493V38.1625H131.624V29.3559H131.689L134.181 38.0973H137.459L139.885 29.3559H139.951V38.0973H144.081V24.3981H139.033C138.246 24.5285 137.656 24.9852 137.525 25.6375Z" fill="#3860A9"/>
<path fill-rule="evenodd" clip-rule="evenodd" d="M155.883 24.4633C155.293 24.4633 154.769 24.7895 154.375 25.1809L152.277 29.4863L150.245 25.1809C150.245 25.1809 150.245 25.1809 150.245 25.1156C149.917 24.7242 149.392 24.4633 148.802 24.3981H145.13L150.113 33.009V38.032H154.506V33.009L159.555 24.3981L155.883 24.4633Z" fill="#3860A9"/>
<path fill-rule="evenodd" clip-rule="evenodd" d="M89.3989 33.2697L90.7758 29.0295H90.8414L92.0871 33.2697H89.3989ZM89.8579 24.4631C89.7923 24.4631 89.7267 24.4631 89.6612 24.4631H89.5956C89.53 24.4631 89.53 24.4631 89.4645 24.4631C89.3989 24.4631 89.3989 24.4631 89.3333 24.5283H89.2678C89.2022 24.5283 89.2022 24.5936 89.1366 24.5936C89.1366 24.5936 89.1366 24.5936 89.0711 24.5936C89.0055 24.5936 88.9399 24.6588 88.9399 24.6588C88.8744 24.6588 88.8088 24.724 88.8088 24.7893C88.7432 24.8545 88.6777 24.8545 88.6777 24.9197C88.6121 24.985 88.6121 24.985 88.5465 25.0502C88.5465 25.1155 88.481 25.1155 88.481 25.1807L83.5635 38.0318H87.9564L88.6121 36.0748H93.1362L93.7263 38.0318H98.2504L93.0706 24.3326L89.8579 24.4631Z" fill="#3860A9"/>
<path fill-rule="evenodd" clip-rule="evenodd" d="M121.658 29.2256H117.592V24.4635H113.199V38.1627H117.592V32.7482H121.658V38.1627H126.05V24.4635H121.658V29.2256Z" fill="#3860A9"/>
<path fill-rule="evenodd" clip-rule="evenodd" d="M54.5832 24.4635H50.0591C49.469 24.4635 48.9444 24.7897 48.551 25.1811L45.2727 29.1604H45.2072V24.4635H40.8142V38.1627H45.2072V34.1182L45.9284 33.3354L49.0756 38.1627H54.3209L48.8133 30.3346L54.5832 24.4635Z" fill="#3860A9"/>
<path fill-rule="evenodd" clip-rule="evenodd" d="M112.282 24.4635H107.758C107.167 24.4635 106.643 24.7897 106.25 25.1811L102.971 29.1604H102.906V24.4635H98.5127V38.1627H102.906V34.1182L103.627 33.3354L106.774 38.1627H112.019L106.512 30.3346L112.282 24.4635Z" fill="#3860A9"/>
</svg>
