<svg width="218" height="72" viewBox="0 0 218 72" fill="none" xmlns="http://www.w3.org/2000/svg">
<path d="M196.268 70.1666L144.023 10.3333L94.26 55.7366L196.268 70.1666Z" fill="url(#paint0_linear_1864_14922)"/>
<path opacity="0.8" d="M142.296 0.166626L98.1125 37.5L217.373 2.49088L142.296 0.166626Z" fill="url(#paint1_linear_1864_14922)"/>
<path d="M0.627441 31.667H7.7582V43.0332L17.9843 31.6666H27.4477L17.0636 42.4733L27.7624 60.1666H19.8261L12.0535 47.5183L7.7582 51.8768V60.1666H0.627441V31.667Z" fill="#00477A"/>
<path d="M38.1139 31.6666H45.477L56.2375 60.1666H48.5961L47.1576 55.6814H36.6329L35.194 60.1666H27.595L38.1139 31.6666ZM45.4346 50.4018L41.9162 38.6318H41.838L38.3135 50.4018H45.4346Z" fill="#00477A"/>
<path d="M80.6071 54.6461V60.1744H56.1176V54.845L71.9937 37.1945H57.3598V31.6666H80.6924V37.2306L65.0164 54.6461H80.6071ZM1.4696 65.7207L3.45622 70.9718L5.52162 65.7207H6.36378V71.7127H5.79464V66.5338H5.77608L3.72883 71.7123H3.1898L1.21514 66.5338H1.19658V71.7123H0.627441V65.7207H1.4696ZM13.384 71.7123H13.9531V65.7207H13.384V71.7123ZM21.634 65.7207L25.1289 70.791H25.147V65.7207H25.7161V71.7127H25.0806L21.5854 66.642H21.5672V71.7127H20.9981V65.7207H21.634ZM36.8618 65.7207V66.2086H33.2882V68.3702H36.6316V68.8582H33.2882V71.2248H36.8981V71.7127H32.7186V65.7207H36.8618ZM46.2443 65.7207C46.493 65.7207 46.7289 65.7506 46.9471 65.8109C47.158 65.8656 47.3557 65.9618 47.5286 66.0938C47.6923 66.2205 47.8255 66.3829 47.9224 66.5817C48.0194 66.7806 48.0676 67.0094 48.0676 67.2804C48.0676 67.6597 47.9707 67.991 47.7769 68.2739C47.5768 68.5511 47.2861 68.7315 46.9046 68.8098V68.8278C47.0984 68.852 47.2622 68.9061 47.3892 68.9845C47.5162 69.0566 47.6255 69.153 47.7043 69.2674C47.7892 69.3879 47.8433 69.5203 47.88 69.6774C47.9163 69.8332 47.9406 69.996 47.9525 70.1768C47.9587 70.2793 47.9649 70.3998 47.9707 70.5442C47.9769 70.6885 47.9831 70.8394 48.0008 70.9837C48.0189 71.1342 48.0495 71.2789 48.0796 71.4052C48.1221 71.5376 48.1703 71.6401 48.2313 71.7127H47.6012C47.5632 71.6495 47.5367 71.5801 47.5228 71.5077C47.4988 71.4253 47.4846 71.3404 47.4803 71.2547C47.468 71.1703 47.4622 71.0862 47.456 71.0017C47.4498 70.9173 47.4436 70.8451 47.4436 70.7791C47.4265 70.5681 47.4063 70.3573 47.383 70.1469C47.3625 69.9527 47.3092 69.7633 47.2255 69.5868C47.1493 69.4233 47.0273 69.2852 46.8741 69.1891C46.7165 69.0865 46.5045 69.0386 46.2381 69.0509H44.0696V71.7123H43.5005V65.7207H46.2443ZM46.2022 68.563C46.3779 68.563 46.5412 68.5392 46.6988 68.4851C46.8563 68.4305 46.9957 68.3579 47.1108 68.2559C47.2301 68.1542 47.3269 68.0291 47.3954 67.8885C47.4622 67.7499 47.4985 67.5814 47.4985 67.4006C47.4985 67.0274 47.3954 66.7384 47.1772 66.5272C46.9652 66.3107 46.6444 66.2086 46.2022 66.2086H44.07V68.563H46.2022ZM57.2988 65.7207L59.6492 71.7127H59.0376L58.3043 69.8516H55.5728L54.8519 71.7127H54.2461L56.6567 65.7207H57.2988ZM58.1104 69.3641L56.9474 66.2931L55.7481 69.3641H58.1104ZM66.5667 65.7207V71.2248H69.9279V71.7127H65.9971V65.7207H66.5667ZM76.7188 70.5142C76.8153 70.7192 76.9547 70.8873 77.1366 71.0079C77.3057 71.1346 77.5181 71.2186 77.7601 71.2728C78.0129 71.3275 78.2711 71.3537 78.5297 71.3511C78.6869 71.3511 78.8568 71.3273 79.0444 71.2851C79.2321 71.2428 79.4016 71.1703 79.5591 71.0743C79.7167 70.9718 79.8499 70.8455 79.9592 70.695C80.068 70.5384 80.1167 70.3515 80.1167 70.135C80.1167 69.966 80.08 69.8217 80.0074 69.7012C79.9313 69.5774 79.8302 69.4708 79.7105 69.3879C79.5872 69.302 79.4528 69.2331 79.3108 69.1833C79.1699 69.1318 79.0263 69.0876 78.8807 69.0509L77.5486 68.7257C77.3748 68.6823 77.2045 68.626 77.0392 68.5572C76.8802 68.4944 76.7345 68.4024 76.6095 68.2862C76.4821 68.1775 76.3851 68.0394 76.3064 67.8766C76.2338 67.7138 76.1975 67.5154 76.1975 67.2804C76.1975 67.1357 76.2218 66.9672 76.2763 66.7687C76.3369 66.576 76.44 66.389 76.5913 66.2144C76.7489 66.0397 76.9609 65.8954 77.2273 65.7748C77.4995 65.6543 77.8451 65.5944 78.2629 65.5944C78.5598 65.5944 78.8444 65.6305 79.1108 65.7088C79.3777 65.7929 79.614 65.9073 79.8136 66.0639C80.0198 66.2205 80.1769 66.4132 80.2982 66.6482C80.4194 66.8831 80.4796 67.148 80.4796 67.4612H79.9105C79.8981 67.2263 79.8499 67.0274 79.753 66.8589C79.6647 66.6935 79.5431 66.5479 79.3958 66.4313C79.241 66.3137 79.0667 66.224 78.8807 66.1664C78.6817 66.1102 78.4759 66.0818 78.2691 66.0819C78.0752 66.0819 77.8876 66.1 77.7057 66.1422C77.5242 66.1844 77.3605 66.2505 77.2273 66.3472C77.0879 66.4374 76.979 66.5576 76.8941 66.7142C76.8091 66.8589 76.767 67.0516 76.767 67.2743C76.767 67.4129 76.791 67.5334 76.8396 67.6355C76.8806 67.7388 76.9473 67.8301 77.0335 67.9008C77.1184 67.9787 77.2149 68.0332 77.3242 68.0812C77.4331 68.1234 77.5482 68.1595 77.6756 68.1898L79.1356 68.5507C79.3471 68.6052 79.5472 68.6716 79.7348 68.7557C79.9229 68.834 80.0924 68.9361 80.2318 69.057C80.377 69.1772 80.4862 69.3219 80.565 69.4966C80.6496 69.6712 80.692 69.882 80.692 70.1288C80.692 70.1948 80.6859 70.2854 80.6677 70.3937C80.6553 70.5085 80.6256 70.6286 80.5646 70.7549C80.5071 70.8907 80.4318 71.0184 80.3407 71.1346C80.2304 71.2747 80.0947 71.393 79.9406 71.4835C79.7653 71.586 79.5529 71.6705 79.3051 71.7308C79.0506 71.7968 78.7475 71.8333 78.3965 71.8333C78.0655 71.8347 77.7356 71.794 77.415 71.7123C77.1122 71.6283 76.8516 71.5016 76.6396 71.333C76.4245 71.1624 76.2557 70.941 76.1488 70.6889C76.0342 70.4236 75.9855 70.1108 76.0037 69.7434H76.5728C76.567 70.0505 76.6157 70.3092 76.7184 70.5142" fill="#00477A"/>
<defs>
<linearGradient id="paint0_linear_1864_14922" x1="132.276" y1="10.3333" x2="184.448" y2="70.3019" gradientUnits="userSpaceOnUse">
<stop stop-color="#00477A"/>
<stop offset="1" stop-color="#78C4EA"/>
</linearGradient>
<linearGradient id="paint1_linear_1864_14922" x1="98.1125" y1="37.5" x2="217.181" y2="-0.206522" gradientUnits="userSpaceOnUse">
<stop stop-color="#FACD00"/>
<stop offset="1" stop-color="#D56611"/>
</linearGradient>
</defs>
</svg>
