<svg width="220" height="77" viewBox="0 0 220 77" fill="none" xmlns="http://www.w3.org/2000/svg">
<path d="M91.8176 61.108C92.1159 61.108 92.3748 61.0535 92.5942 60.9446C92.8137 60.8357 93.0149 60.6527 93.1978 60.3957C93.3835 60.1359 93.572 59.7826 93.7634 59.3356L95.6289 55.0199H94.8396L93.2442 58.9376H93.1767L91.5433 55.0199H90.7329L92.8137 59.7756C92.7349 59.9236 92.6463 60.0451 92.5478 60.1401C92.4521 60.2323 92.3438 60.3007 92.2228 60.3454C92.1046 60.3901 91.9696 60.4125 91.8176 60.4125C91.7529 60.4125 91.691 60.4097 91.6319 60.4041C91.5728 60.3985 91.5222 60.3901 91.48 60.3789V61.0535C91.5137 61.0703 91.5602 61.0829 91.6193 61.0913C91.6812 61.1024 91.7473 61.108 91.8176 61.108Z" fill="#656883"/>
<path d="M98.7015 61.1667C99.1264 61.1667 99.5119 61.0885 99.858 60.932C100.204 60.7756 100.493 60.5549 100.723 60.27C100.954 59.9823 101.107 59.6457 101.183 59.2602L101.192 59.2183H100.424L100.411 59.256C100.324 59.5214 100.2 59.7448 100.039 59.9264C99.8791 60.1052 99.6864 60.2407 99.4613 60.3329C99.239 60.425 98.9857 60.4711 98.7015 60.4711C98.2992 60.4711 97.9474 60.3706 97.6464 60.1694C97.3453 59.9683 97.1118 59.6862 96.9457 59.323C96.7825 58.9571 96.7009 58.5297 96.7009 58.0409V58.0367C96.7009 57.5451 96.7825 57.1191 96.9457 56.7587C97.1118 56.3956 97.3439 56.1149 97.6422 55.9165C97.9432 55.7154 98.2964 55.6149 98.7015 55.6149C98.9885 55.6149 99.2446 55.6609 99.4697 55.7531C99.6948 55.8453 99.8847 55.978 100.039 56.1512C100.197 56.3216 100.315 56.5297 100.394 56.7755L100.424 56.8677H101.192L101.183 56.8258C101.107 56.4431 100.953 56.1093 100.719 55.8244C100.488 55.5394 100.2 55.3174 99.8538 55.1581C99.5077 54.9989 99.1236 54.9193 98.7015 54.9193C98.136 54.9193 97.645 55.0478 97.2285 55.3048C96.8121 55.559 96.4899 55.9193 96.262 56.3858C96.0341 56.8523 95.9201 57.4026 95.9201 58.0367V58.0409C95.9201 58.675 96.0341 59.2267 96.262 59.696C96.4899 60.1625 96.8121 60.5242 97.2285 60.7812C97.6478 61.0382 98.1388 61.1667 98.7015 61.1667Z" fill="#656883"/>
<path d="M103.294 61.0661H104.053V55.6987H105.974V55.0199H101.373V55.6987H103.294V61.0661Z" fill="#656883"/>
<path d="M107.24 61.0661H109.118C109.501 61.0661 109.838 60.9851 110.131 60.8231C110.424 60.6611 110.653 60.4376 110.819 60.1527C110.985 59.8678 111.068 59.5409 111.068 59.1722V59.1638C111.068 58.7923 110.984 58.4641 110.815 58.1792C110.649 57.8914 110.418 57.6666 110.123 57.5046C109.83 57.3426 109.492 57.2615 109.11 57.2615H107.24V57.9403H108.92C109.356 57.9403 109.694 58.0465 109.933 58.2588C110.172 58.4711 110.292 58.7728 110.292 59.1638V59.1722C110.292 59.5605 110.172 59.8608 109.933 60.0731C109.694 60.2826 109.356 60.3873 108.92 60.3873H107.24V61.0661ZM106.86 61.0661H107.62V55.0199H106.86V61.0661Z" fill="#656883"/>
<path d="M111.887 58.9543H114.588V58.2755H111.887V58.9543Z" fill="#656883"/>
<path d="M116.483 61.0661V58.2797H116.736L119.315 61.0661H120.337L117.289 57.8188L117.281 58.0032L120.054 55.0199H119.1L116.736 57.6764H116.483V55.0199H115.724V61.0661H116.483Z" fill="#656883"/>
<path d="M120.582 61.0661H121.379L123.215 55.9249H123.409V55.0199H122.848L120.582 61.0661ZM121.62 59.3356H124.828L124.574 58.6945H121.873L121.62 59.3356ZM125.064 61.0661H125.862L123.599 55.0199H123.232V55.9249L125.064 61.0661Z" fill="#656883"/>
<path d="M126.647 61.0661H127.356V56.3942H127.702L126.879 55.1875L129.327 61.0661H129.968L132.416 55.1875L131.593 56.3942H131.939V61.0661H132.648V55.0199H131.771L129.66 60.115H129.635L127.525 55.0199H126.647V61.0661Z" fill="#656883"/>
<path d="M133.915 61.0661H137.688V60.3873H134.674V58.3091H137.532V57.6386H134.674V55.6987H137.688V55.0199H133.915V61.0661Z" fill="#656883"/>
<path d="M138.777 61.0661H139.537V58.3132H142.879V61.0661H143.639V55.0199H142.879V57.6345H139.537V55.0199H138.777V61.0661Z" fill="#656883"/>
<path d="M147.48 61.1667C148.057 61.1667 148.553 61.0396 148.97 60.7854C149.389 60.5312 149.713 60.1708 149.941 59.7043C150.168 59.2379 150.282 58.6848 150.282 58.0451V58.0367C150.282 57.397 150.168 56.8453 149.941 56.3816C149.713 55.9151 149.389 55.5548 148.97 55.3006C148.551 55.0464 148.054 54.9193 147.48 54.9193C146.906 54.9193 146.408 55.0464 145.986 55.3006C145.566 55.5548 145.242 55.9151 145.011 56.3816C144.783 56.8453 144.669 57.397 144.669 58.0367V58.0451C144.669 58.6848 144.783 59.2379 145.011 59.7043C145.239 60.1708 145.562 60.5312 145.982 60.7854C146.404 61.0396 146.903 61.1667 147.48 61.1667ZM147.48 60.4711C147.063 60.4711 146.703 60.372 146.399 60.1736C146.095 59.9753 145.861 59.6946 145.695 59.3314C145.529 58.9683 145.446 58.5395 145.446 58.0451V58.0367C145.446 57.5395 145.529 57.1107 145.695 56.7504C145.861 56.3872 146.095 56.1079 146.399 55.9123C146.706 55.714 147.066 55.6149 147.48 55.6149C147.893 55.6149 148.252 55.714 148.556 55.9123C148.86 56.1079 149.094 56.3872 149.257 56.7504C149.423 57.1135 149.506 57.5423 149.506 58.0367V58.0451C149.506 58.5367 149.424 58.9641 149.261 59.3272C149.098 59.6904 148.864 59.9725 148.56 60.1736C148.259 60.372 147.899 60.4711 147.48 60.4711Z" fill="#656883"/>
<path d="M152.072 61.0661V55.6987H154.925V55.0199H151.312V61.0661H152.072Z" fill="#656883"/>
<path d="M157.989 61.1667C158.566 61.1667 159.063 61.0396 159.479 60.7854C159.898 60.5312 160.222 60.1708 160.45 59.7043C160.678 59.2379 160.792 58.6848 160.792 58.0451V58.0367C160.792 57.397 160.678 56.8453 160.45 56.3816C160.222 55.9151 159.898 55.5548 159.479 55.3006C159.06 55.0464 158.563 54.9193 157.989 54.9193C157.415 54.9193 156.917 55.0464 156.495 55.3006C156.076 55.5548 155.751 55.9151 155.52 56.3816C155.292 56.8453 155.178 57.397 155.178 58.0367V58.0451C155.178 58.6848 155.292 59.2379 155.52 59.7043C155.748 60.1708 156.072 60.5312 156.491 60.7854C156.913 61.0396 157.413 61.1667 157.989 61.1667ZM157.989 60.4711C157.573 60.4711 157.213 60.372 156.909 60.1736C156.605 59.9753 156.37 59.6946 156.204 59.3314C156.038 58.9683 155.955 58.5395 155.955 58.0451V58.0367C155.955 57.5395 156.038 57.1107 156.204 56.7504C156.37 56.3872 156.605 56.1079 156.909 55.9123C157.216 55.714 157.576 55.6149 157.989 55.6149C158.403 55.6149 158.762 55.714 159.066 55.9123C159.37 56.1079 159.603 56.3872 159.766 56.7504C159.932 57.1135 160.015 57.5423 160.015 58.0367V58.0451C160.015 58.5367 159.934 58.9641 159.77 59.3272C159.607 59.6904 159.374 59.9725 159.07 60.1736C158.769 60.372 158.409 60.4711 157.989 60.4711Z" fill="#656883"/>
<path d="M162.202 58.9082H163.991C164.374 58.9082 164.711 58.8258 165.004 58.661C165.297 58.4962 165.526 58.2672 165.692 57.9739C165.861 57.6805 165.945 57.3426 165.945 56.9599V56.9515C165.945 56.5688 165.861 56.2322 165.692 55.9417C165.526 55.6512 165.297 55.4249 165.004 55.2629C164.711 55.1009 164.374 55.0199 163.991 55.0199H162.202V55.6903H163.797C164.233 55.6903 164.571 55.802 164.81 56.0255C165.049 56.2489 165.169 56.5604 165.169 56.9599V56.9682C165.169 57.3649 165.049 57.6764 164.81 57.9026C164.571 58.1261 164.233 58.2378 163.797 58.2378H162.202V58.9082ZM161.822 61.0661H162.581V55.0199H161.822V61.0661Z" fill="#656883"/>
<path d="M169.448 61.1667C169.873 61.1667 170.259 61.0885 170.605 60.932C170.951 60.7756 171.239 60.5549 171.47 60.27C171.701 59.9823 171.854 59.6457 171.93 59.2602L171.939 59.2183H171.171L171.158 59.256C171.071 59.5214 170.947 59.7448 170.786 59.9264C170.626 60.1052 170.433 60.2407 170.208 60.3329C169.986 60.425 169.733 60.4711 169.448 60.4711C169.046 60.4711 168.694 60.3706 168.393 60.1694C168.092 59.9683 167.859 59.6862 167.693 59.323C167.529 58.9571 167.448 58.5297 167.448 58.0409V58.0367C167.448 57.5451 167.529 57.1191 167.693 56.7587C167.859 56.3956 168.091 56.1149 168.389 55.9165C168.69 55.7154 169.043 55.6149 169.448 55.6149C169.735 55.6149 169.992 55.6609 170.217 55.7531C170.442 55.8453 170.632 55.978 170.786 56.1512C170.944 56.3216 171.062 56.5297 171.141 56.7755L171.171 56.8677H171.939L171.93 56.8258C171.854 56.4431 171.7 56.1093 171.466 55.8244C171.235 55.5394 170.947 55.3174 170.601 55.1581C170.255 54.9989 169.871 54.9193 169.448 54.9193C168.883 54.9193 168.392 55.0478 167.975 55.3048C167.559 55.559 167.237 55.9193 167.009 56.3858C166.781 56.8523 166.667 57.4026 166.667 58.0367V58.0409C166.667 58.675 166.781 59.2267 167.009 59.696C167.237 60.1625 167.559 60.5242 167.975 60.7812C168.395 61.0382 168.886 61.1667 169.448 61.1667Z" fill="#656883"/>
<path d="M173.682 61.0661V58.2797H173.935L176.514 61.0661H177.535L174.488 57.8188L174.48 58.0032L177.253 55.0199H176.299L173.935 57.6764H173.682V55.0199H172.922V61.0661H173.682Z" fill="#656883"/>
<path d="M178.265 61.0661H179.004L182.537 56.0129L182.03 56.2769H182.376V61.0661H183.128V55.0199H182.389L178.856 60.0898L179.363 59.8259H179.017V55.0199H178.265V61.0661Z" fill="#656883"/>
<path d="M184.394 61.0661H185.132L188.665 56.0129L188.159 56.2769H188.505V61.0661H189.256V55.0199H188.517L184.985 60.0898L185.491 59.8259H185.145V55.0199H184.394V61.0661ZM186.838 54.5422C187.099 54.5422 187.323 54.4919 187.509 54.3914C187.694 54.2908 187.837 54.1553 187.935 53.9849C188.036 53.8117 188.087 53.6176 188.087 53.4025V53.3857H187.492V53.4067C187.492 53.5827 187.436 53.7363 187.323 53.8676C187.21 53.9961 187.05 54.0603 186.842 54.0603C186.628 54.0603 186.466 53.9961 186.356 53.8676C186.247 53.7363 186.192 53.5827 186.192 53.4067V53.3857H185.597V53.4025C185.597 53.6176 185.646 53.8117 185.744 53.9849C185.843 54.1553 185.985 54.2908 186.171 54.3914C186.356 54.4919 186.579 54.5422 186.838 54.5422Z" fill="#656883"/>
<path d="M193.312 58.3174H194.194C194.647 58.3174 194.999 58.4138 195.249 58.6065C195.5 58.7993 195.625 59.0675 195.625 59.411V59.4194C195.625 59.6317 195.567 59.8175 195.452 59.9767C195.337 60.1331 195.173 60.2546 194.962 60.3412C194.754 60.4278 194.508 60.4711 194.224 60.4711C193.937 60.4711 193.686 60.4348 193.473 60.3622C193.259 60.2868 193.088 60.1792 192.962 60.0395C192.835 59.8971 192.759 59.7253 192.734 59.5242L192.73 59.4907H191.978L191.983 59.5451C192.008 59.8664 192.115 60.1499 192.303 60.3957C192.495 60.6387 192.755 60.8287 193.084 60.9656C193.413 61.0996 193.796 61.1667 194.232 61.1667C194.646 61.1667 195.016 61.0913 195.342 60.9404C195.669 60.7868 195.926 60.5801 196.115 60.3203C196.306 60.0577 196.402 59.7644 196.402 59.4404V59.432C196.402 59.0242 196.286 58.6862 196.056 58.418C195.825 58.147 195.507 57.985 195.102 57.932V57.8984C195.437 57.8174 195.707 57.6484 195.912 57.3914C196.12 57.1317 196.224 56.8342 196.224 56.499V56.4906C196.224 56.1833 196.14 55.9123 195.971 55.6777C195.805 55.4403 195.573 55.2545 195.275 55.1204C194.979 54.9863 194.636 54.9193 194.245 54.9193C193.837 54.9193 193.48 54.9835 193.173 55.112C192.869 55.2377 192.628 55.4193 192.451 55.6568C192.274 55.8942 192.173 56.1791 192.147 56.5115L192.143 56.5702H192.894L192.903 56.5073C192.928 56.3202 192.996 56.161 193.105 56.0297C193.218 55.8956 193.367 55.7936 193.553 55.7238C193.741 55.6512 193.962 55.6149 194.215 55.6149C194.477 55.6149 194.699 55.6526 194.882 55.728C195.065 55.8034 195.204 55.9123 195.3 56.0548C195.399 56.1945 195.448 56.3621 195.448 56.5576V56.566C195.448 56.8789 195.33 57.1358 195.093 57.337C194.86 57.5381 194.549 57.6386 194.161 57.6386H193.312V58.3174Z" fill="#656883"/>
<path d="M196.866 61.0661H197.664L199.5 55.9249H199.694V55.0199H199.132L196.866 61.0661ZM197.904 59.3356H201.112L200.859 58.6945H198.158L197.904 59.3356ZM201.348 61.0661H202.146L199.884 55.0199H199.517V55.9249L201.348 61.0661Z" fill="#656883"/>
<path d="M203.311 61.0661H205.231C205.665 61.0661 206.035 60.9991 206.341 60.865C206.648 60.7281 206.883 60.534 207.046 60.2826C207.212 60.0284 207.295 59.7239 207.295 59.3691V59.3608C207.295 59.0926 207.239 58.8538 207.126 58.6443C207.014 58.432 206.852 58.2588 206.641 58.1247C206.43 57.9906 206.178 57.9068 205.886 57.8733V57.8565C206.097 57.8258 206.285 57.7462 206.451 57.6177C206.617 57.4864 206.748 57.3258 206.844 57.1358C206.939 56.9459 206.987 56.7462 206.987 56.5367V56.5283C206.987 56.2266 206.914 55.9626 206.768 55.7364C206.621 55.5101 206.417 55.3341 206.156 55.2084C205.894 55.0827 205.589 55.0199 205.24 55.0199H203.311V55.6861H205.067C205.435 55.6861 205.72 55.7657 205.919 55.9249C206.119 56.0813 206.219 56.309 206.219 56.6079V56.6163C206.219 56.9431 206.099 57.1931 205.86 57.3663C205.624 57.5395 205.281 57.6261 204.83 57.6261H203.311V58.2755H205.046C205.369 58.2755 205.639 58.3146 205.856 58.3929C206.075 58.4711 206.24 58.5884 206.35 58.7448C206.46 58.9013 206.514 59.0968 206.514 59.3314V59.3398C206.514 59.6862 206.395 59.9502 206.156 60.1317C205.919 60.3105 205.573 60.3999 205.117 60.3999H203.311V61.0661ZM202.931 61.0661H203.691V55.0199H202.931V61.0661Z" fill="#656883"/>
<path d="M210.815 61.1667C211.392 61.1667 211.889 61.0396 212.305 60.7854C212.724 60.5312 213.048 60.1708 213.276 59.7043C213.504 59.2379 213.618 58.6848 213.618 58.0451V58.0367C213.618 57.397 213.504 56.8453 213.276 56.3816C213.048 55.9151 212.724 55.5548 212.305 55.3006C211.886 55.0464 211.389 54.9193 210.815 54.9193C210.241 54.9193 209.743 55.0464 209.321 55.3006C208.902 55.5548 208.577 55.9151 208.346 56.3816C208.118 56.8453 208.004 57.397 208.004 58.0367V58.0451C208.004 58.6848 208.118 59.2379 208.346 59.7043C208.574 60.1708 208.898 60.5312 209.317 60.7854C209.739 61.0396 210.238 61.1667 210.815 61.1667ZM210.815 60.4711C210.399 60.4711 210.039 60.372 209.735 60.1736C209.431 59.9753 209.196 59.6946 209.03 59.3314C208.864 58.9683 208.781 58.5395 208.781 58.0451V58.0367C208.781 57.5395 208.864 57.1107 209.03 56.7504C209.196 56.3872 209.431 56.1079 209.735 55.9123C210.042 55.714 210.402 55.6149 210.815 55.6149C211.229 55.6149 211.588 55.714 211.892 55.9123C212.195 56.1079 212.429 56.3872 212.592 56.7504C212.758 57.1135 212.841 57.5423 212.841 58.0367V58.0451C212.841 58.5367 212.76 58.9641 212.596 59.3272C212.433 59.6904 212.2 59.9725 211.896 60.1736C211.595 60.372 211.235 60.4711 210.815 60.4711Z" fill="#656883"/>
<path d="M214.551 62.2603V61.0661H219.008V62.2603H219.712V60.3873H218.953V55.0199H215.184L214.952 58.8244C214.937 59.087 214.907 59.3217 214.859 59.5284C214.814 59.7351 214.746 59.9111 214.656 60.0563C214.566 60.1988 214.446 60.3091 214.297 60.3873H213.846V62.2603H214.551ZM215.665 58.8412L215.863 55.6987H218.193V60.3873H215.239V60.3538C215.34 60.2337 215.419 60.101 215.475 59.9557C215.531 59.8105 215.573 59.6457 215.602 59.4613C215.63 59.277 215.651 59.0702 215.665 58.8412Z" fill="#656883"/>
<path d="M95.5499 69.5679V63.5114H90.7329V69.5679H91.4989V64.1914H94.7839V69.5679H95.5499Z" fill="#656883"/>
<path d="M97.5581 67.4064H99.3623C99.7481 67.4064 100.089 67.3238 100.384 67.1588C100.679 66.9937 100.91 66.7642 101.077 66.4704C101.247 66.1766 101.332 65.838 101.332 65.4547V65.4463C101.332 65.063 101.247 64.7258 101.077 64.4348C100.91 64.1438 100.679 63.9171 100.384 63.7548C100.089 63.5926 99.7481 63.5114 99.3623 63.5114H97.5581V64.183H99.1666C99.6063 64.183 99.9467 64.2949 100.188 64.5187C100.429 64.7426 100.55 65.0546 100.55 65.4547V65.4631C100.55 65.8604 100.429 66.1724 100.188 66.3991C99.9467 66.6229 99.6063 66.7348 99.1666 66.7348H97.5581V67.4064ZM97.1751 69.5679H97.941V63.5114H97.1751V69.5679Z" fill="#656883"/>
<path d="M105.243 69.6687C105.824 69.6687 106.325 69.5414 106.745 69.2867C107.168 69.0321 107.494 68.6711 107.724 68.2039C107.953 67.7366 108.068 67.1825 108.068 66.5418V66.5334C108.068 65.8926 107.953 65.34 107.724 64.8755C107.494 64.4082 107.168 64.0473 106.745 63.7926C106.322 63.538 105.821 63.4107 105.243 63.4107C104.664 63.4107 104.162 63.538 103.736 63.7926C103.314 64.0473 102.986 64.4082 102.753 64.8755C102.524 65.34 102.409 65.8926 102.409 66.5334V66.5418C102.409 67.1825 102.524 67.7366 102.753 68.2039C102.983 68.6711 103.309 69.0321 103.732 69.2867C104.158 69.5414 104.661 69.6687 105.243 69.6687ZM105.243 68.9719C104.823 68.9719 104.46 68.8726 104.153 68.6739C103.847 68.4753 103.61 68.1941 103.443 67.8303C103.275 67.4666 103.192 67.037 103.192 66.5418V66.5334C103.192 66.0353 103.275 65.6058 103.443 65.2448C103.61 64.8811 103.847 64.6013 104.153 64.4054C104.463 64.2067 104.826 64.1074 105.243 64.1074C105.66 64.1074 106.021 64.2067 106.328 64.4054C106.634 64.6013 106.87 64.8811 107.034 65.2448C107.202 65.6086 107.285 66.0381 107.285 66.5334V66.5418C107.285 67.0342 107.203 67.4624 107.039 67.8261C106.874 68.1899 106.639 68.4725 106.332 68.6739C106.029 68.8726 105.665 68.9719 105.243 68.9719Z" fill="#656883"/>
<path d="M109.455 69.5679H110.17V64.8881H110.519L109.689 63.6793L112.157 69.5679H112.804L115.272 63.6793L114.442 64.8881H114.791V69.5679H115.506V63.5114H114.621L112.493 68.6152H112.468L110.34 63.5114H109.455V69.5679Z" fill="#656883"/>
<path d="M117.514 69.5679H119.408C119.794 69.5679 120.134 69.4868 120.429 69.3245C120.724 69.1622 120.955 68.9384 121.123 68.653C121.29 68.3675 121.374 68.0402 121.374 67.6708V67.6624C121.374 67.2903 121.289 66.9615 121.119 66.6761C120.951 66.3879 120.719 66.1626 120.421 66.0003C120.126 65.838 119.785 65.7569 119.399 65.7569H117.514V66.4368H119.208C119.648 66.4368 119.988 66.5432 120.229 66.7558C120.47 66.9685 120.591 67.2707 120.591 67.6624V67.6708C120.591 68.0598 120.47 68.3605 120.229 68.5732C119.988 68.7831 119.648 68.888 119.208 68.888H117.514V69.5679ZM117.131 69.5679H117.897V63.5114H117.131V69.5679ZM122.187 69.5679H122.953V63.5114H122.187V69.5679Z" fill="#656883"/>
<path d="M124.578 69.5637H131.318V63.5072H130.552V68.8838H128.331V63.5072H127.565V68.8838H125.344V63.5072H124.578V69.5637Z" fill="#656883"/>
<path d="M132.816 69.6099C133.148 69.6099 133.423 69.5302 133.641 69.3707C133.86 69.2084 134.028 68.9579 134.148 68.6194C134.27 68.2808 134.348 67.8429 134.382 67.3057L134.577 64.1914H136.884V69.5679H137.65V63.5114H133.88L133.658 67.2763C133.636 67.6652 133.589 67.9814 133.518 68.2248C133.45 68.4655 133.353 68.6418 133.228 68.7537C133.104 68.8628 132.943 68.9174 132.748 68.9174C132.714 68.9174 132.672 68.9146 132.624 68.909C132.576 68.9034 132.541 68.8978 132.518 68.8922V69.5679C132.558 69.5791 132.603 69.5889 132.654 69.5973C132.708 69.6057 132.762 69.6099 132.816 69.6099Z" fill="#656883"/>
<path d="M139.275 69.5679H143.079V68.888H140.041V66.8062H142.922V66.1346H140.041V64.1914H143.079V63.5114H139.275V69.5679Z" fill="#656883"/>
<path d="M144.526 69.5679H145.292V66.8104H148.662V69.5679H149.428V63.5114H148.662V66.1304H145.292V63.5114H144.526V69.5679Z" fill="#656883"/>
<path d="M151.053 69.5679H151.819V66.8104H155.189V69.5679H155.955V63.5114H155.189V66.1304H151.819V63.5114H151.053V69.5679Z" fill="#656883"/>
<path d="M160.176 69.6687C160.757 69.6687 161.258 69.5414 161.678 69.2867C162.101 69.0321 162.427 68.6711 162.657 68.2039C162.886 67.7366 163.001 67.1825 163.001 66.5418V66.5334C163.001 65.8926 162.886 65.34 162.657 64.8755C162.427 64.4082 162.101 64.0473 161.678 63.7926C161.255 63.538 160.755 63.4107 160.176 63.4107C159.597 63.4107 159.095 63.538 158.669 63.7926C158.247 64.0473 157.919 64.4082 157.687 64.8755C157.457 65.34 157.342 65.8926 157.342 66.5334V66.5418C157.342 67.1825 157.457 67.7366 157.687 68.2039C157.916 68.6711 158.243 69.0321 158.665 69.2867C159.091 69.5414 159.594 69.6687 160.176 69.6687ZM160.176 68.9719C159.756 68.9719 159.393 68.8726 159.086 68.6739C158.78 68.4753 158.543 68.1941 158.376 67.8303C158.208 67.4666 158.125 67.037 158.125 66.5418V66.5334C158.125 66.0353 158.208 65.6058 158.376 65.2448C158.543 64.8811 158.78 64.6013 159.086 64.4054C159.396 64.2067 159.759 64.1074 160.176 64.1074C160.593 64.1074 160.955 64.2067 161.261 64.4054C161.567 64.6013 161.803 64.8811 161.967 65.2448C162.135 65.6086 162.218 66.0381 162.218 66.5334V66.5418C162.218 67.0342 162.136 67.4624 161.972 67.8261C161.807 68.1899 161.572 68.4725 161.265 68.6739C160.962 68.8726 160.599 68.9719 160.176 68.9719Z" fill="#656883"/>
<path d="M164.388 69.5679H165.133L168.695 64.5061L168.184 64.7706H168.533V69.5679H169.29V63.5114H168.546L164.984 68.59L165.495 68.3256H165.146V63.5114H164.388V69.5679ZM166.852 63.0329C167.116 63.0329 167.341 62.9826 167.529 62.8818C167.716 62.7811 167.859 62.6454 167.958 62.4747C168.061 62.3012 168.112 62.1068 168.112 61.8913V61.8745H167.512V61.8955C167.512 62.0718 167.455 62.2257 167.341 62.3572C167.228 62.4859 167.066 62.5503 166.856 62.5503C166.641 62.5503 166.478 62.4859 166.367 62.3572C166.256 62.2257 166.201 62.0718 166.201 61.8955V61.8745H165.601V61.8913C165.601 62.1068 165.651 62.3012 165.75 62.4747C165.849 62.6454 165.992 62.7811 166.18 62.8818C166.367 62.9826 166.591 63.0329 166.852 63.0329Z" fill="#656883"/>
<path d="M172.562 69.5679H173.366L175.217 64.418H175.413V63.5114H174.847L172.562 69.5679ZM173.609 67.8345H176.843L176.587 67.1923H173.864L173.609 67.8345ZM177.081 69.5679H177.885L175.605 63.5114H175.234V64.418L177.081 69.5679Z" fill="#656883"/>
<path d="M179.408 67.4064H181.213C181.598 67.4064 181.939 67.3238 182.234 67.1588C182.529 66.9937 182.76 66.7642 182.928 66.4704C183.098 66.1766 183.183 65.838 183.183 65.4547V65.4463C183.183 65.063 183.098 64.7258 182.928 64.4348C182.76 64.1438 182.529 63.9171 182.234 63.7548C181.939 63.5926 181.598 63.5114 181.213 63.5114H179.408V64.183H181.017C181.457 64.183 181.797 64.2949 182.038 64.5187C182.279 64.7426 182.4 65.0546 182.4 65.4547V65.4631C182.4 65.8604 182.279 66.1724 182.038 66.3991C181.797 66.6229 181.457 66.7348 181.017 66.7348H179.408V67.4064ZM179.025 69.5679H179.791V63.5114H179.025V69.5679Z" fill="#656883"/>
<path d="M184.497 69.5679H185.212V64.8881H185.561L184.731 63.6793L187.2 69.5679H187.846L190.314 63.6793L189.485 64.8881H189.834V69.5679H190.548V63.5114H189.663L187.536 68.6152H187.51L185.382 63.5114H184.497V69.5679Z" fill="#656883"/>
<path d="M191.684 69.5679H192.489L194.34 64.418H194.535V63.5114H193.969L191.684 69.5679ZM192.731 67.8345H195.965L195.71 67.1923H192.986L192.731 67.8345ZM196.203 69.5679H197.008L194.727 63.5114H194.357V64.418L196.203 69.5679Z" fill="#656883"/>
<path d="M198.935 69.5679H199.701V64.1914H201.637V63.5114H196.999V64.1914H198.935V69.5679Z" fill="#656883"/>
<path d="M203.483 69.6099C203.784 69.6099 204.045 69.5553 204.266 69.4462C204.488 69.3371 204.691 69.1538 204.875 68.8964C205.062 68.6362 205.252 68.2822 205.445 67.8345L207.326 63.5114H206.53L204.922 67.4358H204.854L203.207 63.5114H202.39L204.488 68.2752C204.408 68.4235 204.319 68.5452 204.22 68.6404C204.123 68.7327 204.014 68.8013 203.892 68.846C203.773 68.8908 203.637 68.9132 203.483 68.9132C203.418 68.9132 203.356 68.9104 203.296 68.9048C203.237 68.8992 203.186 68.8908 203.143 68.8796V69.5553C203.177 69.5721 203.224 69.5847 203.283 69.5931C203.346 69.6043 203.413 69.6099 203.483 69.6099Z" fill="#656883"/>
<path d="M208.802 67.4064H210.606C210.992 67.4064 211.333 67.3238 211.628 67.1588C211.923 66.9937 212.154 66.7642 212.321 66.4704C212.492 66.1766 212.577 65.838 212.577 65.4547V65.4463C212.577 65.063 212.492 64.7258 212.321 64.4348C212.154 64.1438 211.923 63.9171 211.628 63.7548C211.333 63.5926 210.992 63.5114 210.606 63.5114H208.802V64.183H210.411C210.85 64.183 211.191 64.2949 211.432 64.5187C211.673 64.7426 211.794 65.0546 211.794 65.4547V65.4631C211.794 65.8604 211.673 66.1724 211.432 66.3991C211.191 66.6229 210.85 66.7348 210.411 66.7348H208.802V67.4064ZM208.419 69.5679H209.185V63.5114H208.419V69.5679Z" fill="#656883"/>
<path d="M214.274 69.5679H216.168C216.554 69.5679 216.894 69.4868 217.189 69.3245C217.484 69.1622 217.715 68.9384 217.883 68.653C218.05 68.3675 218.134 68.0402 218.134 67.6708V67.6624C218.134 67.2903 218.049 66.9615 217.878 66.6761C217.711 66.3879 217.478 66.1626 217.181 66.0003C216.886 65.838 216.545 65.7569 216.159 65.7569H214.274V66.4368H215.968C216.408 66.4368 216.748 66.5432 216.989 66.7558C217.23 66.9685 217.351 67.2707 217.351 67.6624V67.6708C217.351 68.0598 217.23 68.3605 216.989 68.5732C216.748 68.7831 216.408 68.888 215.968 68.888H214.274V69.5679ZM213.891 69.5679H214.657V63.5114H213.891V69.5679ZM218.947 69.5679H219.712V63.5114H218.947V69.5679Z" fill="#656883"/>
<path d="M181.321 48.7556H190.257L200.432 16.1028H203.025V8.24146H195.528L181.321 48.7556ZM188.96 38.9289H212.102L210.016 32.5837H191.046L188.96 38.9289ZM210.777 48.7556H219.712L205.534 8.24146H200.601V16.1028L210.777 48.7556Z" fill="#8F1A1A"/>
<path d="M99.9993 48.7556C100.803 47.032 101.615 45.2611 102.438 43.4428C103.26 41.6245 104.121 39.7209 105.02 37.7321L96.3558 19.8616C95.4187 17.9296 94.5198 16.0829 93.6591 14.3214C92.8176 12.541 91.8422 10.5143 90.7329 8.24146H101.348C101.941 9.69989 102.466 11.0068 102.925 12.1622C103.404 13.3176 103.834 14.3972 104.216 15.401C104.618 16.386 105.02 17.3803 105.421 18.3842C105.823 19.3691 106.263 20.4393 106.741 21.5947L109.696 28.8963H110.384L113.196 21.7083C113.674 20.515 114.104 19.4165 114.487 18.4126C114.889 17.3898 115.281 16.3765 115.663 15.3726C116.065 14.3498 116.486 13.2702 116.925 12.1338C117.384 10.9784 117.901 9.68095 118.475 8.24146H128.659C127.511 10.7227 126.335 13.2797 125.13 15.9124C123.944 18.5452 122.835 20.9696 121.802 23.1857L115.95 35.9707C115.07 37.9405 114.104 40.0618 113.052 42.3347C112.02 44.5887 111.035 46.729 110.098 48.7556H99.9993Z" fill="#8F1A1A"/>
<path d="M125.446 19.8074H131.222L131.25 19.5631C131.378 18.5495 131.734 17.6716 132.318 16.9295C132.903 16.1693 133.688 15.5811 134.674 15.1648C135.66 14.7485 136.793 14.5403 138.071 14.5403C139.368 14.5403 140.473 14.7485 141.386 15.1648C142.317 15.563 143.02 16.1422 143.495 16.9024C143.988 17.6445 144.235 18.5495 144.235 19.6174V19.6717C144.235 20.7215 143.952 21.6537 143.386 22.4682C142.838 23.2646 142.053 23.889 141.03 24.3415C140.007 24.794 138.802 25.0203 137.414 25.0203H133.003V30.8576H137.523C139.916 30.8576 141.779 31.3553 143.112 32.3508C144.445 33.3463 145.112 34.7853 145.112 36.6677V36.722C145.112 37.7899 144.819 38.7402 144.235 39.5728C143.669 40.3873 142.865 41.0299 141.824 41.5005C140.783 41.953 139.55 42.1792 138.126 42.1792C135.989 42.1792 134.254 41.7177 132.921 40.7945C131.606 39.8533 130.866 38.6859 130.702 37.2922L130.647 36.9935H122.757L122.785 37.3465C122.967 39.5909 123.707 41.5729 125.004 43.2924C126.319 45.0119 128.09 46.3603 130.318 47.3378C132.547 48.2971 135.158 48.7767 138.153 48.7767C141.24 48.7767 143.934 48.288 146.235 47.3106C148.536 46.3151 150.326 44.9395 151.604 43.1838C152.883 41.4281 153.522 39.3827 153.522 37.0478V36.9935C153.522 34.3328 152.636 32.197 150.865 30.5861C149.111 28.9752 146.764 28.034 143.824 27.7625V27.5996C145.358 27.2737 146.746 26.7126 147.988 25.9162C149.248 25.1198 150.244 24.1062 150.974 22.8754C151.705 21.6446 152.07 20.2147 152.07 18.5857V18.5314C152.07 16.468 151.495 14.667 150.344 13.1285C149.193 11.59 147.568 10.3954 145.468 9.54467C143.386 8.67586 140.92 8.24146 138.071 8.24146C135.313 8.24146 132.884 8.71206 130.784 9.65327C130.476 9.78875 130.177 9.93243 129.887 10.0843C129.011 11.9852 128.119 13.9292 127.211 15.9164C126.602 17.2683 126.014 18.5653 125.446 19.8074Z" fill="#8F1A1A"/>
<path d="M186.491 34.0111V48.7767H177.986V15.2361H159.822V48.7767H151.317V8.24146H186.491V28.0392L179.227 48.7556H181.321L186.491 34.0111Z" fill="#8F1A1A"/>
<path d="M15.6368 65.3515L0.455078 56.6817V38.9697H8.79434C8.75831 46.3676 11.1105 50.5474 19.8064 58.3305L15.6368 65.3515Z" fill="#656883"/>
<path d="M15.6368 7.16284L0.455078 15.8327V33.5446H8.79434C8.75831 26.1467 11.1105 21.9669 19.8064 14.1838L15.6368 7.16284Z" fill="#656883"/>
<path d="M36.966 53.4371C46.443 53.4371 54.1257 45.793 54.1257 36.3635C54.1257 26.9339 46.443 19.2898 36.966 19.2898C27.489 19.2898 19.8064 26.9339 19.8064 36.3635C19.8064 45.793 27.489 53.4371 36.966 53.4371Z" fill="#656883"/>
<path d="M58.4023 65.3515L73.584 56.6817V38.9697H65.2448C65.2811 46.3676 62.929 50.5474 54.2327 58.3305L58.4023 65.3515Z" fill="#656883"/>
<path d="M58.4023 7.16284L73.584 15.8327V33.5446H65.2448C65.2811 26.1467 62.929 21.9669 54.2327 14.1838L58.4023 7.16284Z" fill="#656883"/>
<path d="M55.6759 0.833252H18.363L24.9917 11.7902C26.9354 10.3608 28.2889 9.84443 31.4599 9.71582V15.8326H42.579V9.71582C45.75 9.84443 47.1035 10.3608 49.0472 11.7902L55.6759 0.833252Z" fill="#8F1A1A"/>
<path d="M36.3247 76.9999L20.5549 68.1705L24.8315 61.4155C29.093 63.6371 31.6301 64.1227 36.3247 64.1282C41.0193 64.1227 43.5563 63.6371 47.8179 61.4155L52.0944 68.1705L36.3247 76.9999Z" fill="#656883"/>
<path d="M37.073 53.4371C27.596 53.4371 19.9134 45.793 19.9134 36.3635C19.9134 26.9339 27.596 19.2898 37.073 19.2898C46.55 19.2898 54.2327 26.9339 54.2327 36.3635C54.2327 45.793 46.55 53.4371 37.073 53.4371Z" fill="#8F1A1A"/>
</svg>
