<svg width="218" height="40" viewBox="0 0 218 40" fill="none" xmlns="http://www.w3.org/2000/svg">
<path d="M123.677 38.2346H124.98L125.071 27.8361H123.768L123.677 38.2346ZM130.192 38.4399L131.177 37.5834L126.647 32.9151L131.146 28.4221L130.237 27.6257L125.026 32.9452L130.192 38.4399ZM131.813 38.0643L133.024 38.4399L134.555 34.7734H138.887L140.311 38.4399L141.615 38.0192L137.448 27.8361H136.207L131.813 38.0643ZM138.448 33.6964H135.01L136.767 29.0031H136.797L138.448 33.6964ZM142.584 38.2346H149.568V37.1526H143.978L149.75 28.5523L149.371 27.8361H142.569V28.918H147.977L142.206 37.5133L142.584 38.2346ZM150.34 38.0643L151.552 38.4399L153.082 34.7734H157.416L158.84 38.4399L160.142 38.0192L155.976 27.8361H154.734L150.34 38.0643ZM156.976 33.6964H153.537L155.294 29.0031H155.324L156.976 33.6964ZM161.566 38.2346H162.868L162.96 27.8361H161.658L161.566 38.2346ZM168.08 38.4399L169.066 37.5834L164.535 32.9151L169.035 28.4221L168.125 27.6257L162.914 32.9452L168.08 38.4399ZM170.823 38.2346H172.14L172.201 33.5312H177.852L177.806 38.2346H179.124L179.215 27.8361H177.896L177.837 32.4493H172.186L172.232 27.8361H170.913L170.823 38.2346ZM181.139 37.6184C182.018 38.1544 182.882 38.4399 184.018 38.4399C186.32 38.4399 187.411 37.0024 187.411 35.4546C187.411 32.1888 182.699 32.7198 182.699 30.4307C182.699 29.1834 183.729 28.6174 184.639 28.6174C185.623 28.6174 186.245 28.9781 186.866 29.3788L187.365 28.4322C186.532 27.9412 185.608 27.6257 184.578 27.6257C182.714 27.6257 181.397 28.7477 181.397 30.3606C181.397 33.997 186.017 32.9151 186.017 35.5598C186.017 36.7168 185.169 37.4532 183.941 37.4532C183.123 37.4532 182.276 37.0775 181.714 36.6867L181.139 37.6184ZM188.304 28.918H191.622L191.531 38.2346H192.834L192.925 28.918H196.243V27.8361H188.304V28.918ZM195.44 38.0643L196.652 38.4399L198.182 34.7734H202.515L203.938 38.4399L205.242 38.0192L201.076 27.8361H199.833L195.44 38.0643ZM202.076 33.6964H198.637L200.394 29.0031H200.424L202.076 33.6964ZM206.666 38.2346H207.983L208.044 29.9399H208.075L213.831 38.4399L214.967 38.0192L215.059 27.8361H213.74L213.68 36.0557H213.65L207.847 27.6257L206.756 28.0916L206.666 38.2346Z" fill="#2B8B45"/>
<path d="M146.76 3.13705C146.438 2.96675 146.108 2.7764 145.765 2.62614C144.088 1.89985 142.372 1.8147 141.741 1.8147C138.261 1.8147 136.322 3.60789 135.453 4.65475C134.322 6.04221 133.737 7.79532 133.737 9.60855C133.737 11.8325 134.606 14.0063 136.276 15.4589C138.235 17.167 140.432 17.3222 141.372 17.3222C143.978 17.2972 145.786 16.2954 146.634 15.8245L145.957 14.5624C144.569 15.2286 143.28 15.8245 141.649 15.8245C138.999 15.8245 137.539 14.3069 136.974 13.5405C135.822 12.0028 135.757 10.2697 135.757 9.58851C135.757 8.73199 135.867 6.34274 137.847 4.67479C139.393 3.37247 140.999 3.28731 141.761 3.28731C143.413 3.28731 144.326 3.64796 144.978 3.94848C145.326 4.1188 145.654 4.31414 146.003 4.50447L146.76 3.13705Z" fill="#2B8B45"/>
<path d="M148.821 1.88501V17.032H157.022V15.4992H150.694V10.0195H156.693V8.5118H150.714V3.35262H156.869V1.88501H148.821Z" fill="#2B8B45"/>
<path d="M161.834 1.91006L159.137 16.8165L160.899 17.1171C161.142 15.6294 161.38 14.1418 161.643 12.6491C161.879 11.2517 162.142 9.84917 162.359 8.42164C162.597 6.91395 162.768 5.38123 162.945 3.84851C163.142 4.58481 163.313 5.33615 163.551 6.07246C163.707 6.52325 163.879 6.95402 164.031 7.38478C164.53 8.68209 164.99 9.99943 165.469 11.3168C166.162 13.2352 166.839 15.1335 167.535 17.032H169.272C170.232 14.5075 171.186 11.983 172.166 9.45848C172.337 8.96259 172.534 8.46671 172.731 7.97083C172.969 7.36475 173.191 6.76368 173.429 6.15761C173.711 5.40127 173.968 4.60484 174.231 3.80843C174.257 5.44635 174.362 6.35295 174.797 9.37332C175.191 11.983 175.584 14.5926 175.994 17.2023L177.781 16.8366L175.362 1.88501H173.493C172.948 3.26747 172.383 4.64492 171.863 6.02738C171.429 7.1093 171.035 8.20624 170.601 9.28817C170.207 10.325 169.772 11.3168 169.383 12.3486C169.056 13.2352 168.752 14.1618 168.45 15.0684C168.272 14.4624 168.121 13.8614 167.903 13.2752C167.621 12.4137 167.272 11.5923 166.964 10.7307L165.924 7.69033C165.248 5.74688 164.53 3.84851 163.839 1.93009L161.834 1.91006Z" fill="#2B8B45"/>
<path d="M180.134 1.88501V17.032H188.335V15.4992H182.008V10.0195H188.007V8.5118H182.028V3.35262H188.178V1.88501H180.134Z" fill="#2B8B45"/>
<path d="M190.896 2.44597V16.9868H192.612V7.60513C192.612 7.12929 192.592 6.65344 192.567 6.1776C192.546 5.57653 192.482 4.97045 192.415 4.34434C193.006 5.40122 193.093 5.53146 194.198 7.04414C195.223 8.4266 196.243 9.82408 197.269 11.2065C198.703 13.19 200.156 15.1536 201.596 17.137L203.076 16.511V1.88497H201.353V11.4219C201.353 12.7142 201.379 13.2803 201.55 14.5274C201.314 14.0566 201.071 13.5758 200.793 13.1249C200.379 12.4588 199.919 11.8076 199.44 11.1865C198.46 9.80404 197.42 8.46667 196.42 7.10926C195.092 5.33611 193.809 3.54792 192.506 1.77979L190.896 2.44597Z" fill="#2B8B45"/>
<path d="M204.843 1.88501V3.3977H209.696V17.0069H211.604V3.37266H216.437V1.88501H204.843Z" fill="#2B8B45"/>
<path d="M117.365 16.9165L114.694 12.113C114.285 11.4819 113.81 10.7205 113.103 10.3198C112.952 10.2146 112.886 10.1946 112.694 10.1495C112.927 10.1094 113.144 10.0894 113.381 10.0243C113.836 9.91909 114.199 9.72875 114.351 9.66363C114.78 9.43322 115.149 9.1377 115.446 8.77706C116.027 8.06078 116.31 7.04398 116.31 6.13236C116.33 4.95025 115.876 4.10876 115.618 3.72307C114.437 1.99 112.306 1.84474 110.387 1.84474C109.033 1.84474 107.68 1.79966 106.342 1.84474H104.665V16.9165H108.518V11.2515L109.074 11.2715C109.377 11.2915 109.659 11.3316 109.897 11.4618C110.26 11.6522 110.538 12.113 110.927 12.8793L112.972 16.9165H117.365ZM108.518 8.33126V4.73989H110.24C110.538 4.75992 110.887 4.75992 111.164 4.84507C112.306 5.16063 112.412 6.13235 112.412 6.51805C112.432 7.12913 112.154 7.48977 111.982 7.68011C111.487 8.181 110.907 8.27116 110.24 8.31123C110.043 8.31123 109.831 8.33126 109.614 8.33126H108.518Z" fill="#2B8B45"/>
<path d="M127.677 13.766V8.83225H131.551L131.404 16.1502C130.798 16.3557 130.197 16.5008 129.591 16.6211C129.237 16.7112 128.551 16.8665 127.677 16.9817C127.056 17.0518 126.425 17.1069 125.788 17.117H125.703C123.657 17.117 121.845 16.6662 120.254 15.3889C119.244 14.5824 117.542 12.7893 117.542 9.57858C117.542 8.73207 117.648 6.75356 119.092 4.85519C119.37 4.48453 120.102 3.62299 121.223 2.90171C122.148 2.34072 123.526 1.70459 126.001 1.70459C128.41 1.70459 130.045 2.28061 130.95 2.63123L129.96 5.35107C129.636 5.25089 129.313 5.12567 128.996 5.02049C128.263 4.79508 127.334 4.62979 126.541 4.62979C126.192 4.62979 125.289 4.66986 124.364 5.06055C121.804 6.19757 121.587 8.79219 121.587 9.59861C121.587 9.90416 121.587 10.6054 121.935 11.4118C122.779 13.4404 124.587 13.9914 125.698 14.1166C125.854 14.1316 126.016 14.1417 126.182 14.1367C126.864 14.1467 127.425 13.9413 127.677 13.766Z" fill="#2B8B45"/>
<path d="M102.413 7.85061H95.8686V4.99553H102.413V1.875H91.9954V16.9468H102.413V13.8512H95.8686V10.886H102.413V7.85061Z" fill="#2B8B45"/>
<path d="M63.4741 7.85061H56.9296V4.99553H63.4741V1.875H53.0564V16.9468H63.4741V13.8512H56.9296V10.886H63.4741V7.85061Z" fill="#2B8B45"/>
<path d="M69.7409 1.875H65.7617V16.9468H76.3511V13.661H69.7409V1.875Z" fill="#2B8B45"/>
<path d="M40.1392 16.9166H36.1145V1.86486H40.6543C41.3663 1.84482 42.0733 1.86486 42.7651 1.86486C43.1944 1.86486 43.6437 1.86486 44.0781 1.90994C44.785 1.97004 46.6989 2.1153 48.4007 3.37254C49.4762 4.16895 51.2033 5.96714 51.178 9.25298C51.178 9.73384 51.1578 10.7807 50.7287 11.9929C49.9509 14.1718 48.1634 15.8647 45.906 16.5559C45.1739 16.7864 44.2497 16.9516 42.5934 16.9516H42.1187L40.1392 16.9166ZM42.1187 13.9363C43.5529 13.8862 44.9214 13.5757 45.9717 12.3735C46.4212 11.8676 47.0675 10.9059 47.0675 9.29306C47.0675 7.99575 46.6383 7.15926 46.3353 6.72349C45.3051 5.19077 43.7094 4.86018 41.9015 4.86018C41.3208 4.86018 40.7199 4.88022 40.1392 4.88022V13.8962L42.1187 13.9363Z" fill="#2B8B45"/>
<path d="M82.2087 16.9166H78.3557V1.85986H84.6629C86.8343 1.89994 87.9554 2.2155 88.7734 2.90672C89.3339 3.37256 90.0006 4.189 90.0006 5.85196C90.0006 6.14749 90.0006 6.33783 89.9349 6.63335C89.8692 7.00902 89.6319 8.121 88.6422 8.83727C88.2988 9.09272 87.9756 9.23798 87.5867 9.38324C87.9301 9.51347 88.7481 9.78395 89.3945 10.5403C89.9753 11.2165 90.2328 12.0129 90.2328 12.8995C90.2328 14.9781 89.0108 15.9248 88.2786 16.3256C87.3292 16.8465 86.2183 16.9567 84.1882 16.9467L82.2087 16.9166ZM84.1882 14.0215C84.6983 14.0064 85.0214 13.9865 85.284 13.8863C85.6527 13.756 86.2334 13.4054 86.2334 12.4837C86.2334 12.3134 86.2132 11.9578 85.9506 11.5621C85.5011 10.8508 84.6831 10.8308 83.9054 10.8308H82.2087V14.0015L84.1882 14.0215ZM82.2087 7.92064H84.168C85.1982 7.9006 85.6274 7.75534 85.9304 7.29452C86.0365 7.14926 86.2132 6.85374 86.2132 6.41295C86.2132 6.24767 86.1879 5.72674 85.8647 5.34606C85.3952 4.76002 84.6377 4.76002 83.9913 4.73999H82.2087V7.92064Z" fill="#2B8B45"/>
<path d="M5.68949 1.86987H1.73047V5.80186H5.68949V1.86987Z" fill="#2B8B45"/>
<path d="M14.6225 1.875H10.6585V7.77047H1.73047V16.9517H5.68949V10.9962H10.6585V16.9517H14.6225V1.875Z" fill="#2B8B45"/>
<path d="M27.4591 7.85061H20.9146V4.99553H27.4591V1.875H17.0415V16.9468H27.4591V13.8512H20.9146V10.886H27.4591V7.85061Z" fill="#2B8B45"/>
<path d="M33.731 1.875H29.7063V16.9468H33.731V1.875Z" fill="#2B8B45"/>
</svg>
