<svg width="128" height="46" viewBox="0 0 128 46" fill="none" xmlns="http://www.w3.org/2000/svg">
<path fill-rule="evenodd" clip-rule="evenodd" d="M123.806 2.47455C122.165 3.93783 120.05 6.96078 118.63 9.87309L116.231 14.7971L109.884 17.5099C106.394 19.0023 102.764 20.4276 101.818 20.6774C98.6165 21.5217 96.316 22.5594 96.316 23.158C96.316 23.4865 96.774 23.7546 97.3345 23.7546C98.8524 23.7546 99.4707 27.0409 98.1908 28.304C96.6915 29.7835 95.5986 28.8198 96.0807 26.4429C96.5697 24.0308 95.4514 23.8035 92.8772 25.7907C90.5223 27.6083 89.5615 27.4963 89.9576 25.4514C90.2011 24.1964 89.9913 23.7546 89.1529 23.7546C88.5298 23.7546 87.8469 24.1985 87.6357 24.7414C87.4246 25.2844 85.864 26.3914 84.1673 27.2017C79.8867 29.2467 78.8943 28.0963 82.1598 24.8745C84.7292 22.3388 85.113 21.4178 83.906 20.6821C82.732 19.9661 79.7677 22.3307 78.7113 24.8256C78.1707 26.1029 77.3062 27.1481 76.7918 27.1481C76.2766 27.1481 74.8881 27.3388 73.7058 27.5723C70.9905 28.1085 70.734 26.4782 73.2759 24.8351C74.2216 24.2236 74.9953 23.272 74.9953 22.7209C74.9953 20.8898 72.529 21.6839 70.201 24.2636C68.6769 25.9529 67.7986 26.5034 67.5902 25.9007C67.4169 25.4018 67.6198 24.6532 68.04 24.2385C68.4609 23.8232 68.8055 22.628 68.8055 21.5828C68.8055 19.884 68.5641 19.6824 66.5283 19.6824C65.2009 19.6824 63.6342 20.2491 62.7738 21.0398C61.9623 21.7864 61.1259 22.3972 60.9155 22.3972C60.1431 22.3972 62.6603 17.4461 64.7683 14.8202C66.9341 12.1216 68.9465 7.56143 68.3749 6.64858C67.4582 5.18529 65.4389 7.77726 61.9203 14.9335C60.5131 17.7942 59.2133 19.2385 56.3597 21.1077C51.2607 24.4489 48.2545 25.921 47.4862 25.452C46.8239 25.0482 46.9463 22.3008 47.8624 17.0334C48.2428 14.8446 48.1699 14.174 47.5894 14.5283C47.154 14.7944 46.7971 15.4615 46.7971 16.012C46.7971 17.8777 43.4931 23.4037 40.9511 25.7907L38.4208 28.1662L38.8314 21.5488C39.057 17.9096 39.0068 14.9369 38.7207 14.943C38.4346 14.9491 37.4875 16.58 36.6161 18.5673C35.7021 20.6516 33.568 23.589 31.57 25.5124L28.1078 28.8449L28.4153 22.0578C28.5845 18.325 29.0762 14.4109 29.5068 13.3603C29.938 12.3096 30.2908 11.0113 30.2908 10.4758C30.2908 8.87608 29.0968 9.37357 28.6416 11.1633C27.6532 15.0496 13.378 31.3751 12.636 29.4679C11.8533 27.4556 13.0747 23.587 16.1552 18.3162C19.3609 12.8316 20.2797 9.96947 17.9496 12.7257C16.2928 14.6858 15.9613 14.6505 16.3671 12.556C16.5479 11.6228 16.4173 10.8592 16.0761 10.8592C15.2948 10.8592 13.0968 14.4788 13.0968 15.7649C13.0968 16.6479 10.301 23.5435 6.80717 31.2794C6.03412 32.9918 4.57607 35.2824 3.56712 36.3697C0.778933 39.375 -1.01819 44.1157 0.630376 44.1157C1.22048 44.1157 8.28242 32.9327 8.28242 31.9981C8.28242 31.7368 8.80168 30.7914 9.43579 29.8975C10.5293 28.3569 10.616 28.3406 11.1064 29.5772C11.9606 31.7267 11.7921 32.4637 10.3457 32.9171C9.58917 33.154 8.97018 33.7852 8.97018 34.32C8.97018 35.3489 10.4537 35.6421 11.3154 34.7835C11.5961 34.5039 14.0232 33.9691 16.7082 33.5958C19.7914 33.1669 21.7062 32.5682 21.9049 31.9696C22.1594 31.2027 21.5459 31.1097 18.6896 31.4837C16.7481 31.7382 15.16 31.6988 15.16 31.3968C15.16 30.9794 24.81 18.8469 26.6367 16.9676C26.8183 16.7809 26.863 19.5297 26.7371 23.0759L26.5081 29.5236L28.2481 29.7238C29.6863 29.8894 30.5817 29.1476 33.4064 25.452L36.8245 20.9794L37.0295 25.0821C37.2021 28.5462 37.4318 29.1842 38.5054 29.1842C39.2042 29.1842 41.0309 27.7332 42.5639 25.9604L45.3507 22.7366L45.8163 24.9423C46.4683 28.0365 48.3982 27.8384 54.0557 24.094C56.5943 22.4142 58.7848 21.0398 58.9237 21.0398C59.0633 21.0398 59.1768 22.3768 59.1768 24.0112C59.1768 28.1492 60.0991 28.7166 65.4492 27.8662C69.084 27.2886 69.8915 27.3402 70.3674 28.1797C71.0325 29.3525 74.4761 29.5066 76.4727 28.4519C77.571 27.8716 78.0387 27.9619 78.7244 28.887C79.4066 29.808 80.1405 29.9525 82.1935 29.5724C84.7017 29.1082 84.7815 29.1517 84.373 30.7568C83.8042 32.9938 85.3599 34.3207 87.331 33.2795C88.1117 32.8675 88.7678 32.0063 88.7884 31.3663C88.8097 30.7262 89.7073 29.5175 90.7829 28.68C93.0587 26.9085 95.0443 26.0452 94.8868 26.895C94.3366 29.8704 96.3111 31.1457 98.8889 29.4788C100.526 28.42 100.707 27.1529 99.6853 23.8978C99.5072 23.3297 101.954 22.0056 106.656 20.1256C110.64 18.5327 114.277 16.9995 114.737 16.7192C115.809 16.0656 115.852 15.8341 113.866 21.3791C111.912 26.8305 111.641 32.3823 113.184 35.3265C113.761 36.4273 114.033 37.3287 113.789 37.3287C113.544 37.3287 108.971 37.9544 103.627 38.7193C91.9404 40.3917 76.9947 43.8164 75.2361 45.2254C73.7945 46.3798 73.2973 46.4532 83.5924 43.9888C91.8469 42.0124 103.114 40.169 109.887 39.6872C117.918 39.115 118.178 39.0146 116.45 37.1413C112.819 33.2055 112.641 29.6933 115.647 21.2638C117.441 16.2346 118.319 14.7794 121.108 12.2167C125.65 8.04399 129.705 0 127.267 0C126.89 0 125.333 1.11375 123.806 2.47455ZM124.923 5.5993C123.058 8.70504 120.379 11.7558 119.917 11.2997C119.509 10.8973 122.324 6.04792 124.014 4.24189C126.319 1.77684 126.793 2.48473 124.923 5.5993ZM67.2229 22.1651C67.5104 22.9042 67.0187 23.8347 65.7876 24.8799C62.3226 27.8207 60.5585 26.3344 63.3536 22.8282C64.9774 20.7907 66.5813 20.5158 67.2229 22.1651Z" fill="#323C8D"/>
</svg>
